<svg width="154" height="154" viewBox="0 0 154 154" fill="none" xmlns="http://www.w3.org/2000/svg">
<path d="M108.281 33.688L108.223 33.6646C117.964 42.5659 122.763 55.5464 118.125 69.1953C116.667 73.4853 115.086 77.6652 113.49 81.8858C111.724 86.5559 109.939 91.2768 108.281 96.2505L117.906 81.813L125.125 93.8442L127.531 79.4067L137.598 90.1436L140.741 74.3896L154 95.3949C133.478 114.022 103.86 122.428 73.4973 123.83C65.9793 135.988 60.7073 140.182 48.1251 144.376L59.0024 123.981C57.4609 123.943 55.9209 123.889 54.3835 123.818C48.9352 140.424 32.8511 148.802 19.25 154L37.7555 121.616C28.3103 118.245 21.129 110.074 19.5457 99.8189C19.1838 97.4752 18.8849 95.1578 18.6491 92.8589C12.6253 100.133 6.68403 106.054 0.00012207 110.688L9.62512 77.0007L0.00012207 48.1257C6.70085 49.2872 13.4016 54.3299 19.6866 59.9458C20.7851 53.3081 22.4196 46.5093 24.5968 39.3621C29.1328 24.4715 44.5234 16.1489 59.899 18.5766L69.9868 20.1695L70.2625 19.2505V14.438L81.8125 19.2505V12.0317L91.4375 21.6567L93.3625 9.62549L108.281 33.688Z" fill="white"/>
<circle cx="72.1875" cy="72.1875" r="28.875" fill="#323232"/>
<circle cx="69.7812" cy="74.5938" r="21.6562" fill="#151515"/>
<circle cx="84.2188" cy="60.1562" r="12.0312" fill="white"/>
</svg>
