<svg width="27" height="26" viewBox="0 0 27 26" fill="none" xmlns="http://www.w3.org/2000/svg">
<path d="M18.9843 4.33342L18.9742 4.32928C20.682 5.93205 21.5234 8.26976 20.7102 10.7278C20.4546 11.5003 20.1774 12.2531 19.8976 13.0131C19.588 13.8541 19.275 14.7044 18.9843 15.6L20.6718 13.0001L21.9375 15.1667L22.3593 12.5668L24.1243 14.5004L24.6754 11.6633L27 15.446C23.402 18.8005 18.2092 20.3143 12.8858 20.5668C11.5677 22.7563 10.6434 23.5116 8.4375 24.2668L10.3445 20.594C10.0745 20.5872 9.80451 20.5774 9.53468 20.5646C8.57951 23.5551 5.75977 25.0639 3.375 26L6.61938 20.1681C4.96344 19.561 3.70444 18.0895 3.42672 16.2427C3.36343 15.8206 3.31101 15.4033 3.26963 14.9893C2.21347 16.2993 1.17187 17.3656 0 18.2001L1.6875 12.1335L0 6.93351C1.17468 7.14259 2.3497 8.05077 3.45162 9.06214C3.64412 7.86672 3.93078 6.64231 4.31246 5.35523C5.10773 2.67375 7.80598 1.17488 10.5018 1.61214L12.2704 1.89883L12.3188 1.73333V0.866757L14.3438 1.73333V0.433468L16.0312 2.1668L16.3687 0L18.9843 4.33342Z" fill="white"/>
<path d="M12.6563 16.4669C15.4522 16.4669 17.7188 14.1388 17.7188 11.2669C17.7188 8.39501 15.4522 6.06689 12.6563 6.06689C9.86031 6.06689 7.59375 8.39501 7.59375 11.2669C7.59375 14.1388 9.86031 16.4669 12.6563 16.4669Z" fill="#323232"/>
<path d="M12.2343 15.5997C14.3313 15.5997 16.0312 13.8536 16.0312 11.6998C16.0312 9.54587 14.3313 7.7998 12.2343 7.7998C10.1374 7.7998 8.4375 9.54587 8.4375 11.6998C8.4375 13.8536 10.1374 15.5997 12.2343 15.5997Z" fill="#151515"/>
<path d="M14.7656 11.2663C15.9305 11.2663 16.8749 10.2963 16.8749 9.09973C16.8749 7.90313 15.9305 6.93311 14.7656 6.93311C13.6006 6.93311 12.6562 7.90313 12.6562 9.09973C12.6562 10.2963 13.6006 11.2663 14.7656 11.2663Z" fill="white"/>
</svg>
