<?xml version="1.0" encoding="UTF-8"?>
<svg width="115px" height="26px" viewBox="0 0 115 26" version="1.1" xmlns="http://www.w3.org/2000/svg" xmlns:xlink="http://www.w3.org/1999/xlink">
    <title>dtrade</title>
    <g id="Site" stroke="none" stroke-width="1" fill="none" fill-rule="evenodd">
        <g id="Edgeware-V2---Developers-(Desktop)" transform="translate(-986.000000, -3519.000000)" fill="#FFFFFF" fill-rule="nonzero">
            <g id="dtrade" transform="translate(986.000000, 3519.000000)">
                <path d="M8.75447239,26 C7.080117,26 5.58515841,25.5975733 4.26959663,24.7924268 C2.95403485,23.9872804 1.9135393,22.8862104 1.14812476,21.4890703 C0.382710227,20.0920767 0,18.5055163 0,16.7295355 C0,14.9535547 0.382710227,13.3789045 1.14812476,12.0054969 C1.9135393,10.6084008 2.95403485,9.51915308 4.26959663,8.73772445 C5.58515841,7.93262195 7.080117,7.53007802 8.75447239,7.53007802 C10.0939478,7.53007802 11.2659981,7.7787124 12.2706084,8.27598117 C13.2752186,8.77324993 14.0885197,9.47179066 14.7103339,10.371618 L14.7103339,0 L19.3029099,0 L19.3029099,25.5738408 L15.2127278,25.5738408 L14.7103339,23.0520447 C14.1363174,23.8334587 13.370888,24.5200892 12.4141199,25.1120828 C11.4812654,25.7040764 10.2613878,26 8.75447239,26 Z M9.72319739,22.0218792 C11.2061991,22.0218792 12.4141199,21.5365353 13.3469744,20.5657009 C14.3036834,19.5711341 14.7821044,18.3042297 14.7821044,16.7651342 C14.7821044,15.2258923 14.3036834,13.9708541 13.3469744,13.0000344 C12.4141199,12.0054969 11.2061991,11.5082281 9.72319739,11.5082281 C8.26412408,11.5082281 7.05620334,11.99366 6.09942038,12.964509 C5.14265221,13.9354019 4.66426073,15.19044 4.66426073,16.7295355 C4.66426073,18.2687775 5.14265221,19.5355354 6.09942038,20.5301022 C7.05620334,21.524669 8.26412408,22.0218792 9.72319739,22.0218792 Z M31.90878,25.5738408 C30.0430414,25.5738408 28.548142,25.1239491 27.4239338,24.2241657 C26.2997257,23.3242358 25.7375476,21.7259556 25.7375476,19.4290322 L25.7375476,11.7568625 L22.6878167,11.7568625 L22.6878167,7.95631048 L25.7375476,7.95631048 L26.2757528,3.23224257 L30.3301236,3.23224257 L30.3301236,7.95631048 L35.1378633,7.95631048 L35.1378633,11.7568625 L30.3301236,11.7568625 L30.3301236,19.4644844 C30.3301236,20.3169493 30.509476,20.9089429 30.8681808,21.2404652 C31.2510065,21.5484015 31.8967936,21.7022232 32.80569,21.7022232 L35.0301335,21.7022232 L35.0301335,25.5738408 L31.90878,25.5738408 Z M39.0809527,25.5738408 L39.0809527,7.95631048 L43.1711348,7.95631048 L43.6016102,11.2595938 C44.2473972,10.1229836 45.1204824,9.22315628 46.2208657,8.56012637 C47.3450738,7.87342259 48.6606208,7.53007802 50.1675066,7.53007802 L50.1675066,12.3251676 L48.8757845,12.3251676 C47.8712926,12.3251676 46.9742346,12.4790918 46.1849064,12.7869255 C45.3955782,13.0947593 44.773616,13.6275389 44.3191678,14.3852936 C43.8886924,15.1429751 43.6733807,16.1967266 43.6733807,17.5465482 L43.6733807,25.5738408 L39.0809527,25.5738408 Z M59.4415949,26 C57.9107363,26 56.6549734,25.7632612 55.6743064,25.289637 C54.6936394,24.7924268 53.9640953,24.1412485 53.4856742,23.336102 C53.0074011,22.5309556 52.7681166,21.6430384 52.7681166,20.6722041 C52.7681166,19.0383252 53.4139037,17.7122361 54.7056258,16.6940833 C55.9971999,15.675784 57.9347091,15.1667076 60.5180054,15.1667076 L65.0388108,15.1667076 L65.0388108,14.7405483 C65.0388108,13.5328287 64.6919444,12.6448383 63.9982116,12.0765332 C63.3046269,11.5082281 62.4435281,11.2240683 61.4149154,11.2240683 C60.4821941,11.2240683 59.668893,11.4490288 58.9751603,11.8989351 C58.2815755,12.3251676 57.8509521,12.964509 57.6835861,13.8169739 L53.19874,13.8169739 C53.3183082,12.5382911 53.7487836,11.4253549 54.4903141,10.4781651 C55.2558174,9.53099002 56.2364845,8.80876076 57.4324632,8.31149199 C58.6284419,7.79054934 59.9678137,7.53007802 61.4508747,7.53007802 C63.9863732,7.53007802 65.9835185,8.15758245 67.4426066,9.4125913 C68.9016948,10.6676002 69.6312388,12.4435663 69.6312388,14.7405483 L69.6312388,25.5738408 L65.7204091,25.5738408 L65.2899338,22.7322422 C64.763715,23.6794906 64.0221845,24.4609045 63.0653423,25.0766306 C62.132621,25.6922102 60.9246559,26 59.4415949,26 Z M60.4821941,22.4481849 C61.7977411,22.4481849 62.8142194,22.0218792 63.531777,21.1694143 C64.2733075,20.3169493 64.7397421,19.2631978 64.931081,18.0083061 L61.0202513,18.0083061 C59.8004477,18.0083061 58.9273626,18.2331787 58.4011438,18.6830704 C57.874925,19.1093762 57.6118156,19.642185 57.6118156,20.2814971 C57.6118156,20.9681276 57.874925,21.5009365 58.4011438,21.8797773 C58.9273626,22.2587645 59.6210953,22.4481849 60.4821941,22.4481849 Z M82.1941946,26 C80.5199427,26 79.0248954,25.5975733 77.7093484,24.7924268 C76.3938014,23.9872804 75.3533502,22.8862104 74.5878469,21.4890703 C73.8224916,20.0920767 73.4398139,18.5055163 73.4398139,16.7295355 C73.4398139,14.9535547 73.8224916,13.3789045 74.5878469,12.0054969 C75.3533502,10.6084008 76.3938014,9.51915308 77.7093484,8.73772445 C79.0248954,7.93262195 80.5199427,7.53007802 82.1941946,7.53007802 C83.5337144,7.53007802 84.7057202,7.7787124 85.7103601,8.27598117 C86.715,8.77324993 87.528301,9.47179066 88.1501152,10.371618 L88.1501152,0 L92.7426912,0 L92.7426912,25.5738408 L88.6525092,25.5738408 L88.1501152,23.0520447 C87.5760987,23.8334587 86.8105954,24.5200892 85.8539012,25.1120828 C84.9210319,25.7040764 83.7010804,26 82.1941946,26 Z M83.1630231,22.0218792 C84.6459361,22.0218792 85.8539012,21.5365353 86.7867705,20.5657009 C87.7434647,19.5711341 88.2218858,18.3042297 88.2218858,16.7651342 C88.2218858,15.2258923 87.7434647,13.9708541 86.7867705,13.0000344 C85.8539012,12.0054969 84.6459361,11.5082281 83.1630231,11.5082281 C81.703935,11.5082281 80.4959699,11.99366 79.5391277,12.964509 C78.5824336,13.9354019 78.1040125,15.19044 78.1040125,16.7295355 C78.1040125,18.2687775 78.5824336,19.5355354 79.5391277,20.5301022 C80.4959699,21.524669 81.703935,22.0218792 83.1630231,22.0218792 Z M106.066119,26 C104.272151,26 102.681508,25.6211593 101.294191,24.8634778 C99.906873,24.1056498 98.8184762,23.0401785 98.029148,21.6667709 C97.2398198,20.2933634 96.8451557,18.7068029 96.8451557,16.9070896 C96.8451557,15.0837904 97.2278334,13.4617924 97.9933367,12.0410224 C98.7826649,10.6202524 99.8590753,9.51915308 101.22242,8.73772445 C102.609738,7.93262195 104.236192,7.53007802 106.10193,7.53007802 C107.848101,7.53007802 109.390798,7.90894806 110.730318,8.66668815 C112.069837,9.42442824 113.110289,10.4663282 113.851819,11.792388 C114.617174,13.0947593 115,14.5509815 115,16.1612744 C115,16.4217457 114.988014,16.6940833 114.964041,16.9781406 C114.964041,17.2623444 114.952054,17.558268 114.928229,17.8662042 L101.401772,17.8662042 C101.497516,19.2396118 101.975937,20.3169493 102.836888,21.0983633 C103.721959,21.8797773 104.786383,22.2704843 106.03016,22.2704843 C106.963029,22.2704843 107.740371,22.0693442 108.362333,21.6667709 C109.00812,21.2404652 109.486541,20.6959366 109.797448,20.032892 L114.461795,20.032892 C114.126915,21.1458283 113.564737,22.1639811 112.775409,23.087497 C112.010053,23.9872804 111.053211,24.6976434 109.905178,25.218586 C108.78097,25.7395287 107.501234,26 106.066119,26 Z M106.10193,11.2240683 C104.977722,11.2240683 103.985069,11.5437536 103.12397,12.183095 C102.262871,12.7987625 101.712828,13.7459376 101.473543,15.0246057 L110.335653,15.0246057 C110.263883,13.8643509 109.833407,12.9408351 109.044079,12.2541313 C108.254751,11.5674275 107.273936,11.2240683 106.10193,11.2240683 Z" id="Shape"></path>
            </g>
        </g>
    </g>
</svg>