<?xml version="1.0" encoding="UTF-8"?>
<svg width="478px" height="193px" viewBox="0 0 478 193" version="1.1" xmlns="http://www.w3.org/2000/svg" xmlns:xlink="http://www.w3.org/1999/xlink">
    <title>404</title>
    <g id="Site" stroke="none" stroke-width="1" fill="none" fill-rule="evenodd">
        <g id="Edgeware-V3---404-Error-(Desktop)" transform="translate(-485.000000, -279.000000)" fill-rule="nonzero" stroke="#FF3B80">
            <path d="M606.915078,468 L606.915078,430.411429 L638,430.411429 L638,405.965714 L606.915078,405.965714 L606.915078,284 L556.599653,284 L486,398.342857 L486,430.411429 L579.254766,430.411429 L579.254766,468 L606.915078,468 Z M579,406 L513,406 L513,402.306533 L574.809524,301 L579,301 L579,406 Z M723.368224,471 C744.979439,471 762.154206,464.921932 774.892523,452.765797 C787.630841,440.609661 794,422.288004 794,397.800824 L794,397.800824 L794,353.199176 C794,329.236722 787.630841,311.046245 774.892523,298.627747 C762.154206,286.209249 744.979439,280 723.368224,280 C701.93271,280 684.845794,286.209249 672.107477,298.627747 C659.369159,311.046245 653,329.236722 653,353.199176 L653,353.199176 L653,397.800824 C653,422.288004 659.369159,440.609661 672.107477,452.765797 C684.845794,464.921932 701.93271,471 723.368224,471 Z M723.369231,447 C709.246154,447 698.653846,442.924074 691.592308,434.772222 C684.530769,426.62037 681,414.830864 681,399.403704 L681,399.403704 L681,352.07037 C681,337.344444 684.661538,325.817901 691.984615,317.490741 C699.307692,309.16358 709.769231,305 723.369231,305 C736.794872,305 747.25641,309.075926 754.753846,317.227778 C762.251282,325.37963 766,336.993827 766,352.07037 L766,352.07037 L766,399.403704 C766,414.480247 762.512821,426.182099 755.538462,434.509259 C748.564103,442.83642 737.841026,447 723.369231,447 Z M930.915078,468 L930.915078,430.411429 L962,430.411429 L962,405.965714 L930.915078,405.965714 L930.915078,284 L880.599653,284 L810,398.342857 L810,430.411429 L903.254766,430.411429 L903.254766,468 L930.915078,468 Z M903,406 L837,406 L837,402.306533 L898.809524,301 L903,301 L903,406 Z" id="404"></path>
        </g>
    </g>
</svg>