<svg width="459px" height="192px" viewBox="0 0 459 192" version="1.1" xmlns="http://www.w3.org/2000/svg" xmlns:xlink="http://www.w3.org/1999/xlink">
    <title>500</title>
    <g id="Site" stroke="none" stroke-width="1" fill="none" fill-rule="evenodd">
        <g id="Edgeware-V3---500-Error-(Desktop)" transform="translate(-499.000000, -278.000000)" fill-rule="nonzero" stroke="#FF3B80">
            <path d="M567.130097,469 C581.00712,469 592.932686,466.394958 602.906796,461.184874 C612.880906,455.97479 620.556634,448.680672 625.933981,439.302521 C631.311327,429.92437 634,418.896359 634,406.218487 L634,406.218487 L634,403.352941 C634,390.67507 631.398058,379.864146 626.194175,370.920168 C620.990291,361.97619 614.008414,355.203081 605.248544,350.60084 C596.488673,345.998599 586.731392,343.697479 575.976699,343.697479 C568.691262,343.697479 562.446602,344.565826 557.242718,346.302521 C552.038835,348.039216 547.832362,350.253501 544.623301,352.945378 C541.414239,355.637255 538.942395,358.459384 537.207767,361.411765 L537.207767,361.411765 L533.04466,361.411765 L533.04466,307.747899 L627.75534,307.747899 L627.75534,283 L505.724272,283 L505.724272,383.294118 L540.330097,383.294118 C541.891262,380.862745 543.842718,378.344538 546.184466,375.739496 C548.526214,373.134454 551.648544,370.920168 555.551456,369.096639 C559.454369,367.273109 564.354693,366.361345 570.252427,366.361345 C580.833657,366.361345 589.550162,369.747899 596.401942,376.521008 C603.253722,383.294118 606.679612,392.32493 606.679612,403.613445 L606.679612,403.613445 L606.679612,405.957983 C606.679612,417.767507 603.210356,427.145658 596.271845,434.092437 C589.333333,441.039216 579.532686,444.512605 566.869903,444.512605 C554.554045,444.512605 544.970227,441.169468 538.118447,434.483193 C531.266667,427.796919 527.840777,418.896359 527.840777,407.781513 L527.840777,407.781513 L527.840777,405.176471 L500,405.176471 L500,408.042017 C500,420.19888 502.732039,430.879552 508.196117,440.084034 C513.660194,449.288515 521.422654,456.408964 531.483495,461.445378 C541.544337,466.481793 553.426537,469 567.130097,469 Z M723.869159,469 C745.327103,469 762.380062,462.953755 775.028037,450.861264 C787.676012,438.768773 794,420.54304 794,396.184066 L794,396.184066 L794,351.815934 C794,327.978938 787.676012,309.8837 775.028037,297.53022 C762.380062,285.17674 745.327103,279 723.869159,279 C702.58567,279 685.619938,285.17674 672.971963,297.53022 C660.323988,309.8837 654,327.978938 654,351.815934 L654,351.815934 L654,396.184066 C654,420.54304 660.323988,438.768773 672.971963,450.861264 C685.619938,462.953755 702.58567,469 723.869159,469 Z M723.369231,445 C709.246154,445 698.653846,440.952778 691.592308,432.858333 C684.530769,424.763889 681,413.057407 681,397.738889 L681,397.738889 L681,350.738889 C681,336.116667 684.661538,324.671296 691.984615,316.402778 C699.307692,308.134259 709.769231,304 723.369231,304 C736.794872,304 747.25641,308.047222 754.753846,316.141667 C762.251282,324.236111 766,335.768519 766,350.738889 L766,350.738889 L766,397.738889 C766,412.709259 762.512821,424.328704 755.538462,432.597222 C748.564103,440.865741 737.841026,445 723.369231,445 Z M886.869159,469 C908.327103,469 925.380062,462.953755 938.028037,450.861264 C950.676012,438.768773 957,420.54304 957,396.184066 L957,396.184066 L957,351.815934 C957,327.978938 950.676012,309.8837 938.028037,297.53022 C925.380062,285.17674 908.327103,279 886.869159,279 C865.58567,279 848.619938,285.17674 835.971963,297.53022 C823.323988,309.8837 817,327.978938 817,351.815934 L817,351.815934 L817,396.184066 C817,420.54304 823.323988,438.768773 835.971963,450.861264 C848.619938,462.953755 865.58567,469 886.869159,469 Z M886.369231,445 C872.246154,445 861.653846,440.952778 854.592308,432.858333 C847.530769,424.763889 844,413.057407 844,397.738889 L844,397.738889 L844,350.738889 C844,336.116667 847.661538,324.671296 854.984615,316.402778 C862.307692,308.134259 872.769231,304 886.369231,304 C899.794872,304 910.25641,308.047222 917.753846,316.141667 C925.251282,324.236111 929,335.768519 929,350.738889 L929,350.738889 L929,397.738889 C929,412.709259 925.512821,424.328704 918.538462,432.597222 C911.564103,440.865741 900.841026,445 886.369231,445 Z" id="500"></path>
        </g>
    </g>
</svg>
