<svg height="448" viewBox="0 0 514 448" width="514" xmlns="http://www.w3.org/2000/svg"><path d="m415.418182 53.5095299-55.881925 101.2541061h-50.008984l80.886417-146.61818145zm-90.736257-53.5095299h50.008984l-80.886417 146.618182-25.004492-45.364075zm-47.73647 159.560404-25.697048 44.07596-88.339316-151.4149499 25.697047-44.07595955zm-187.345455-106.9292991 31.338943-52.6311049h51.954236l-31.246498 52.6311049 94.571501 159.1507131h-51.954236zm-64.4060239 118.4234401h112.5211389l25.193976 40.727273h-162.909091zm0 105.89091-25.1939761-40.727273h162.909091l-25.193976 40.727273zm160.0937919-48.872728h50.930414l-87.542313 154.763637h-50.9304145zm-.882243 219.927273h-61.240989l-25.4190815-43.900358h61.2409895l92.539929-159.736006 25.419082 43.900359zm140.2764 0-55.881925-101.254107 25.004492-45.364075 80.886417 146.618182zm90.736257-53.50953-25.004492 45.364075-80.886417-146.618181h50.008984zm-120.761057-117.545015-25.857125-40.727273h177.779238l25.857126 40.727273zm161.748128-61.527409h-.825243-186.78001l25.765922-44.363501h187.605253l30.992461 53.381954-25.765922 44.363501z" fill="#383838" fill-rule="evenodd" transform="translate(.581818)"/></svg>