<?xml version="1.0" encoding="UTF-8"?>
<svg width="2017px" height="398px" viewBox="0 0 2017 398" version="1.1" xmlns="http://www.w3.org/2000/svg" xmlns:xlink="http://www.w3.org/1999/xlink">
    <title>Graphics/wave-light</title>
    <g id="Graphics/wave-light" stroke="none" stroke-width="1" fill="none" fill-rule="evenodd">
        <path d="M2017,381.71217 C1970.37993,392.669204 1925.8502,398 1880.85594,398 C1789.71783,398 1716.3997,376.266722 1646.89366,352.781199 L1642.21348,351.195477 L1637.54389,349.605807 L1630.5573,347.216874 L1614.35535,341.657063 L1607.45956,339.295366 C1605.92895,338.772131 1604.39943,338.250048 1602.87079,337.729305 L1598.28732,336.171282 L1593.7079,334.622425 C1526.56682,311.978575 1460.33571,292.655763 1377.4457,292.655763 C1294.56273,292.655763 1228.32626,311.978575 1161.18925,334.622425 L1156.61013,336.171282 L1152.02698,337.729305 C1151.26271,337.989676 1150.49823,338.250383 1149.7335,338.511401 L1145.142,340.081058 L1124.3421,347.216874 L1119.68662,348.809916 L1115.02197,350.401051 L1110.3472,351.988917 C1040.14497,375.77559 966.204789,398 874.035447,398 C784.945384,398 712.883396,377.232524 644.764902,354.361611 L640.073168,352.781199 L635.392985,351.195477 L630.723398,349.605807 L626.063453,348.013549 L616.768678,344.826709 L607.534856,341.657063 L600.639067,339.295366 C599.108457,338.772131 597.578937,338.250048 596.050299,337.729305 L591.466828,336.171282 C522.748302,312.866866 455.399882,292.655763 370.633208,292.655763 C285.859325,292.655763 218.510185,312.866866 149.791586,336.171282 L145.208111,337.729305 C144.443792,337.989676 143.679252,338.250383 142.914465,338.511401 L138.322584,340.081058 L117.521607,347.216874 L112.866127,348.809916 C112.089476,349.075302 111.312443,349.340608 110.535009,349.605807 L105.865422,351.195477 L101.185238,352.781199 L96.4935039,354.361611 C70.8162846,362.982786 0,382.080516 0,381.71217 C0,256.930512 0,90.3951002 0,90.3951002 C0,90.3951002 57.4266508,72.2209225 85.7720899,62.6313116 L90.3537658,61.0772633 L94.9401373,59.5146359 L101.831206,57.1570778 L120.333674,50.8063491 L124.988767,49.2125782 L129.65306,47.6207162 C130.431262,47.3556405 131.209887,47.0907011 131.988955,46.8259263 L136.668835,45.2394796 C206.170617,21.7432164 279.495097,5.68434189e-14 370.633208,5.68434189e-14 C460.747294,5.68434189e-14 533.439606,21.2573498 602.245665,44.4481631 L606.931124,46.0321241 C607.711083,46.2965413 608.49058,46.5611515 609.269635,46.8259263 L613.938815,48.4163235 L618.598335,50.0093101 L623.249147,51.603525 L639.4272,57.1570778 L644.022936,58.7304578 C644.788311,58.9921453 645.553414,59.2535458 646.318269,59.5146359 L650.90464,61.0772633 L655.486316,62.6313116 C723.419135,85.6138201 790.210625,105.392411 874.035447,105.392411 C955.990501,105.392411 1021.65704,86.4927576 1088.01707,64.1756523 L1092.59493,62.6313116 C1093.35816,62.3730812 1094.12153,62.1144463 1094.88507,61.8554304 L1099.46855,60.2969515 C1100.23287,60.0365058 1100.99741,59.7757261 1101.7622,59.5146359 L1108.65262,57.1570778 L1127.15413,50.8063491 L1131.80918,49.2125782 L1136.47341,47.6207162 C1137.2516,47.3556405 1138.03021,47.0907011 1138.80927,46.8259263 L1143.48906,45.2394796 C1212.98945,21.7432164 1286.30759,5.68434189e-14 1377.4457,5.68434189e-14 C1468.59093,5.68434189e-14 1541.90985,21.7432164 1611.41597,45.2394796 L1616.09616,46.8259263 L1620.76575,48.4163235 L1625.4257,50.0093101 L1630.07695,51.603525 L1646.2539,57.1570778 L1650.84881,58.7304578 C1651.61405,58.9921453 1652.37903,59.2535458 1653.14375,59.5146359 L1657.72938,61.0772633 C1659.25708,61.596772 1660.78401,62.1148508 1662.31037,62.6313116 L1666.88794,64.1756523 C1733.24404,86.4927576 1798.91483,105.392411 1880.85594,105.392411 C1921.98188,105.392411 1974.08807,100.483265 2017,90.3951002 L2017,381.71217 Z" id="wave-light" fill="#1E1E1E"></path>
    </g>
</svg>