<?xml version="1.0" standalone="no"?>
<!DOCTYPE svg PUBLIC "-//W3C//DTD SVG 20010904//EN"
 "http://www.w3.org/TR/2001/REC-SVG-20010904/DTD/svg10.dtd">
<svg version="1.0" xmlns="http://www.w3.org/2000/svg"
 width="400.000000pt" height="400.000000pt" viewBox="0 0 400.000000 400.000000"
 preserveAspectRatio="xMidYMid meet">
<metadata>
Created by potrace 1.11, written by Peter Selinger 2001-2013
</metadata>
<g transform="translate(0.000000,400.000000) scale(0.100000,-0.100000)"
fill="#000000" stroke="none">
<path d="M1744 3748 c-3 -4 -5 -298 -4 -653 l0 -646 -22 12 c-22 12 -444 254
-638 367 -328 190 -474 272 -478 267 -3 -3 -62 -103 -132 -223 l-126 -217 90
-53 c50 -28 102 -59 116 -67 14 -9 88 -52 165 -96 77 -44 147 -84 155 -89 12
-8 315 -183 385 -222 11 -7 66 -39 123 -71 l103 -60 -38 -22 c-338 -195 -470
-271 -755 -436 -186 -107 -338 -198 -338 -202 0 -7 215 -385 245 -429 10 -15
21 -11 110 41 229 132 442 255 470 272 17 11 37 22 45 26 8 3 47 25 85 48 178
106 427 246 431 243 2 -3 4 -296 4 -651 l0 -647 23 -1 c25 -1 464 -1 487 0 13
1 15 79 12 651 -1 357 0 650 3 650 3 0 50 -25 103 -56 53 -31 117 -68 142 -82
36 -20 683 -394 845 -488 l41 -23 127 219 c70 120 127 223 127 227 0 4 -44 33
-97 63 -146 83 -158 90 -593 342 -223 129 -413 239 -424 245 -16 9 -2 19 95
75 63 35 175 100 249 143 74 43 203 117 285 165 83 47 227 131 321 185 l171
99 -65 110 c-35 61 -93 162 -129 224 -36 61 -66 112 -68 112 -3 0 -145 -81
-290 -165 -55 -32 -120 -69 -145 -83 -25 -14 -57 -33 -72 -43 -14 -11 -28 -19
-31 -19 -5 0 -453 -258 -541 -312 -26 -16 -50 -28 -52 -26 -2 2 -5 296 -6 653
l-3 650 -253 1 c-139 0 -255 -4 -258 -8z"/>
</g>
</svg>
