<?xml version="1.0" standalone="no"?>
<!DOCTYPE svg PUBLIC "-//W3C//DTD SVG 20010904//EN"
 "http://www.w3.org/TR/2001/REC-SVG-20010904/DTD/svg10.dtd">
<svg version="1.0" xmlns="http://www.w3.org/2000/svg"
 width="400.000000pt" height="400.000000pt" viewBox="0 0 400.000000 400.000000"
 preserveAspectRatio="xMidYMid meet">
<metadata>
Created by potrace 1.14, written by Peter Selinger 2001-2017
</metadata>
<g transform="translate(0.000000,400.000000) scale(0.100000,-0.100000)"
fill="#000000" stroke="none">
<path d="M943 3678 c-9 -11 -54 -86 -203 -339 l-28 -46 323 -544 c178 -299
339 -570 359 -601 l35 -58 191 0 c104 0 190 4 190 8 0 5 -154 267 -341 583
-188 316 -346 584 -351 595 -9 18 6 49 93 195 56 96 109 184 117 197 l14 22
-195 0 c-144 0 -197 -3 -204 -12z"/>
<path d="M2459 3643 c-30 -57 -158 -288 -293 -532 -95 -172 -105 -198 -87
-217 6 -5 25 -38 44 -74 55 -104 117 -214 126 -223 6 -6 116 183 242 418 14
28 83 151 151 275 69 124 146 264 172 313 l48 87 -189 0 -188 0 -26 -47z"/>
<path d="M1368 3473 c-48 -82 -90 -156 -93 -165 -5 -11 47 -110 158 -300 91
-156 173 -297 184 -315 117 -205 307 -524 312 -527 4 -3 49 67 100 155 83 143
92 163 83 185 -7 13 -113 198 -238 411 -124 214 -267 459 -317 545 -51 87 -94
158 -97 158 -3 0 -45 -66 -92 -147z"/>
<path d="M2957 3583 c-13 -21 -53 -92 -89 -158 -36 -66 -76 -140 -90 -165 -46
-82 -361 -654 -384 -696 l-22 -41 187 0 c163 0 189 2 198 16 12 20 19 32 237
427 l176 321 -36 64 c-20 35 -40 73 -45 84 -5 11 -19 36 -31 55 -11 19 -32 56
-45 83 -13 26 -26 47 -28 47 -3 0 -15 -17 -28 -37z"/>
<path d="M135 2253 c-50 -81 -91 -150 -93 -154 -2 -4 272 -8 607 -8 336 0 611
3 611 7 0 3 -11 22 -23 41 -13 20 -55 87 -93 148 l-69 113 -425 0 -425 0 -90
-147z"/>
<path d="M2253 2388 c-13 -17 -183 -313 -183 -319 0 -2 315 -4 701 -4 385 0
704 -2 708 -5 4 -3 56 -89 115 -193 59 -103 112 -189 116 -192 8 -5 192 301
193 321 0 9 -156 284 -209 367 l-24 37 -704 0 c-551 0 -706 -3 -713 -12z"/>
<path d="M1345 1813 c-50 -87 -103 -183 -119 -213 -15 -30 -36 -66 -46 -80 -9
-14 -41 -68 -69 -120 -29 -52 -61 -111 -73 -130 -57 -99 -258 -458 -258 -462
0 -3 85 -5 189 -6 l190 0 232 411 c128 227 277 490 330 585 l97 172 -192 0
-192 0 -89 -157z"/>
<path d="M51 1887 c26 -48 153 -253 167 -269 14 -17 48 -18 436 -18 l422 0 74
121 c41 66 83 132 92 147 9 15 17 30 17 34 1 4 -274 7 -609 7 l-610 0 11 -22z"/>
<path d="M2070 1905 c0 -4 80 -134 143 -232 l47 -73 670 0 670 0 -51 83 c-29
45 -73 114 -98 154 l-46 72 -667 0 c-368 0 -668 -2 -668 -4z"/>
<path d="M1877 1748 c-95 -163 -236 -405 -258 -445 -23 -40 -201 -347 -304
-523 -33 -58 -64 -112 -67 -121 -6 -15 -33 -17 -234 -18 -124 0 -229 -2 -231
-5 -4 -3 28 -61 166 -298 l16 -28 231 0 231 0 233 403 c129 221 285 490 347
597 62 108 113 201 113 208 0 7 -11 29 -24 50 -13 20 -54 90 -91 155 -37 64
-69 117 -71 117 -2 0 -28 -42 -57 -92z"/>
<path d="M2399 1426 c33 -58 213 -383 258 -466 159 -292 316 -571 324 -575 5
-4 12 1 16 10 3 9 41 79 83 155 42 76 80 145 83 154 4 9 -18 58 -52 118 -32
57 -71 128 -88 158 -16 30 -72 132 -123 225 -52 94 -106 193 -121 220 l-28 50
-190 1 -191 1 29 -51z"/>
<path d="M2233 1378 c-11 -18 -37 -64 -58 -103 -21 -38 -54 -99 -74 -135 -30
-53 -35 -69 -26 -85 11 -21 190 -347 237 -430 15 -27 60 -110 100 -182 l73
-133 188 0 c103 0 187 4 187 8 0 4 -4 12 -9 17 -4 6 -24 39 -43 75 -19 36 -44
81 -55 100 -11 19 -35 62 -53 95 -18 33 -44 80 -58 105 -13 25 -101 184 -195
355 -94 171 -176 318 -182 328 -12 17 -14 16 -32 -15z"/>
</g>
</svg>
