<?xml version="1.0" encoding="UTF-8"?>
<svg width="111px" height="190px" viewBox="0 0 111 190" version="1.1" xmlns="http://www.w3.org/2000/svg" xmlns:xlink="http://www.w3.org/1999/xlink">
    <title>confetti-right</title>
    <g id="Desktop" stroke="none" stroke-width="1" fill="none" fill-rule="evenodd">
        <g id="Edgeware-V2---Homepage-(Desktop)" transform="translate(-1057.000000, -8252.000000)">
            <g id="confetti-right" transform="translate(1057.140000, 8252.000000)">
                <path d="M18.6871683,68.6477528 C17.5490052,60.0224465 20.5408638,54.6184969 27.6627439,52.4359039 C38.3455641,49.1620144 43.4519246,41.2514915 43.4519246,33.6477528" id="Path-2" stroke="#BBB833" stroke-width="4" transform="translate(30.951925, 51.147753) rotate(42.000000) translate(-30.951925, -51.147753) "></path>
                <polygon id="Triangle-Copy" fill="#D42B69" transform="translate(99.097345, 114.787209) rotate(-11.000000) translate(-99.097345, -114.787209) " points="99.0973446 106.787209 108.597345 122.787209 89.5973446 122.787209"></polygon>
                <path d="M79.86,1 L79.859,5.5 L84.36,5.5 L84.36,8.5 L79.859,8.5 L79.86,13 L76.86,13 L76.859,8.5 L72.36,8.5 L72.36,5.5 L76.859,5.5 L76.86,1 L79.86,1 Z" id="Combined-Shape-Copy-2" fill="#32C5FF" transform="translate(78.360000, 7.000000) rotate(-10.000000) translate(-78.360000, -7.000000) "></path>
                <polygon id="/" fill="#6DD400" fill-rule="nonzero" points="4.81401617 189.02 19 144.02 14.1859838 144.02 0 189.02"></polygon>
            </g>
        </g>
    </g>
</svg>