<?xml version="1.0" encoding="UTF-8"?>
<svg width="114px" height="114px" viewBox="0 0 114 114" version="1.1" xmlns="http://www.w3.org/2000/svg" xmlns:xlink="http://www.w3.org/1999/xlink">
    <title>Group 31</title>
    <defs>
        <polygon id="path-1" points="0 0.639810851 28.5562271 0.639810851 28.5562271 31.0384049 0 31.0384049"></polygon>
    </defs>
    <g id="Desktop" stroke="none" stroke-width="1" fill="none" fill-rule="evenodd">
        <g id="Edgeware-V2---Homepage-(Desktop)" transform="translate(-1083.000000, -6872.000000)">
            <g id="Group-9" transform="translate(-184.000000, 6556.000000)">
                <g id="Group-12" transform="translate(1123.000000, 276.000000)">
                    <g id="Group-31" transform="translate(144.000000, 40.000000)">
                        <circle id="Oval" stroke="#F1F1F1" stroke-width="4" fill="#151515" cx="57" cy="57" r="55"></circle>
                        <g id="Group-28" transform="translate(19.000000, 39.944649)">
                            <g id="Group-3" transform="translate(0.000000, 0.817763)">
                                <mask id="mask-2" fill="white">
                                    <use xlink:href="#path-1"></use>
                                </mask>
                                <g id="Clip-2"></g>
                                <path d="M28.5562271,21.5111987 C25.2969729,19.625287 22.0289729,17.735003 18.7536847,15.8388893 C22.0216847,13.9486053 25.2867695,12.0583213 28.5562271,10.1680373 C27.7880576,8.83886303 27.0621593,7.58693246 26.3100237,6.28690677 C23.0230746,8.18885018 19.7638203,10.0747619 16.5147695,11.9548439 C16.5103966,8.18156304 16.5074814,4.4141119 16.5031085,0.639373623 C14.9682271,0.640831051 13.5208034,0.642288479 12.0194475,0.645203335 C12.0238203,4.43888818 12.0267356,8.19905218 12.0311085,11.9490142 C8.78643051,10.0703896 5.53009153,8.18593533 2.24605763,6.28690677 C1.49392203,7.58547503 0.769481356,8.83886303 -0.000145762712,10.1665799 C3.26931186,12.0583213 6.53439661,13.9486053 9.80239661,15.8388893 C6.52710847,17.735003 3.2605661,19.625287 -0.000145762712,21.5111987 C0.779684746,22.8578621 1.51578644,24.1287392 2.24605763,25.3923292 C5.5286339,23.4918432 8.78351525,21.6088464 12.0383966,19.7243921 C12.0427695,23.5049601 12.0471424,27.2767835 12.0515153,31.0384049 C13.6068034,31.0369475 15.0760915,31.0354901 16.5351763,31.0340326 C16.5308034,27.2490924 16.5278881,23.4845561 16.5235153,19.7287644 C19.7783966,21.6117612 23.0303627,23.4933006 26.3100237,25.3923292 C27.0417525,24.1287392 27.7763966,22.8578621 28.5562271,21.5111987" id="Fill-1" fill="#FFFFFF" mask="url(#mask-2)"></path>
                            </g>
                            <path d="M57.8367492,2.29705213 C59.3381051,2.2955947 60.7855288,2.29413727 62.3204102,2.29267984 C62.3247831,7.58314315 62.3306136,12.8546599 62.3349864,18.199048 C60.8744441,18.2005055 59.4066136,18.2019629 57.8498678,18.2034203 C57.8454949,12.9450204 57.841122,7.67204625 57.8367492,2.29705213" id="Fill-4" fill="#FFFFFF"></path>
                            <path d="M76.5789186,26.9708694 C75.8296983,28.2723525 75.1067153,29.5257405 74.3400034,30.8563722 C69.7557661,28.2140554 65.1875627,25.5819406 60.5566814,22.9148475 C61.2854949,21.6498001 62.0186814,20.3789229 62.794139,19.0293447 C67.3506814,21.6541724 71.9218,24.2877446 76.5789186,26.9708694" id="Fill-6" fill="#FFFFFF"></path>
                            <path d="M59.6923085,22.9544895 C58.9430881,21.6530064 58.2201051,20.398161 57.4548508,19.0689867 C52.8545797,21.7171333 48.2703424,24.3565352 43.6219695,27.0323728 C44.3493254,28.2974203 45.0825119,29.5697548 45.8594271,30.9178756 C50.4305458,28.2857608 55.0176983,25.6449015 59.6923085,22.9544895" id="Fill-8" fill="#FFFFFF"></path>
                        </g>
                    </g>
                </g>
            </g>
        </g>
    </g>
</svg>