<?xml version="1.0" encoding="UTF-8"?>
<svg width="161px" height="139px" viewBox="0 0 161 139" version="1.1" xmlns="http://www.w3.org/2000/svg" xmlns:xlink="http://www.w3.org/1999/xlink">
    <title>Edgeicon1</title>
    <g id="Desktop" stroke="none" stroke-width="1" fill="none" fill-rule="evenodd">
        <g id="Edgeware-V2---Collective-(Desktop)" transform="translate(-640.000000, -2344.000000)" fill="#FFFFFF">
            <g id="Edgewear-Logo" transform="translate(640.000000, 2344.000000)">
                <g id="Edgeicon1" transform="translate(0.690730, -0.000000)">
                    <path d="M69.0333014,0.225740135 C76.3110373,0.218686211 83.32734,0.211632287 90.7675884,0.204578362 C90.7887857,25.8103232 90.8170488,51.3243671 90.8382461,77.1911071 C83.7583515,77.198161 76.6431282,77.205215 69.0968932,77.2122689 C69.075696,51.7617104 69.0544987,26.2406126 69.0333014,0.225740135" id="Fill-4"></path>
                    <path d="M159.884882,119.646561 C156.25308,125.945715 152.748462,132.01209 149.03187,138.452323 C126.810046,125.663558 104.665944,112.924171 82.2180152,100.01549 C85.7508967,93.8926834 89.3049755,87.7416615 93.0639614,81.2097277 C115.151537,93.9138452 137.30977,106.660286 159.884882,119.646561" id="Fill-6"></path>
                    <path d="M78.0280177,100.207356 C74.3962155,93.9082021 70.8915971,87.8347733 67.1820715,81.4015945 C44.8825234,94.2185747 22.6606986,106.993231 0.127980345,119.944236 C3.6537961,126.067043 7.2078749,132.225118 10.9739266,138.749998 C33.1321594,126.010611 55.3681157,113.2289 78.0280177,100.207356" id="Fill-8"></path>
                </g>
            </g>
        </g>
    </g>
</svg>