<?xml version="1.0" encoding="UTF-8"?>
<svg width="279px" height="39px" viewBox="0 0 279 39" version="1.1" xmlns="http://www.w3.org/2000/svg" xmlns:xlink="http://www.w3.org/1999/xlink">
    <title>Edgeware Logo</title>
    <g id="Desktop" stroke="none" stroke-width="1" fill="none" fill-rule="evenodd">
        <g id="Edgeware-V2---Homepage-(Desktop)-Menu-2" transform="translate(-96.000000, -153.000000)" fill="#FFFFFF">
            <g id="Edgeware-Logo" transform="translate(96.000000, 152.000000)">
                <path d="M16.7731852,1.48118519 L16.785037,12.9834074 C20.0872593,11.0722963 23.3998519,9.15525926 26.7405926,7.22192593 C27.505037,8.54340741 28.2428148,9.816 29.0235556,11.1671111 C25.7005926,13.0885926 22.3820741,15.0100741 19.0605926,16.9315556 C22.3894815,18.858963 25.710963,20.7804444 29.0235556,22.6974815 C28.230963,24.0663704 27.4842963,25.3582222 26.7405926,26.6426667 C23.4072593,24.7122963 20.1020741,22.7997037 16.7939259,20.8856296 C16.7983704,24.7034074 16.8013333,28.5300741 16.8057778,32.3774815 C15.3228148,32.378963 13.8294815,32.3804444 12.2487407,32.3819259 C12.2442963,28.5582222 12.2398519,24.7241481 12.2354074,20.8811852 C8.92725926,22.7967407 5.61911111,24.7108148 2.28281481,26.6426667 C1.54059259,25.3582222 0.792444444,24.0663704 -0.000148148148,22.6974815 C3.31392593,20.7804444 6.63392593,18.858963 9.96281481,16.9315556 C6.64133333,15.0100741 3.32281481,13.0885926 -0.000148148148,11.1656296 C0.782074074,9.816 1.51837037,8.54192593 2.28281481,7.22192593 C5.62059259,9.1522963 8.93022222,11.0678519 12.228,12.9774815 C12.2235556,9.16562963 12.2205926,5.34340741 12.2161481,1.48711111 C13.7420741,1.48414815 15.2131852,1.48266667 16.7731852,1.48118519 L16.7731852,1.48118519 Z M58.3951111,19.3837037 C59.1728889,20.7348148 59.9077037,22.0103704 60.6691852,23.3333333 C55.9180741,26.0681481 51.2558519,28.7525926 46.6099259,31.4281481 C45.8202963,30.0577778 45.0751111,28.7644444 44.3358519,27.4785185 C49.0602963,24.7585185 53.7195556,22.0755556 58.3951111,19.3837037 Z M63.8217778,19.3434074 C68.4528889,22.0115556 73.0988148,24.6885926 77.8321481,27.416 C77.0706667,28.738963 76.3358519,30.013037 75.5565926,31.3656296 C70.8973333,28.6797037 66.2543704,26.0041481 61.5477037,23.293037 C62.2884444,22.0071111 63.0336296,20.7152593 63.8217778,19.3434074 Z M63.3402963,2.33051852 C63.3447407,7.7082963 63.3506667,13.0668148 63.3551111,18.4994074 C61.8706667,18.5008889 60.3788148,18.5023704 58.7965926,18.5038519 C58.7921481,13.1586667 58.7877037,7.79866667 58.7832593,2.33496296 C60.3091852,2.33348148 61.7802963,2.332 63.3402963,2.33051852 Z" id="Combined-Shape"></path>
                <polygon id="Fill-10" points="110.078222 31.2115556 110.078222 4.41896296 127.235259 4.41896296 127.235259 8.25748148 114.416 8.25748148 114.416 15.3597037 126.04563 15.3597037 126.04563 19.1982222 114.416 19.1982222 114.416 27.373037 127.235259 27.373037 127.235259 31.2115556"></polygon>
                <path d="M144.704889,27.9099259 L144.513778,27.9099259 C143.669333,30.2521481 141.558222,31.6714074 138.909333,31.6714074 C133.879704,31.6714074 130.964148,27.7958519 130.964148,21.2314074 C130.964148,14.6684444 133.879704,10.7914074 138.909333,10.7914074 C141.558222,10.7914074 143.669333,12.1721481 144.513778,14.5528889 L144.704889,14.5528889 L144.704889,2.8077037 L148.888593,2.8077037 L148.888593,31.2121481 L144.704889,31.2121481 L144.704889,27.9099259 Z M144.704889,24.6477037 L144.704889,17.8165926 C144.704889,15.781037 142.709333,14.3988148 140.174519,14.3988148 C137.297481,14.3988148 135.377481,16.4328889 135.377481,19.504 L135.377481,22.9588148 C135.377481,26.0299259 137.297481,28.064 140.174519,28.064 C142.709333,28.064 144.704889,26.6817778 144.704889,24.6477037 L144.704889,24.6477037 Z" id="Combined-Shape"></path>
                <path d="M165.666222,17.9694815 L165.666222,17.2005926 C165.666222,14.9368889 164.245481,13.8228148 161.789185,13.8228148 C159.332889,13.8228148 157.912148,14.9368889 157.912148,17.2005926 L157.912148,17.9694815 C157.912148,20.2331852 159.332889,21.3457778 161.789185,21.3457778 C164.245481,21.3457778 165.666222,20.2331852 165.666222,17.9694815 M164.399556,31.288 L157.644,31.288 C156.722519,31.8257778 156.260296,32.6317037 156.260296,33.5917037 C156.260296,35.2035556 157.451407,36.3176296 160.561037,36.3176296 L163.169926,36.3176296 C166.43363,36.3176296 168.044,35.3961481 168.044,33.5531852 C168.044,32.170963 167.124,31.288 164.399556,31.288 M161.826222,39.3502222 C155.301778,39.3502222 152.768444,37.5828148 152.768444,34.5502222 C152.768444,32.3635556 154.07363,31.1724444 156.184741,30.7131852 L156.184741,30.2894815 C154.725481,29.8302222 153.919556,28.7161481 153.919556,27.2198519 C153.919556,25.1472593 155.531407,24.1487407 157.451407,23.688 L157.451407,23.5354074 C155.109185,22.4213333 153.804,20.3102222 153.804,17.6242963 C153.804,13.5561481 156.684,10.7917037 161.749185,10.7917037 C163.09437,10.7917037 164.322519,10.9828148 165.358074,11.405037 L165.358074,10.8687407 C165.358074,9.10281481 166.202519,8.02725926 167.968444,8.02725926 L171.039556,8.02725926 L171.039556,11.405037 L166.971407,11.405037 L166.971407,12.210963 C168.775852,13.4020741 169.771407,15.3205926 169.771407,17.6242963 C169.771407,21.6539259 166.855852,24.3783704 161.789185,24.3783704 C160.829185,24.3783704 159.907704,24.2642963 159.178815,24.0717037 C158.180296,24.4183704 157.258815,25.0702222 157.258815,26.0687407 C157.258815,27.1428148 158.295852,27.5665185 160.061778,27.5665185 L164.97437,27.5665185 C169.888444,27.5665185 171.961037,29.6376296 171.961037,33.0924444 C171.961037,37.2376296 169.005481,39.3502222 161.826222,39.3502222" id="Fill-14"></path>
                <path d="M173.924741,21.2314074 C173.924741,14.861037 177.418074,10.7914074 183.099556,10.7914074 C188.972148,10.7914074 191.966222,15.2047407 191.966222,20.7321481 L191.966222,22.306963 L178.262519,22.306963 L178.262519,22.9588148 C178.262519,26.0299259 180.144,28.2180741 183.521778,28.2180741 C185.978074,28.2180741 187.626963,27.066963 188.779556,25.224 L191.235852,27.6417778 C189.739556,30.0595556 186.821037,31.6714074 183.099556,31.6714074 C177.418074,31.6714074 173.924741,27.6032593 173.924741,21.2314074 M178.262519,19.2743704 L178.262519,19.5425185 L187.551407,19.5425185 L187.551407,19.1588148 C187.551407,16.0891852 185.862519,14.0551111 183.099556,14.0551111 C180.219556,14.0551111 178.262519,16.2032593 178.262519,19.2743704" id="Combined-Shape"></path>
                <polygon id="Fill-19" points="194.427111 11.2521481 198.495259 11.2521481 200.529333 19.6195556 202.333778 27.181037 202.449333 27.181037 204.521926 19.6195556 206.939704 11.2521481 210.701185 11.2521481 213.158963 19.6195556 215.268593 27.181037 215.384148 27.181037 217.150074 19.6195556 219.222667 11.2521481 223.099704 11.2521481 217.72637 31.2121481 213.004889 31.2121481 210.394519 22.1143704 208.781185 16.5114074 208.70563 16.5114074 207.132296 22.1143704 204.483407 31.2121481 199.877481 31.2121481"></polygon>
                <path d="M241.300741,31.2112593 C239.112593,31.2112593 237.961481,29.8305185 237.691852,27.872 L237.500741,27.872 C236.733333,30.3668148 234.583704,31.672 231.666667,31.672 C227.56,31.672 225.216296,29.3312593 225.216296,25.7223704 C225.216296,21.7682963 228.173333,19.7342222 233.737778,19.7342222 L237.346667,19.7342222 L237.346667,18.0468148 C237.346667,15.6275556 236.041481,14.2082963 233.24,14.2082963 C230.897778,14.2082963 229.477037,15.3594074 228.48,16.9327407 L225.985185,14.6675556 C227.29037,12.4408889 229.631111,10.792 233.508148,10.792 C238.651852,10.792 241.53037,13.3238519 241.53037,17.7771852 L241.53037,27.7964444 L243.641481,27.7964444 L243.641481,31.2112593 L241.300741,31.2112593 Z M237.346667,25.3001481 L237.346667,22.4216296 L233.814815,22.4216296 C230.897778,22.4216296 229.477037,23.3816296 229.477037,25.109037 L229.477037,25.7994074 C229.477037,27.5653333 230.782222,28.4853333 232.856296,28.4853333 C235.428148,28.4853333 237.346667,27.2571852 237.346667,25.3001481 L237.346667,25.3001481 Z" id="Combined-Shape"></path>
                <path d="M247.44,31.2115556 L247.44,11.2515556 L251.623704,11.2515556 L251.623704,15.0900741 L251.816296,15.0900741 C252.392593,13.056 254.12,11.2515556 257.305185,11.2515556 L258.417778,11.2515556 L258.417778,15.2826667 L256.768889,15.2826667 C253.466667,15.2826667 251.623704,16.3952593 251.623704,18.4678519 L251.623704,31.2115556 L247.44,31.2115556 Z" id="Fill-23"></path>
                <path d="M264.947259,19.2743704 L264.947259,19.5425185 L274.236148,19.5425185 L274.236148,19.1588148 C274.236148,16.0891852 272.547259,14.0551111 269.784296,14.0551111 C266.904296,14.0551111 264.947259,16.2032593 264.947259,19.2743704 M260.609481,21.2314074 C260.609481,14.861037 264.102815,10.7914074 269.784296,10.7914074 C275.656889,10.7914074 278.650963,15.2047407 278.650963,20.7321481 L278.650963,22.306963 L264.947259,22.306963 L264.947259,22.9588148 C264.947259,26.0299259 266.828741,28.2180741 270.206519,28.2180741 C272.662815,28.2180741 274.313185,27.066963 275.464296,25.224 L277.920593,27.6417778 C276.424296,30.0595556 273.505778,31.6714074 269.784296,31.6714074 C264.102815,31.6714074 260.609481,27.6032593 260.609481,21.2314074" id="Fill-25"></path>
            </g>
        </g>
    </g>
</svg>
