<?xml version="1.0" encoding="UTF-8"?>
<svg width="51px" height="21px" viewBox="0 0 51 21" version="1.1" xmlns="http://www.w3.org/2000/svg" xmlns:xlink="http://www.w3.org/1999/xlink">
    <title>Edgeware Logo</title>
    <g id="Desktop" stroke="none" stroke-width="1" fill="none" fill-rule="evenodd">
        <g id="Edgeware-V2---Homepage-(Mobile)" transform="translate(-18.000000, -34.000000)" fill="#FFFFFF">
            <g id="Combined-Shape" transform="translate(16.000000, 32.000000)">
                <path d="M12.9907103,1.9998 L12.9984762,9.53668843 C15.1622738,8.28442335 17.3328666,7.02827528 19.5219036,5.76144898 C20.0228097,6.6273563 20.5062422,7.46122894 21.0178265,8.34655123 C18.8404384,9.60561155 16.6659626,10.8646719 14.4895454,12.1237322 C16.6708164,13.3866755 18.8472337,14.6457358 21.0178265,15.9018839 C20.4984762,16.7988551 20.0092192,17.6453475 19.5219036,18.4869861 C17.3377203,17.2221013 15.1719813,15.9688655 13.0043007,14.7146589 C13.007213,17.2162768 13.0091545,19.7237192 13.0120667,22.2447521 C12.0403478,22.2457229 11.0618337,22.2466936 10.0260455,22.2476644 C10.0231332,19.7421634 10.020221,17.2298673 10.0173087,14.7117467 C7.84962819,15.966924 5.68194763,17.2211306 3.49582286,18.4869861 C3.00947805,17.6453475 2.51925025,16.7988551 1.9999,15.9018839 C4.17146355,14.6457358 6.3469101,13.3866755 8.52818113,12.1237322 C6.35176384,10.8646719 4.17728804,9.60561155 1.9999,8.34558048 C2.51245501,7.46122894 2.99491683,6.62638556 3.49582286,5.76144898 C5.68291838,7.02633378 7.85156969,8.28151111 10.012455,9.53280544 C10.0095428,7.03507052 10.0076013,4.53054036 10.004689,2.00368299 C11.0045596,2.0017415 11.9685125,2.00077075 12.9907103,1.9998 L12.9907103,1.9998 Z M40.2636846,13.7305145 C40.7733274,14.6158368 41.2548185,15.4516509 41.753783,16.318529 C38.6405938,18.11053 35.5856494,19.8695256 32.5413833,21.6226967 C32.0239746,20.7247547 31.5356882,19.8772916 31.0512849,19.0346822 C34.1470007,17.2523887 37.2000035,15.4943638 40.2636846,13.7305145 Z M43.819535,13.7041101 C46.8540936,15.4524275 49.8983597,17.2065694 52.9999,18.9937166 C52.5009355,19.8605947 52.0194444,20.6954381 51.5088309,21.5817311 C48.455828,19.8217648 45.4135034,18.0685937 42.3294366,16.2921246 C42.8148107,15.4495152 43.303097,14.6030229 43.819535,13.7041101 Z M43.5040419,2.5563299 C43.5069541,6.08014559 43.5108371,9.59134155 43.5137493,13.1510749 C42.5410597,13.1520457 41.5635164,13.1530164 40.5267574,13.1539872 C40.5238451,9.65152793 40.5209329,6.13936122 40.5180206,2.55924214 C41.5178912,2.5582714 42.4818441,2.55730065 43.5040419,2.5563299 Z"></path>
            </g>
        </g>
    </g>
</svg>
