<svg width="416" height="74" viewBox="0 0 416 74" fill="none" xmlns="http://www.w3.org/2000/svg">
<path d="M137.086 17.3221C131.29 18.3753 126.63 20.842 122.859 24.8607C120.917 26.9393 120.862 26.9948 119.337 29.6277C116.535 34.5333 115.537 40.5476 116.757 45.3423C117.783 49.3611 120.224 52.2989 124.051 54.1835C126.825 55.5139 128.849 56.0127 132.538 56.179C145.239 56.8165 155.861 49.4165 158.967 37.7206C159.633 35.1708 159.772 30.5146 159.217 28.2697C158.385 24.8607 156.111 21.6457 153.227 19.8165C149.316 17.2944 142.771 16.2966 137.086 17.3221ZM141.634 28.1311C143.021 28.7131 143.631 29.2951 144.241 30.6255C145.101 32.4824 144.823 35.836 143.575 38.5244C142.716 40.3536 139.942 42.9865 138.251 43.5963C136.503 44.206 135.505 44.1783 134.063 43.5408C129.542 41.4899 130.624 32.8981 135.866 29.2674C138.029 27.7708 139.887 27.4105 141.634 28.1311Z" fill="white"/>
<path d="M346.944 17.1835C345.058 17.4884 341.092 18.7079 339.595 19.4562C333.909 22.3386 329.583 27.4659 327.503 33.8127C326.366 37.2495 326.061 42.5708 326.837 45.7026C328.03 50.5528 331.802 54.1835 337.099 55.5693C339.428 56.179 344.698 56.4008 347.443 56.0127C354.46 54.9873 360.09 51.1348 363.113 45.2592C363.834 43.8734 364.416 42.6539 364.416 42.5708C364.416 42.4877 361.615 42.4045 358.204 42.4045H352.019L350.993 44.0397C348.109 48.7236 342.091 48.8899 340.843 44.3169C340.399 42.7648 340.649 38.2195 341.259 35.7528C341.98 32.9813 343.921 29.1566 345.391 27.6877C346.972 26.0802 348.164 25.4981 349.911 25.4981C352.186 25.4981 353.212 26.6899 353.545 29.7386L353.739 31.4569L360.228 31.5401L366.718 31.5955L366.551 29.5446C366.052 23.7521 362.419 19.3453 356.651 17.5993C354.876 17.0727 349.218 16.8232 346.944 17.1835Z" fill="white"/>
<path d="M24.0725 19.2068C23.0464 21.0083 12.2027 40.1041 6.62825 49.9708L3.38345 55.7079H10.4H17.4443L19.4133 51.9663L21.4101 48.2247H27.3173H33.1968L33.3909 50.2202C33.5019 51.3289 33.6683 53.0195 33.7515 53.9618L33.9179 55.7079H41.0731C45.0389 55.7079 48.256 55.6247 48.256 55.5416C48.256 55.4584 47.3963 50.1094 46.3424 43.7071C45.2608 37.2772 43.8741 28.7408 43.2085 24.7221L42.016 17.4607H33.5573H25.0709L24.0725 19.2068ZM31.6992 34.1453C31.9765 36.9446 32.1707 39.439 32.1707 39.6884C32.1707 40.1319 31.8379 40.1873 28.8427 40.1873C27.0123 40.1873 25.5147 40.1319 25.5147 40.0487C25.5147 39.7716 30.9227 29.1011 31.0613 29.1011C31.1445 29.1011 31.4219 31.3738 31.6992 34.1453Z" fill="white"/>
<path d="M53.664 18.0704C53.5808 18.4307 52.5824 23.2532 51.473 28.824C50.336 34.3948 49.1712 39.9378 48.9216 41.1573C48.6442 42.3768 48.4224 44.5663 48.4224 46.0075C48.3946 48.4742 48.4501 48.779 49.3098 50.5251C50.8074 53.5461 53.248 54.9873 58.3232 55.8742C61.457 56.4285 68.7509 56.2622 71.552 55.5693C77.8474 54.045 82.0629 50.7468 83.9765 45.8689C84.2816 45.0929 85.7237 38.6075 87.1936 31.4569C88.6634 24.2787 89.9392 18.209 90.0224 17.9319C90.161 17.4884 89.7173 17.4607 83.6437 17.4607H77.1541L76.9877 18.209C72.4117 40.8247 71.7738 43.6517 70.9696 44.5109C70.0544 45.5086 68.7232 45.8135 65.9776 45.6749C63.1488 45.5363 62.4 45.1206 62.4 43.6517C62.4 42.7925 63.3429 37.9701 66.144 24.5835C66.8373 21.2577 67.392 18.2921 67.392 17.9873C67.392 17.4884 67.1146 17.4607 60.5973 17.4607H53.8026L53.664 18.0704Z" fill="white"/>
<path d="M91.3813 17.7933C91.2149 18.209 89.5787 26.3019 89.5787 26.6622C89.5787 26.7731 91.6309 26.8839 94.0992 26.8839H98.6475L96.7616 36.0854C95.7355 41.1573 94.3765 47.6427 93.7941 50.5251L92.7125 55.7079L99.6736 55.6525L106.635 55.5693L106.94 54.045C107.3 52.2989 110.933 34.6165 111.849 30.0712L112.486 27.0225L116.535 26.9393C119.309 26.8839 120.668 26.7731 120.862 26.5236C121.001 26.3573 121.444 24.445 121.86 22.3109C122.276 20.1768 122.692 18.209 122.775 17.9319C122.886 17.4884 122.027 17.4607 107.189 17.4607C94.9035 17.4607 91.4645 17.5438 91.3813 17.7933Z" fill="white"/>
<path d="M164.597 18.0704C164.403 18.8742 161.879 31.1521 160.992 35.6143C160.631 37.4435 159.578 42.6262 158.635 47.1161C157.719 51.606 156.971 55.3753 156.971 55.4862C156.971 55.597 160.049 55.7079 163.849 55.7079H170.699L172.03 49.1116C172.779 45.5086 173.444 42.3214 173.5 42.0442C173.638 41.6285 174.11 41.5731 178.131 41.5731H182.624L185.175 37.3326L187.727 33.1199L181.626 32.9813C178.298 32.8981 175.524 32.7596 175.524 32.621C175.469 32.2053 176.467 27.2996 176.717 26.8008C176.939 26.3573 177.604 26.3296 184.371 26.3296H191.776L194.217 22.0892C195.548 19.7611 196.629 17.7656 196.629 17.6547C196.629 17.5438 189.446 17.4607 180.683 17.4607H164.736L164.597 18.0704Z" fill="white"/>
<path d="M199.846 18.0704C199.181 19.1513 178.603 55.4584 178.603 55.5693C178.603 55.6525 181.709 55.7079 185.536 55.7079H192.442L194.327 52.0217L196.213 48.3633H202.176H208.139L208.471 51.6892C208.638 53.5184 208.804 55.1813 208.804 55.3476C208.832 55.6247 210.468 55.7079 216.043 55.7079H223.253L223.115 55.0704C223.059 54.7378 222.671 52.4652 222.283 50.0262C221.894 47.5873 220.702 40.3536 219.648 33.9513C218.594 27.5491 217.596 21.424 217.429 20.3708C217.263 19.2899 217.069 18.209 216.986 17.9319C216.847 17.4884 216.209 17.4607 208.555 17.4607H200.235L199.846 18.0704ZM206.641 34.3948C206.946 37.194 207.113 39.633 207.029 39.827C206.863 40.2704 200.512 40.3536 200.512 39.9101C200.512 39.439 205.809 29.018 205.948 29.1843C206.031 29.2674 206.336 31.6232 206.641 34.3948Z" fill="white"/>
<path d="M232.294 17.9319C232.211 18.209 231.462 21.7843 230.63 25.9139C225.694 50.0817 224.64 55.3199 224.64 55.5139C224.64 55.6525 230.658 55.7079 238.035 55.6525C250.82 55.5416 251.514 55.5139 253.621 54.9319C258.669 53.5461 261.914 51.1903 263.55 47.7536C264.299 46.1184 264.437 45.5641 264.437 43.6517C264.437 41.9056 264.299 41.2128 263.827 40.3259C262.801 38.4135 261.082 37.0832 258.502 36.1963L257.504 35.836L259.029 35.3371C262.274 34.2839 264.715 32.2884 265.907 29.7109C266.906 27.6045 266.961 24.5558 266.046 22.8375C265.269 21.3963 263.494 19.7888 261.914 19.1236C258.586 17.6824 258.28 17.6547 244.969 17.5438C233.043 17.433 232.461 17.433 232.294 17.9319ZM251.597 26.5236C253.067 27.1888 253.427 27.9371 252.928 29.2397C252.124 31.3461 250.377 32.0667 245.523 32.3438C241.89 32.5379 242.14 32.8704 242.944 28.9071C243.249 27.4105 243.499 26.0802 243.499 25.9416C243.499 25.8307 245.024 25.7753 246.91 25.8307C249.572 25.9139 250.571 26.0802 251.597 26.5236ZM250.349 41.4622C250.959 41.9334 251.153 42.2937 251.208 43.2914C251.292 44.4 251.181 44.6772 250.432 45.4255C249.128 46.7004 247.354 47.1161 243.027 47.1161C240.06 47.1161 239.339 47.033 239.339 46.7281C239.339 46.2292 240.42 41.0188 240.559 40.797C240.614 40.6862 242.667 40.6585 245.107 40.7416C249.073 40.8525 249.655 40.9356 250.349 41.4622Z" fill="white"/>
<path d="M272.064 17.6824C272.064 17.821 271.121 22.5603 269.984 28.1588C266.573 44.7603 265.131 51.8832 264.826 53.3521C264.687 54.1004 264.493 54.9596 264.41 55.209C264.271 55.6802 264.715 55.7079 271.177 55.7079H278.11L278.387 54.5161C278.526 53.8787 279.191 50.636 279.857 47.3101L281.05 41.2959H283.296H285.57L287.206 48.4187L288.843 55.5693L296.58 55.6525C303.846 55.7079 304.29 55.6802 304.179 55.2367C304.096 54.9596 303.014 51.2734 301.739 47.033C300.491 42.7925 299.492 39.3004 299.548 39.2727C299.603 39.245 300.657 38.7184 301.877 38.1363C310.752 33.7573 312.194 23.1978 304.429 19.4285C300.796 17.6547 300.713 17.627 285.737 17.5161C277.333 17.4607 272.064 17.5161 272.064 17.6824ZM292.919 26.3573C294.556 26.8008 295.471 27.7431 295.443 28.8794C295.388 30.4038 294.694 31.4569 293.225 32.1775C292.032 32.7873 291.45 32.8427 287.401 32.9259C284.378 33.009 282.88 32.9259 282.88 32.7319C282.88 32.427 283.962 26.9948 284.156 26.385C284.267 25.9693 291.394 25.9139 292.919 26.3573Z" fill="white"/>
<path d="M313.581 20.9805C313.193 22.9483 311.806 29.7109 310.502 36.03C309.227 42.3491 307.84 49.1393 307.424 51.1349C307.036 53.1026 306.62 54.9596 306.564 55.209C306.426 55.6802 306.869 55.7079 313.359 55.7079C317.186 55.7079 320.32 55.6525 320.32 55.5693C320.32 55.4862 320.625 53.9618 321.013 52.188C321.374 50.3865 323.066 42.1274 324.757 33.8128C326.449 25.4981 327.919 18.4307 328.002 18.0704L328.141 17.4607H321.235H314.302L313.581 20.9805Z" fill="white"/>
<path d="M376.23 24.7221C373.956 28.7408 370.24 35.254 367.994 39.2172C365.747 43.1805 362.724 48.5019 361.282 51.0517L358.647 55.7079H365.914H373.207L375.121 51.9663L377.035 48.2247H382.914C388.821 48.2247 388.821 48.2247 388.932 48.8345C388.988 49.1948 389.182 50.83 389.32 52.4652C389.487 54.1281 389.653 55.5416 389.736 55.597C389.792 55.6525 393.009 55.6802 396.892 55.6525L403.964 55.5693L403.465 52.5206C399.859 30.3483 398.167 20.1214 397.946 18.9019L397.668 17.4607H389.015H380.363L376.23 24.7221ZM387.435 34.5056C387.712 37.388 387.906 39.827 387.823 39.9656C387.601 40.2981 381.333 40.2427 381.333 39.9101C381.333 39.4944 386.63 29.018 386.769 29.1566C386.824 29.2397 387.13 31.651 387.435 34.5056Z" fill="white"/>
<path d="M408.373 48.6405C405.628 49.6105 405.045 52.9086 407.292 54.8487C409.122 56.4562 412.062 55.791 413.088 53.5184C414.419 50.5251 411.535 47.5318 408.373 48.6405ZM411.84 49.8599C413.282 51.3011 413.282 52.9918 411.785 54.3775C410.148 55.9019 407.264 55.1813 406.571 53.0749C405.877 50.9408 407.319 49.0839 409.705 49.0562C410.814 49.0562 411.174 49.1948 411.84 49.8599Z" fill="white"/>
<path d="M408.512 51.9663C408.512 52.7978 408.651 53.4907 408.789 53.4907C408.956 53.4907 409.067 53.2412 409.067 52.9364C409.067 52.6315 409.178 52.382 409.288 52.382C409.427 52.382 409.76 52.6315 410.037 52.9364C410.315 53.2412 410.703 53.4907 410.925 53.4907C411.23 53.4907 411.202 53.3521 410.869 52.8255C410.564 52.382 410.509 52.1049 410.703 51.9663C411.174 51.6892 411.063 50.8023 410.564 50.6083C410.315 50.5251 409.76 50.442 409.316 50.442C408.512 50.442 408.512 50.4697 408.512 51.9663ZM410.176 51.4397C410.176 51.6892 409.982 51.8277 409.704 51.7723C409.011 51.6337 408.928 50.9963 409.594 50.9963C409.926 50.9963 410.176 51.1626 410.176 51.4397Z" fill="white"/>
</svg>
