<svg width="142" height="142" viewBox="0 0 142 142" fill="none" xmlns="http://www.w3.org/2000/svg">
<g clip-path="url(#clip0_4_28)">
<rect width="142" height="142" fill="white"/>
<path d="M0 71V142H71H142V71V-1.52588e-05H71H0V71ZM81.082 36.139C87.472 37.843 93.01 41.322 97.98 46.647C118.996 69.012 104.37 105.506 73.485 107.707C62.835 108.417 53.676 104.938 45.724 96.986C31.169 82.431 31.027 59.924 45.511 45.511C54.812 36.139 68.373 32.589 81.082 36.139Z" fill="black"/>
<path d="M66.385 39.192C64.113 39.476 59.924 40.825 57.155 42.174C37.559 51.475 32.731 77.603 47.712 93.436C52.114 98.051 55.877 100.465 61.841 102.311C70.077 104.867 80.585 103.66 88.182 99.187C92.016 96.986 98.051 90.667 99.968 86.904C105.08 76.822 104.796 64.113 99.187 54.528C95.069 47.428 84.845 40.328 77.461 39.405C75.686 39.192 73.414 38.908 72.42 38.766C71.426 38.695 68.728 38.837 66.385 39.192ZM77.248 74.124L67.805 90.241L66.101 83.851L64.397 77.461L58.859 75.544C55.735 74.479 53.25 73.343 53.25 73.13C53.25 72.846 57.936 70.503 63.758 67.947C69.509 65.391 76.893 61.983 80.23 60.492C83.567 58.93 86.336 57.723 86.478 57.865C86.549 57.936 82.431 65.249 77.248 74.124Z" fill="black"/>
<path d="M69.722 69.864C66.882 71.142 64.397 72.349 64.184 72.562C63.971 72.775 64.823 73.272 65.959 73.698C67.521 74.266 68.231 75.118 68.728 76.751L69.296 79.094L71.852 74.905C75.331 69.083 76.112 67.45 75.473 67.45C75.189 67.45 72.562 68.515 69.722 69.864Z" fill="black"/>
</g>
<defs>
<clipPath id="clip0_4_28">
<rect width="142" height="142" fill="white"/>
</clipPath>
</defs>
</svg>
