<svg width="385" height="37" viewBox="0 0 385 37" fill="none" xmlns="http://www.w3.org/2000/svg">
<g clip-path="url(#clip0_1_2)">
<mask id="mask0_1_2" style="mask-type:luminance" maskUnits="userSpaceOnUse" x="0" y="5" width="237" height="32">
<path d="M236.875 5.58491H0.00613403V37H236.875V5.58491Z" fill="white"/>
</mask>
<g mask="url(#mask0_1_2)">
<path d="M14.9219 21.6604C14.9191 19.473 15.4097 17.3131 16.357 15.3411C17.3044 13.3691 18.6844 11.6357 20.3942 10.2697L17.05 6.90945C16.5657 6.42718 15.9097 6.15638 15.2259 6.15638C14.5421 6.15638 13.8861 6.42718 13.4018 6.90945L0.765989 19.5341C0.283302 20.018 0.0122681 20.6734 0.0122681 21.3566C0.0122681 22.0399 0.283302 22.6952 0.765989 23.1791L13.4018 35.8038C13.8861 36.286 14.5421 36.5569 15.2259 36.5569C15.9097 36.5569 16.5657 36.286 17.05 35.8038L20.1472 32.7093C18.528 31.3551 17.2222 29.6658 16.3201 27.7582C15.4179 25.8506 14.9409 23.7701 14.9219 21.6604Z" fill="#F0F0F0"/>
<path d="M30.313 6.87158C26.7003 6.8639 23.1961 8.10475 20.3944 10.3837L29.686 19.6482C30.1687 20.1321 30.4397 20.7874 30.4397 21.4707C30.4397 22.1539 30.1687 22.8092 29.686 23.2932L20.1854 32.7854C23.0099 35.2259 26.6168 36.573 30.3511 36.5823C32.363 36.684 34.3747 36.376 36.2638 35.6768C38.1529 34.9776 39.88 33.9019 41.3401 32.5151C42.8002 31.1283 43.9627 29.4593 44.7571 27.6097C45.5516 25.76 45.9612 23.7682 45.9612 21.7554C45.9612 19.7426 45.5516 17.7509 44.7571 15.9012C43.9627 14.0516 42.8002 12.3825 41.3401 10.9957C39.88 9.6089 38.1529 8.53318 36.2638 7.83402C34.3747 7.13486 32.363 6.82677 30.3511 6.92853L30.313 6.87158Z" fill="#F0F0F0"/>
<path d="M60.943 31.8741C59.1948 30.88 57.7499 29.4297 56.7628 27.6785C55.753 25.8571 55.2232 23.8091 55.2232 21.7269C55.2232 19.6447 55.753 17.5966 56.7628 15.7753C57.7539 14.0222 59.1975 12.5668 60.943 11.5607C62.6006 10.6321 64.4546 10.1085 66.3534 10.0326C68.2523 9.95663 70.1427 10.3307 71.8692 11.1241C73.3603 11.8279 74.6627 12.8754 75.6689 14.1806C76.6912 15.4199 77.3494 16.9183 77.5695 18.509H72.3632C72.0809 17.4433 71.4011 16.5262 70.4627 15.9461C69.4069 15.2584 68.1696 14.9015 66.9094 14.9209C65.7374 14.9072 64.5852 15.223 63.5842 15.8322C62.5853 16.4188 61.7644 17.2652 61.2091 18.2812C60.6187 19.3361 60.3172 20.5279 60.335 21.7364C60.3175 22.9327 60.6193 24.1122 61.2091 25.1536C61.7702 26.1603 62.5902 26.9992 63.5842 27.5836C64.5903 28.1787 65.7402 28.4873 66.9094 28.4758C68.185 28.5009 69.4378 28.1367 70.5011 27.4317C71.4472 26.7917 72.1243 25.825 72.4009 24.7169H77.6449C77.4388 26.3572 76.7806 27.9081 75.7451 29.1973C74.713 30.5327 73.3694 31.5952 71.8308 32.2917C70.0944 33.0826 68.1968 33.4567 66.2898 33.3842C64.3828 33.3117 62.5193 32.7945 60.848 31.8741H60.943Z" fill="#F0F0F0"/>
<path d="M66.8525 33.6775C64.7353 33.7079 62.6486 33.1703 60.8101 32.1208C59.0107 31.1043 57.5253 29.6136 56.5159 27.8114C55.481 25.9501 54.9379 23.856 54.9379 21.7268C54.9379 19.5976 55.481 17.5036 56.5159 15.6423C57.5343 13.837 59.0168 12.3361 60.8101 11.2948C62.6486 10.2454 64.7353 9.70782 66.8525 9.73819C68.6241 9.7319 70.3753 10.1143 71.9831 10.8582C73.5427 11.5719 74.9101 12.6456 75.9735 13.9907C77.007 15.2809 77.6645 16.8313 77.8734 18.471V18.7938H72.1732V18.5849C71.8706 17.5686 71.1907 16.7061 70.2726 16.1739C69.2602 15.5389 68.0859 15.2094 66.8905 15.2247C65.774 15.21 64.6754 15.5058 63.7173 16.0789C62.7681 16.6473 61.9825 17.4519 61.4372 18.414C60.8791 19.432 60.5913 20.5757 60.6011 21.7363C60.5891 22.8791 60.8774 24.005 61.4372 25.0016C61.976 25.9733 62.7666 26.7822 63.7262 27.3433C64.6857 27.9045 65.7787 28.1973 66.8905 28.1911C68.1064 28.2105 69.2994 27.8596 70.311 27.1849C70.7806 26.9083 71.1907 26.5408 71.517 26.1041C71.8434 25.6672 72.0795 25.1698 72.2109 24.641V24.4321H78.0061V24.7549C77.8175 26.44 77.1593 28.0384 76.1063 29.3681C75.0484 30.74 73.6726 31.8346 72.097 32.5575C70.4515 33.3089 68.6615 33.6912 66.8525 33.6775ZM66.8525 10.3077C64.8523 10.2888 62.8836 10.8067 61.1522 11.8075C59.4217 12.7951 57.9905 14.2316 57.0099 15.965C56.025 17.7397 55.5082 19.7355 55.5082 21.7648C55.5082 23.794 56.025 25.7899 57.0099 27.5646C57.9807 29.2714 59.3913 30.6873 61.0951 31.6652C62.8327 32.6491 64.7983 33.1597 66.7955 33.146C68.5085 33.1577 70.2027 32.7881 71.7553 32.0638C73.2492 31.3823 74.5537 30.3461 75.555 29.0453C76.4689 27.8842 77.0587 26.5022 77.2655 25.0396H72.6287C72.2947 26.1419 71.5729 27.0861 70.5961 27.6974C69.4749 28.4514 68.1462 28.8364 66.7955 28.7985C65.573 28.8127 64.3701 28.491 63.3183 27.8683C62.287 27.25 61.4354 26.373 60.8481 25.3243C60.2367 24.2418 59.9221 23.0172 59.9361 21.7743C59.9199 20.519 60.2344 19.2816 60.8481 18.1862C61.4305 17.1195 62.2907 16.2299 63.3376 15.6117C64.3846 14.9934 65.5794 14.6694 66.7955 14.6741C68.1078 14.6608 69.3955 15.0303 70.5011 15.7372C71.4549 16.3132 72.1752 17.2074 72.5337 18.2621H77.2271C76.9657 16.8686 76.3578 15.5631 75.46 14.4653C74.4426 13.1898 73.1416 12.1692 71.6603 11.4847C70.1664 10.7322 68.5247 10.3174 66.8525 10.2697V10.3077Z" fill="#F0F0F0"/>
<path d="M85.797 31.8551C84.0509 30.8518 82.6017 29.4042 81.5976 27.6595C80.5537 25.8347 80.022 23.7621 80.0583 21.6604C80.036 19.5725 80.567 17.5158 81.5976 15.6993C82.5989 13.9477 84.0481 12.4933 85.797 11.4847C87.6032 10.4772 89.6372 9.94825 91.7061 9.94825C93.7751 9.94825 95.8091 10.4772 97.6153 11.4847C99.3712 12.4906 100.827 13.9453 101.834 15.6993C102.886 17.5089 103.43 19.568 103.411 21.6604C103.426 23.197 103.135 24.7212 102.553 26.1436C101.97 27.566 101.11 28.8579 100.021 29.9436C98.9331 31.0293 97.6384 31.8869 96.2136 32.4662C94.7889 33.0455 93.2629 33.3347 91.725 33.3169C89.6547 33.3632 87.6081 32.8587 85.797 31.8551ZM85.9297 25.1536C86.4999 26.1664 87.3335 27.0061 88.3432 27.5836C89.3717 28.1747 90.5386 28.4826 91.725 28.4758C92.9066 28.4876 94.0685 28.1792 95.0887 27.5836C96.1186 26.9809 96.9683 26.1138 97.5496 25.0722C98.131 24.0307 98.423 22.8527 98.3944 21.6604C98.4056 20.4503 98.0974 19.2586 97.5014 18.2053C96.9271 17.191 96.0942 16.3463 95.0887 15.7563C94.0734 15.1468 92.9094 14.8313 91.725 14.845C90.5358 14.8357 89.3661 15.1507 88.3432 15.7563C87.3286 16.3358 86.4943 17.1831 85.9297 18.2053C85.3484 19.2637 85.0472 20.4531 85.0556 21.6604C85.034 22.8814 85.3358 24.0865 85.9297 25.1536Z" fill="#F0F0F0"/>
<path d="M91.725 33.6777C89.6009 33.6992 87.5082 33.1553 85.6635 32.102C83.8615 31.0765 82.3655 29.5888 81.3314 27.7924C80.2833 25.9479 79.7453 23.8575 79.7732 21.7364C79.7446 19.6032 80.2826 17.5006 81.3314 15.6424C82.3879 13.8259 83.9027 12.3181 85.725 11.2701C87.5473 10.2221 89.6128 9.67047 91.7159 9.67047C93.8184 9.67047 95.8839 10.2221 97.7061 11.2701C99.5291 12.3181 101.044 13.8259 102.1 15.6424C103.16 17.4976 103.711 19.6 103.696 21.7364C103.711 23.8354 103.168 25.9007 102.124 27.7217C101.079 29.5427 99.569 31.0542 97.7488 32.102C95.9167 33.1531 93.8373 33.697 91.725 33.6777ZM91.725 10.3078C89.7259 10.2944 87.7583 10.812 86.0248 11.8075C84.2731 12.7804 82.826 14.2196 81.8443 15.9651C80.8598 17.7364 80.3427 19.7292 80.3427 21.7554C80.3427 23.7816 80.8598 25.7745 81.8443 27.5457C82.8169 29.2579 84.2353 30.675 85.9486 31.6463C87.6843 32.6369 89.6505 33.1541 91.6488 33.1461C93.6479 33.1541 95.6141 32.6369 97.3498 31.6463C99.084 30.646 100.523 29.2069 101.524 27.4739C102.525 25.7409 103.051 23.7752 103.05 21.7744C103.075 19.7342 102.543 17.7257 101.511 15.9651C100.579 14.2525 99.2084 12.8178 97.5398 11.8075C95.779 10.7727 93.7674 10.2408 91.725 10.2698V10.3078ZM91.725 28.7607C90.4911 28.7722 89.2767 28.4508 88.2097 27.8304C87.1539 27.2252 86.2805 26.3463 85.6831 25.2866C85.0717 24.204 84.7566 22.9794 84.7706 21.7364C84.7566 20.4814 85.071 19.2445 85.6831 18.1484C86.2749 17.0793 87.149 16.1929 88.2097 15.5854C89.2767 14.9634 90.4897 14.6355 91.725 14.6355C92.9604 14.6355 94.1734 14.9634 95.2403 15.5854C96.2821 16.2027 97.1465 17.0792 97.7488 18.1294C98.3727 19.2282 98.6941 20.4729 98.6795 21.7364C98.6962 22.9821 98.3741 24.209 97.7488 25.2866C97.1409 26.3326 96.2779 27.2078 95.2403 27.8304C94.1748 28.4535 92.9597 28.7751 91.725 28.7607ZM91.725 15.2248C90.591 15.2152 89.4758 15.5103 88.4948 16.0791C87.511 16.6281 86.6963 17.4356 86.1387 18.4141C85.5657 19.427 85.2708 20.5731 85.2834 21.7364C85.2695 22.8819 85.5643 24.0101 86.1387 25.0017C86.6879 25.9916 87.504 26.8073 88.4948 27.3558C89.4765 27.9229 90.5917 28.2179 91.725 28.2101C92.8535 28.22 93.963 27.9249 94.9364 27.3558C95.9265 26.7763 96.7426 25.9423 97.3009 24.9407C97.8585 23.9391 98.138 22.8064 98.1093 21.6605C98.1247 20.503 97.8291 19.3624 97.2548 18.3572C96.7063 17.3795 95.9062 16.5666 94.9364 16.0031C93.9568 15.4562 92.8465 15.187 91.725 15.2248Z" fill="#F0F0F0"/>
<path d="M127.942 32.9371H122.716V20.1606C122.788 18.7237 122.313 17.313 121.386 16.2119C120.944 15.73 120.402 15.3497 119.799 15.0973C119.195 14.845 118.544 14.7265 117.89 14.75C116.842 14.7549 115.817 15.048 114.925 15.5973C114.033 16.1465 113.31 16.9306 112.836 17.8635V33.051H107.686V10.4785H112.836V13.3642C113.565 12.3902 114.499 11.5868 115.572 11.0101C116.815 10.3247 118.219 9.98385 119.638 10.0229C120.991 9.92291 122.345 10.2109 123.54 10.8534C124.735 11.4957 125.721 12.4656 126.383 13.6489C127.276 12.5837 128.367 11.7006 129.595 11.0481C130.873 10.3628 132.304 10.0102 133.756 10.0229C135.417 9.98692 137.06 10.3793 138.525 11.162C139.889 11.9044 141.015 13.0165 141.774 14.3703C142.579 15.8484 142.985 17.5101 142.952 19.1924V32.9371H137.746V20.1606C137.828 18.7198 137.36 17.3017 136.435 16.1928C135.976 15.7034 135.414 15.3206 134.79 15.0714C134.167 14.8221 133.496 14.7125 132.825 14.75C131.799 14.7629 130.797 15.0656 129.936 15.6233C129.019 16.1654 128.259 16.9377 127.733 17.8635L127.865 18.6419L127.942 32.9371Z" fill="#F0F0F0"/>
<path d="M143.237 33.222H137.442V20.1607C137.523 18.785 137.082 17.4295 136.207 16.3638C135.771 15.9079 135.241 15.5514 134.654 15.3188C134.067 15.0862 133.436 14.9828 132.806 15.0159C131.833 15.0346 130.886 15.3239 130.07 15.8512C129.238 16.3466 128.54 17.0374 128.037 17.8635L128.15 18.528V33.203H122.45V20.1417C122.529 18.763 122.081 17.4059 121.196 16.3448C120.78 15.8933 120.27 15.5373 119.702 15.3014C119.135 15.0654 118.523 14.955 117.909 14.9779C116.896 14.9675 115.902 15.2439 115.04 15.7753C114.245 16.2735 113.591 16.9662 113.14 17.7876V33.165H107.439V10.2697H113.14V12.6428C113.803 11.8956 114.579 11.2553 115.439 10.7443C116.735 10.0523 118.188 9.7058 119.657 9.73819C120.993 9.64785 122.329 9.91718 123.526 10.5183C124.722 11.1193 125.735 12.03 126.46 13.1554C127.313 12.1999 128.33 11.4029 129.461 10.8013C130.785 10.0841 132.269 9.71801 133.775 9.73819C135.49 9.69881 137.185 10.1043 138.696 10.9152C140.097 11.6916 141.255 12.8418 142.041 14.2375C142.866 15.7567 143.286 17.4636 143.256 19.1925L143.237 33.222ZM138.031 32.6524H142.648V19.1925C142.682 17.5654 142.296 15.9573 141.528 14.5223C140.792 13.214 139.706 12.1359 138.392 11.4088C136.966 10.6542 135.37 10.2752 133.756 10.3077C132.351 10.2893 130.964 10.6291 129.728 11.2948C128.535 11.928 127.478 12.7853 126.611 13.8198L126.346 14.1426L126.137 13.7819C125.504 12.6363 124.555 11.6964 123.403 11.0738C122.25 10.4512 120.944 10.1721 119.638 10.2697C118.266 10.2389 116.911 10.5662 115.705 11.219C114.675 11.7866 113.776 12.5625 113.064 13.4971L112.551 14.2185V10.7254H107.971V32.6145H112.551V17.6167C113.061 16.6501 113.827 15.8418 114.765 15.2795C115.703 14.7172 116.777 14.4225 117.871 14.4273C118.581 14.3876 119.29 14.5067 119.947 14.7761C120.605 15.0454 121.194 15.4581 121.671 15.9841C122.644 17.1378 123.146 18.6156 123.077 20.1227V32.6145H127.656V18.566L127.504 17.7306C128.067 16.7571 128.872 15.946 129.841 15.3766C130.748 14.7913 131.803 14.4754 132.882 14.4653C133.589 14.4298 134.296 14.549 134.952 14.8146C135.609 15.0802 136.199 15.4858 136.682 16.0031C137.66 17.1608 138.156 18.6486 138.069 20.1607L138.031 32.6524Z" fill="#F0F0F0"/>
<path d="M168.509 32.9371H163.36V20.1606C163.431 18.7237 162.956 17.313 162.03 16.2119C161.586 15.732 161.044 15.353 160.441 15.1008C159.838 14.8487 159.187 14.729 158.533 14.75C157.483 14.7514 156.453 15.0429 155.557 15.5924C154.662 16.1418 153.936 16.9278 153.461 17.8635V33.051H148.311V10.4785H153.461V13.3642C154.2 12.3989 155.131 11.5973 156.197 11.0101C157.447 10.3248 158.856 9.98413 160.282 10.0229C161.635 9.92291 162.988 10.2109 164.183 10.8534C165.379 11.4957 166.365 12.4656 167.027 13.6489C167.909 12.5796 168.994 11.6957 170.22 11.0481C171.498 10.3628 172.929 10.0102 174.381 10.0229C176.048 9.98706 177.697 10.3793 179.169 11.162C180.529 11.9102 181.654 13.0209 182.418 14.3703C183.216 15.8502 183.616 17.5118 183.577 19.1924V32.9371H178.39V20.1606C178.472 18.7198 178.003 17.3017 177.079 16.1928C176.619 15.7034 176.057 15.3206 175.434 15.0714C174.81 14.8221 174.139 14.7125 173.469 14.75C172.436 14.7603 171.428 15.0632 170.561 15.6233C169.648 16.1709 168.89 16.9418 168.357 17.8635L168.509 18.6419V32.9371Z" fill="#F0F0F0"/>
<path d="M183.862 33.2219H178.162V20.1606C178.242 18.7849 177.801 17.4294 176.927 16.3637C176.49 15.9078 175.96 15.5514 175.373 15.3188C174.786 15.0862 174.156 14.9828 173.525 15.0158C172.548 15.034 171.593 15.3232 170.77 15.8512C169.915 16.3423 169.192 17.0326 168.661 17.8635L168.775 18.5279V33.203H163.075V20.1416C163.153 18.7629 162.705 17.4059 161.821 16.3447C161.409 15.8927 160.903 15.5362 160.338 15.3001C159.774 15.064 159.164 14.9539 158.552 14.9778C157.54 14.9674 156.545 15.2439 155.683 15.7752C154.88 16.2623 154.223 16.9577 153.783 17.7876V33.165H148.083V10.2697H153.783V12.6428C154.443 11.8913 155.219 11.2504 156.082 10.7443C157.378 10.0499 158.831 9.70322 160.3 9.73819C161.634 9.64925 162.967 9.91942 164.16 10.5205C165.353 11.1216 166.363 12.0315 167.084 13.1553C167.945 12.1993 168.967 11.4024 170.105 10.8013C171.422 10.0864 172.901 9.72046 174.399 9.73819C176.115 9.69442 177.811 10.1002 179.321 10.9152C180.732 11.6855 181.897 12.8368 182.684 14.2375C183.504 15.7584 183.916 17.4653 183.881 19.1924L183.862 33.2219ZM178.675 32.6524H183.292V19.1924C183.328 17.5628 182.935 15.9522 182.152 14.5222C181.429 13.2109 180.348 12.1313 179.036 11.4088C177.604 10.651 176.001 10.272 174.381 10.3077C172.982 10.2917 171.602 10.6314 170.371 11.2948C169.183 11.9342 168.126 12.7906 167.255 13.8198L166.989 14.1425L166.78 13.7818C166.145 12.6301 165.189 11.6861 164.03 11.0631C162.87 10.4401 161.556 10.1647 160.244 10.2697C158.872 10.2363 157.515 10.5636 156.311 11.219C155.274 11.7759 154.372 12.5536 153.669 13.497L153.137 14.2185V10.7254H148.577V32.6145H153.137V17.6167C153.623 16.6649 154.367 15.8689 155.284 15.3196C156.237 14.7284 157.336 14.419 158.458 14.4273C159.167 14.3889 159.876 14.5086 160.533 14.7779C161.191 15.0471 161.78 15.4592 162.258 15.984C163.231 17.1378 163.733 18.6155 163.664 20.1226V32.6145H168.224V18.5659L168.091 17.7306C168.658 16.7818 169.455 15.9916 170.41 15.4335C171.316 14.8482 172.37 14.5323 173.45 14.5222C174.156 14.4893 174.862 14.6096 175.518 14.8751C176.174 15.1405 176.765 15.5448 177.25 16.06C178.22 17.2215 178.716 18.7065 178.637 20.2176L178.675 32.6524Z" fill="#F0F0F0"/>
<path d="M193.553 31.8551C191.807 30.8519 190.358 29.4042 189.354 27.6596C188.322 25.8571 187.791 23.8124 187.814 21.7365C187.792 19.6485 188.323 17.5918 189.354 15.7753C190.355 14.0237 191.804 12.5693 193.553 11.5608C195.359 10.5532 197.393 10.0243 199.462 10.0243C201.531 10.0243 203.565 10.5532 205.371 11.5608C207.148 12.5586 208.625 14.0139 209.647 15.7753C210.698 17.5849 211.243 19.644 211.224 21.7365C211.239 23.273 210.947 24.7972 210.365 26.2196C209.783 27.6419 208.923 28.9339 207.834 30.0196C206.746 31.1053 205.451 31.9629 204.027 32.5422C202.602 33.1214 201.076 33.4107 199.538 33.3929C197.441 33.4262 195.374 32.8951 193.553 31.8551ZM193.686 25.1536C194.256 26.1665 195.089 27.0062 196.099 27.5836C197.128 28.1747 198.295 28.4826 199.481 28.4759C200.663 28.4876 201.825 28.1792 202.845 27.5836C203.863 26.9872 204.705 26.1321 205.286 25.1051C205.867 24.0781 206.165 22.9158 206.15 21.7365C206.162 20.5263 205.853 19.3347 205.257 18.2813C204.683 17.2671 203.85 16.4223 202.845 15.8322C201.829 15.2228 200.665 14.9073 199.481 14.921C198.292 14.9116 197.122 15.2267 196.099 15.8322C195.085 16.4119 194.25 17.2592 193.686 18.2813C193.104 19.3397 192.803 20.5291 192.812 21.7365C192.803 22.9318 193.104 24.1089 193.686 25.1536Z" fill="#F0F0F0"/>
<path d="M199.481 33.6775C197.357 33.699 195.265 33.1552 193.42 32.1018C191.617 31.0834 190.126 29.5936 189.106 27.7924C188.053 25.9493 187.508 23.8591 187.529 21.7363C187.508 19.6015 188.052 17.499 189.106 15.6423C190.127 13.8323 191.617 12.3305 193.42 11.2948C196.177 9.69512 199.457 9.25447 202.539 10.0697C205.621 10.8849 208.252 12.8893 209.856 15.6423C210.937 17.466 211.52 19.5411 211.547 21.6604C211.568 23.7879 211.009 25.8811 209.932 27.7164C208.903 29.5167 207.406 31.0057 205.6 32.0259C203.747 33.12 201.633 33.6909 199.481 33.6775ZM199.481 10.3076C197.482 10.2942 195.514 10.8118 193.781 11.8074C192.063 12.781 190.643 14.2056 189.676 15.927C188.692 17.6983 188.175 19.6911 188.175 21.7173C188.175 23.7436 188.692 25.7364 189.676 27.5076C190.654 29.2158 192.071 30.6316 193.781 31.6083C195.516 32.5988 197.483 33.116 199.481 33.108C201.474 33.1292 203.437 32.6219 205.169 31.6381C206.902 30.6542 208.342 29.229 209.343 27.5076C210.351 25.744 210.881 23.7483 210.881 21.7173C210.881 19.6864 210.351 17.6906 209.343 15.927C208.364 14.2089 206.939 12.7859 205.22 11.8074C203.481 10.7859 201.498 10.2545 199.481 10.2697V10.3076ZM199.481 28.7606C198.247 28.7721 197.033 28.4508 195.966 27.8304C194.91 27.2251 194.036 26.3462 193.439 25.2864C192.821 24.1797 192.513 22.9272 192.546 21.6604C192.531 20.4054 192.846 19.1684 193.458 18.0723C194.05 17.0032 194.924 16.1169 195.985 15.5094C197.052 14.8873 198.265 14.5594 199.501 14.5594C200.735 14.5594 201.949 14.8873 203.015 15.5094C204.058 16.1267 204.921 17.0031 205.524 18.0533C206.148 19.1522 206.47 20.3969 206.455 21.6604C206.471 22.9061 206.15 24.1329 205.524 25.2105C204.916 26.2565 204.053 27.1318 203.015 27.7544C201.952 28.4074 200.73 28.7555 199.481 28.7606ZM199.481 15.2247C198.348 15.2151 197.232 15.5101 196.251 16.0789C195.288 16.6361 194.493 17.4429 193.952 18.414C193.379 19.4269 193.084 20.573 193.097 21.7363C193.082 22.8818 193.378 24.01 193.952 25.0017C194.511 25.9966 195.341 26.8129 196.346 27.3557C197.328 27.9228 198.443 28.2177 199.576 28.21C200.704 28.2228 201.815 27.9274 202.787 27.3557C203.777 26.7761 204.594 25.9422 205.152 24.9406C205.71 23.939 205.989 22.8063 205.961 21.6604C205.976 20.5028 205.68 19.3623 205.106 18.3571C204.552 17.3837 203.752 16.5722 202.787 16.003C201.781 15.4389 200.635 15.1692 199.481 15.2247Z" fill="#F0F0F0"/>
<path d="M220.592 13.4591C221.306 12.3771 222.296 11.5053 223.461 10.9343C225.212 10.1108 227.177 9.85115 229.083 10.1913C230.99 10.5313 232.743 11.4543 234.102 12.8326C235.839 14.8822 236.729 17.5163 236.591 20.1987V33.0131H231.479V21.015C231.568 19.4582 231.05 17.9275 230.035 16.7435C229.545 16.2346 228.953 15.8334 228.299 15.5653C227.645 15.2973 226.942 15.1684 226.235 15.1868C225.089 15.1438 223.953 15.4128 222.948 15.9651C221.974 16.4991 221.151 17.2695 220.553 18.2053V32.9562H215.404V10.4786H220.553L220.592 13.4591Z" fill="#F0F0F0"/>
<path d="M236.876 33.2219H231.175V20.9389C231.266 19.4584 230.775 18.0008 229.807 16.8763C229.338 16.3817 228.767 15.9936 228.135 15.7381C227.501 15.4827 226.822 15.3658 226.14 15.3955C225.074 15.3896 224.025 15.6646 223.099 16.1928C222.197 16.7021 221.43 17.4178 220.857 18.2811V33.2219H215.157V10.2697H220.857V12.6617C221.541 11.8738 222.374 11.2286 223.308 10.7633C225.113 9.9146 227.135 9.64157 229.1 9.9812C231.065 10.3209 232.877 11.2568 234.292 12.6617C236.085 14.7736 237.002 17.49 236.857 20.2555L236.876 33.2219ZM231.764 32.6524H236.249V20.1226C236.386 17.5111 235.524 14.9453 233.835 12.9465C233.007 12.0646 231.997 11.3723 230.875 10.9168C229.753 10.4613 228.547 10.2535 227.337 10.3076C226.019 10.3018 224.719 10.6006 223.537 11.1809C222.416 11.7358 221.46 12.5734 220.762 13.611L220.249 14.4273V10.7633H215.727V32.6524H220.307V18.1103C220.94 17.1411 221.792 16.3346 222.796 15.7562C223.811 15.1888 224.957 14.8945 226.121 14.9019C226.88 14.8696 227.638 15.0004 228.343 15.2853C229.048 15.5702 229.683 16.0026 230.206 16.5535C231.264 17.7922 231.808 19.3884 231.726 21.0149L231.764 32.6524Z" fill="#F0F0F0"/>
</g>
<path d="M248.106 32.6064H253.395L258.6 16.2026H258.853L264.016 32.6064H269.348L275.907 10.4951H271.167L266.639 27.3639H266.343L261.096 10.4951H256.4L251.11 27.3639H250.814L246.286 10.4951H241.589L248.106 32.6064Z" fill="#F0F0F0"/>
<path d="M289.605 33.156C295.064 33.156 298.999 30.1965 300.141 25.9265H295.825C294.937 28.0826 292.525 29.4355 289.732 29.4355C285.67 29.4355 283.089 26.8143 282.919 22.967H300.353V21.3182C300.353 15.0188 296.418 9.94546 289.521 9.94546C283.215 9.94546 278.477 14.596 278.477 21.6141C278.477 28.2517 282.962 33.156 289.605 33.156ZM283.004 19.5425C283.343 16.0757 286.135 13.6659 289.521 13.6659C292.948 13.6659 295.656 15.8221 295.952 19.5425H283.004Z" fill="#F0F0F0"/>
<path d="M315.351 33.156C319.751 33.156 321.91 30.3233 322.502 29.4778H322.756V32.6063H327.114V10.4951H322.671V13.7082H322.375C321.655 12.5667 319.37 9.94546 315.139 9.94546C308.961 9.94546 304.603 14.7652 304.603 21.6141C304.603 28.4631 309.003 33.156 315.351 33.156ZM315.985 29.1396C311.923 29.1396 309.131 26.1801 309.131 21.5718C309.131 17.1327 311.923 14.0041 315.943 14.0041C319.836 14.0041 322.798 16.7944 322.798 21.5718C322.798 25.7574 320.217 29.1396 315.985 29.1396Z" fill="#F0F0F0"/>
<path d="M339.195 32.6064H341.014V28.6745H340.083C338.983 28.6745 338.391 28.0403 338.391 26.8566V0.898041H333.947V27.1103C333.947 30.577 335.851 32.6064 339.195 32.6064Z" fill="#F0F0F0"/>
<path d="M355.205 32.6064H358.886V28.8436H355.882C353.555 28.8436 352.666 27.5753 352.666 25.4614V14.131H359.098V10.4951H352.666V4.23798H348.477V9.09991C348.477 9.98777 347.927 10.5374 347.165 10.5374H344.245V14.131H348.223V25.5882C348.223 30.1965 350.847 32.6064 355.205 32.6064Z" fill="#F0F0F0"/>
<path d="M364.794 32.6064H369.237V19.5003C369.237 16.3717 371.692 14.0887 374.696 14.0887C377.489 14.0887 379.732 16.1603 379.732 19.2466V32.6064H384.175V18.401C384.175 13.6236 381.043 9.94546 376.008 9.94546C372.707 9.94546 370.422 11.6366 369.492 13.4545H369.195V0.898041H364.794V32.6064Z" fill="#F0F0F0"/>
<path d="M247.792 33.0252L241.029 10.0761H246.608L250.982 26.3721L256.091 10.0761H261.405L266.473 26.3683L270.846 10.0761H276.468L269.661 33.0252H263.708L258.726 17.192L253.702 33.0252H247.792ZM258.6 16.2025H258.853L264.016 32.6063H269.348L275.907 10.495H271.167L266.639 27.3638H266.343L261.096 10.495H256.4L251.11 27.3638H250.814L246.286 10.495H241.589L248.106 32.6063H253.395L258.6 16.2025ZM300.688 25.5075L300.547 26.0346C299.348 30.5149 295.224 33.5748 289.605 33.5748C286.175 33.5748 283.281 32.3064 281.245 30.1623C279.212 28.0203 278.057 25.0279 278.057 21.6141C278.057 18.0087 279.276 14.9833 281.332 12.8569C283.389 10.7302 286.262 9.52653 289.521 9.52653C293.079 9.52653 295.904 10.839 297.836 12.9898C299.761 15.1348 300.772 18.0832 300.772 21.3181V23.3858H283.369C283.527 25.0225 284.159 26.3768 285.158 27.343C286.243 28.3931 287.794 29.0166 289.732 29.0166C292.405 29.0166 294.631 27.7247 295.438 25.7669L295.544 25.5075H300.688ZM282.948 23.3858C283.28 27.0032 285.819 29.4355 289.732 29.4355C292.525 29.4355 294.937 28.0826 295.825 25.9264H300.141C300.104 26.0675 300.063 26.2071 300.019 26.3453C298.738 30.3887 294.883 33.1559 289.605 33.1559C282.962 33.1559 278.477 28.2517 278.477 21.6141C278.477 14.5959 283.215 9.94539 289.521 9.94539C296.418 9.94539 300.353 15.0187 300.353 21.3181V22.967H282.919C282.925 23.1082 282.935 23.2479 282.948 23.3858ZM283.004 19.5424H295.953C295.941 19.4006 295.926 19.2609 295.908 19.1236C295.449 15.6606 292.817 13.6658 289.521 13.6658C286.274 13.6658 283.571 15.8831 283.057 19.1236C283.036 19.2614 283.018 19.4011 283.004 19.5424ZM283.482 19.1236H295.485C295.268 17.5793 294.596 16.3686 293.634 15.5235C292.578 14.5952 291.146 14.0847 289.521 14.0847C286.497 14.0847 283.989 16.1269 283.482 19.1236ZM322.671 10.495H327.114V32.6063H322.756V29.4777H322.501C322.456 29.543 322.401 29.62 322.337 29.7067C321.563 30.7434 319.412 33.1559 315.351 33.1559C309.003 33.1559 304.603 28.4631 304.603 21.6141C304.603 14.7651 308.961 9.94539 315.139 9.94539C319.154 9.94539 321.416 12.3047 322.252 13.5215C322.297 13.5872 322.338 13.6496 322.375 13.7082H322.671V10.495ZM322.252 12.8227V10.0761H327.534V33.0252H322.337V30.3808C321.32 31.5885 319.117 33.5748 315.351 33.5748C312.069 33.5748 309.268 32.359 307.289 30.239C305.313 28.1212 304.184 25.1287 304.184 21.6141C304.184 18.101 305.302 15.0792 307.243 12.9307C309.186 10.7791 311.935 9.52653 315.139 9.52653C318.876 9.52653 321.168 11.4832 322.252 12.8227ZM311.343 26.8008C312.463 28.0225 314.061 28.7207 315.985 28.7207C317.98 28.7207 319.566 27.9275 320.66 26.6526C321.759 25.3714 322.378 23.581 322.378 21.5718C322.378 19.2706 321.667 17.4882 320.526 16.2844C319.386 15.0814 317.786 14.423 315.943 14.423C314.048 14.423 312.46 15.1573 311.341 16.4029C310.219 17.652 309.55 19.4395 309.55 21.5718C309.55 23.7918 310.221 25.5761 311.343 26.8008ZM341.434 33.0252H339.194C337.437 33.0252 336.004 32.4894 335.014 31.4467C334.026 30.407 333.528 28.9177 333.528 27.1102V0.479103H338.81V26.8565C338.81 27.3838 338.942 27.7207 339.131 27.924C339.316 28.1223 339.613 28.2556 340.083 28.2556H341.434V33.0252ZM341.014 32.6063H339.194C335.851 32.6063 333.947 30.5769 333.947 27.1102V0.897972H338.391V26.8565C338.391 28.0403 338.983 28.6744 340.083 28.6744H341.014V32.6063ZM359.306 33.0252H355.205C352.951 33.0252 351.086 32.4009 349.786 31.1241C348.484 29.846 347.804 27.971 347.804 25.5882V14.5498H343.826V10.1185H347.165C347.441 10.1185 347.654 10.0212 347.8 9.86525C347.948 9.70755 348.057 9.45685 348.057 9.09984V3.81905H353.086V10.0761H359.517V14.5498H353.086V25.4613C353.086 26.4702 353.299 27.1958 353.716 27.6681C354.123 28.1298 354.793 28.4247 355.882 28.4247H359.306V33.0252ZM359.098 14.1309H352.666V25.4613C352.666 27.5752 353.555 28.8435 355.882 28.8435H358.886V32.6063H355.205C350.847 32.6063 348.223 30.1965 348.223 25.5882V14.1309H344.245V10.5373H347.165C347.927 10.5373 348.477 9.9877 348.477 9.09984V4.23791H352.666V10.495H359.098V14.1309ZM364.375 33.0252V0.479103H369.615V12.4663C370.815 10.843 373.035 9.52653 376.008 9.52653C378.633 9.52653 380.789 10.4884 382.287 12.0963C383.781 13.7008 384.594 15.9212 384.594 18.4009V33.0252H379.312V19.2465C379.312 16.3939 377.259 14.5075 374.696 14.5075C371.913 14.5075 369.657 16.6136 369.657 19.5002V33.0252H364.375ZM369.615 13.2286C369.571 13.3036 369.53 13.3789 369.491 13.4545H369.195V0.897972H364.794V32.6063H369.237V19.5002C369.237 16.3716 371.692 14.0886 374.696 14.0886C377.489 14.0886 379.732 16.1602 379.732 19.2465V32.6063H384.175V18.4009C384.175 13.6235 381.043 9.94539 376.008 9.94539C372.844 9.94539 370.614 11.4989 369.615 13.2286ZM309.131 21.5718C309.131 26.1801 311.923 29.1395 315.985 29.1395C320.217 29.1395 322.798 25.7573 322.798 21.5718C322.798 16.7944 319.836 14.0041 315.943 14.0041C311.923 14.0041 309.131 17.1326 309.131 21.5718Z" fill="#F0F0F0"/>
</g>
<defs>
<clipPath id="clip0_1_2">
<rect width="385" height="37" fill="white"/>
</clipPath>
</defs>
</svg>
