<svg width="148" height="32" viewBox="0 0 148 32" fill="none" xmlns="http://www.w3.org/2000/svg">
<g clip-path="url(#clip0_22_4332)">
<path d="M78.052 12.2085C80.6299 12.2085 81.925 13.4362 82.5725 14.5419L82.5664 14.5315V12.5383H84.283V27.0091C84.283 28.2858 83.5744 28.9882 82.2793 28.9882H74.3134V27.3206H82.0044C82.3954 27.3206 82.5298 27.1863 82.5298 26.8198V22.2079C81.3813 24.1504 79.2432 24.4497 78.052 24.4497C74.7105 24.4497 72.3769 21.9941 72.3769 18.4696V18.1886C72.3769 14.6701 74.7105 12.2085 78.052 12.2085ZM70.4649 7.52942V24.3092H68.6994V22.2995C68.058 23.4052 66.7568 24.633 64.1789 24.633C60.8374 24.633 58.5038 22.1407 58.5038 18.5612V18.2802C58.5038 14.7068 60.8374 12.2085 64.1789 12.2085C65.3762 12.2085 67.5082 12.5017 68.6567 14.4502V7.52942H70.4649ZM92.029 12.2085C95.4133 12.2085 97.6857 14.5296 97.6796 17.9687V18.9216H88.0033C88.1682 21.4199 89.7565 22.9592 92.1878 22.9592C93.9288 22.9592 95.0834 22.2018 95.8164 20.577L95.902 20.3937L97.5391 21.1206L97.4536 21.31C96.4029 23.5457 94.6863 24.633 92.1939 24.633C88.6019 24.633 86.1889 22.1957 86.1889 18.5612V18.2802C86.1889 14.7068 88.5897 12.2085 92.029 12.2085ZM142.317 12.2085C145.701 12.2085 147.973 14.5296 147.973 17.9809H147.967V18.9216H138.291C138.456 21.4199 140.044 22.9592 142.476 22.9592C144.217 22.9592 145.371 22.2018 146.104 20.577L146.19 20.3937L147.827 21.1206L147.741 21.31C146.691 23.5457 144.974 24.633 142.482 24.633C138.89 24.633 136.477 22.1957 136.477 18.5612V18.2802C136.477 14.7068 138.877 12.2085 142.317 12.2085ZM121.907 12.2085C124.858 12.2085 126.623 13.876 126.623 16.6676V22.1896C126.623 22.5378 126.758 22.6905 127.081 22.6722H128.254V24.297H126.684C125.664 24.297 124.986 23.6556 124.919 22.6477C124.338 23.5579 123.282 24.6268 120.905 24.6268C118.236 24.6268 116.446 23.1303 116.446 20.8946C116.446 18.6773 118.138 17.2968 120.863 17.2968H124.821V16.5882C124.821 14.8351 123.789 13.8699 121.913 13.8699C120.123 13.8699 118.963 14.7557 118.553 16.4294L118.505 16.637L116.751 16.1239L116.8 15.9346C117.442 13.5706 119.299 12.2085 121.907 12.2085ZM136.122 12.4894V14.2059H134.424C132.708 14.2059 131.797 15.171 131.797 16.9974V24.3153H129.989V12.5383H131.755V13.8516C132.237 12.9109 133.129 12.4894 134.583 12.4894H136.122ZM57.2271 7.52942V9.29475H48.8336V15.0183H56.5734V16.7775H48.8336V22.55H57.3248V24.3092H46.9276V7.52942H57.2271ZM100.673 12.5383L102.903 22.8982L105.804 12.5383H108.498L111.406 22.8982L113.636 12.5383H115.499L112.836 24.3092H110.062L107.154 13.9249L104.24 24.3092H101.467L98.8036 12.5383H100.673ZM64.5088 13.8761C61.9919 13.8761 60.3609 15.6231 60.3609 18.3291V18.5184C60.3609 21.2245 61.9858 22.9715 64.5088 22.9715C67.0256 22.9715 68.6567 21.2245 68.6567 18.5184V18.3291C68.6567 15.6231 67.0256 13.8761 64.5088 13.8761ZM124.809 18.9338H120.875C119.232 18.9338 118.248 19.6607 118.248 20.8824C118.248 22.1713 119.299 22.9715 120.991 22.9715C123.343 22.9715 124.809 21.4566 124.809 19.0132V18.9338ZM78.3758 13.8761C75.8589 13.8761 74.2279 15.5925 74.2279 18.2375V18.4268C74.2279 21.0779 75.8528 22.7882 78.3758 22.7882C80.8926 22.7882 82.5237 21.0718 82.5237 18.4268V18.2375C82.5237 15.5864 80.8926 13.8761 78.3758 13.8761ZM92.0351 13.8761C89.9031 13.8761 88.4309 15.1527 88.0582 17.309H95.8409C95.6576 15.1527 94.2465 13.8761 92.0351 13.8761ZM142.317 13.8761C140.185 13.8761 138.713 15.1527 138.34 17.309H146.122C145.939 15.1527 144.528 13.8761 142.317 13.8761Z" fill="white"/>
<path fill-rule="evenodd" clip-rule="evenodd" d="M37.4664 16.003L34.6995 11.275H27.034L30.8698 4.72803L28.1029 0H22.569L18.7332 6.54696L14.9035 0.00602296H9.36966L6.60274 4.73405L10.4386 11.281H2.77303L0 16.003L2.76692 20.731H10.4325L6.59663 27.278L9.36356 32H14.8974L18.7332 25.453L22.569 32H22.624H28.1029L30.8698 27.278L27.034 20.731H34.6995L37.4664 16.003ZM29.4711 4.72803L25.6353 11.275H22.2026L27.7547 1.80087L29.4711 4.72803ZM23.2654 1.19857H26.698L21.1459 10.6787L19.4295 7.74553L23.2654 1.19857ZM20.4496 11.8773L18.7332 14.8105L12.8329 4.73405L14.5492 1.80087L20.4496 11.8773ZM8.00147 4.72803L10.066 1.19857H13.4987L11.4342 4.72803L17.6826 15.4007H14.25L8.00147 4.72803ZM3.46934 12.4736H11.1349L12.8512 15.4067H1.75299L3.46934 12.4736ZM3.46934 19.5325L1.75299 16.5993H12.8512L11.1349 19.5325H3.46934ZM14.25 16.5993H17.6826L11.7823 26.6757H8.34963L14.25 16.5993ZM14.2011 30.8075H10.066L8.34963 27.8743H12.4847L18.7332 17.2016L20.4496 20.1348L14.2011 30.8075ZM23.2654 30.8075L19.4295 24.2605L21.1459 21.3273L26.698 30.8075H23.2654ZM29.4711 27.278L27.7547 30.2052L22.2026 20.725H25.6353L29.4711 27.278ZM21.5001 19.5325L19.7838 16.5993H31.5844L33.3008 19.5325H21.5001ZM32.2869 15.4067H32.2319H19.7899L21.5063 12.4736H34.0093L36.0738 16.003L34.3514 18.9362L32.2869 15.4067Z" fill="#FF3B80"/>
</g>
<defs>
<clipPath id="clip0_22_4332">
<rect width="148" height="32" fill="white"/>
</clipPath>
</defs>
</svg>
