<svg width="272" height="234" viewBox="0 0 272 234" fill="none" xmlns="http://www.w3.org/2000/svg">
<path d="M72.3442 0.870476C71.336 1.44622 69.7517 2.30984 68.8156 2.74166C65.7911 4.10906 61.7584 8.93095 60.1741 13.1051C58.3738 17.999 58.1578 24.4762 59.7421 25.7716C60.3902 26.2754 60.6782 26.8511 60.4622 27.067C59.8141 27.7147 65.431 37.2866 66.5832 37.3585C67.3033 37.3585 67.3753 37.5025 66.7992 37.7903C66.1511 38.0062 66.4392 38.8699 67.6634 40.741C68.6716 42.1804 69.4637 43.7637 69.4637 44.1955C69.4637 44.6273 70.1118 45.7069 70.9039 46.6425C71.6961 47.5781 72.3442 48.6576 72.3442 49.1614C72.3442 49.5932 72.9923 50.6727 73.8564 51.6083C74.7206 52.4719 75.4407 53.6234 75.5127 54.1992C75.7287 55.6385 77.457 57.5097 78.1772 57.0059C78.5372 56.79 78.6092 57.0779 78.3932 57.6537C78.0331 58.6612 79.5454 61.8998 83.6501 68.9527C84.6582 70.7519 85.7384 72.3352 85.9545 72.5511C86.1705 72.767 86.4585 73.3428 86.6026 73.8466C87.1066 76.3655 93.0116 83.9222 96.1802 86.0093C99.5647 88.3123 100.861 88.7441 106.334 89.6077C109.214 90.0395 116.272 88.6001 116.272 87.5926C116.272 87.2327 116.488 87.0168 116.848 87.0888C117.784 87.3767 120.952 85.3615 122.393 83.4904C123.185 82.4828 124.409 81.0434 125.129 80.3237C125.849 79.6041 126.209 78.6685 125.993 78.3086C125.705 77.8768 125.849 77.5889 126.209 77.5889C127.289 77.5889 128.514 73.4148 128.514 69.8883C128.514 66.1459 126.569 59.5968 125.201 58.4453C124.625 58.0135 124.193 57.1499 124.193 56.6461C124.193 56.0703 123.113 53.9833 121.744 52.0401C120.376 50.025 118.216 46.4266 117.064 43.9796C115.839 41.6047 114.615 39.4456 114.327 39.3017C113.967 39.2297 112.959 37.5744 112.023 35.7032C111.087 33.8321 110.006 32.4647 109.574 32.7525C109.142 32.9684 109.07 32.8245 109.358 32.3207C109.646 31.8889 108.998 29.9458 107.774 28.0746C103.309 20.8058 99.7088 14.4725 99.7088 13.8248C99.7088 13.465 98.9166 12.2415 97.9085 11.09C96.9003 9.93851 96.1082 8.71505 96.1082 8.3552C96.1082 7.27567 93.0836 4.4689 89.6271 2.30984C86.8906 0.582603 85.4504 0.294724 80.2655 0.0788193C75.7287 -0.137085 73.7124 0.0788193 72.3442 0.870476Z" fill="#FF3B80"/>
<path d="M184.145 1.25375C179.104 4.06052 174.136 8.59454 173.271 11.2574C172.983 12.049 172.551 12.8407 172.335 13.0566C171.543 13.6323 161.461 31.6964 161.461 32.4881C161.461 32.9199 160.957 33.4237 160.381 33.6396C159.805 33.9275 159.301 34.3593 159.301 34.7191C159.301 35.079 158.509 36.6623 157.501 38.2456C156.493 39.8289 155.917 41.1243 156.205 41.1243C156.421 41.1243 155.989 41.844 155.196 42.7076C152.964 45.2985 149.723 52.4234 150.3 53.431C150.66 53.9347 150.588 54.1506 150.228 53.8628C149.796 53.6469 149.147 53.6469 148.787 53.9347C148.139 54.3665 144.683 60.9157 144.539 61.9952C144.467 62.2111 144.107 63.5785 143.674 65.0179C142.018 70.6314 143.746 78.3321 147.491 82.0025C148.859 83.2979 149.94 84.5933 149.94 84.8812C149.94 85.1691 151.812 86.2486 154.116 87.4001C158.797 89.5592 165.134 89.991 170.463 88.5516C173.415 87.7599 181.625 80.5631 181.625 78.7639C181.625 78.2601 183.425 75.0935 185.585 71.711C187.746 68.4004 189.546 65.3058 189.546 64.9459C189.546 64.5861 189.978 63.7944 190.482 63.2906C191.49 62.2111 192.499 60.4119 194.803 56.0218C195.595 54.3665 196.531 52.8552 196.747 52.6393C198.044 51.6317 203.228 40.9804 202.796 40.2607C202.508 39.7569 202.58 39.685 203.084 39.9728C203.589 40.2607 204.381 39.4691 205.101 38.1016C205.749 36.8062 206.901 34.935 207.621 33.9275C209.349 31.4805 210.214 28.5298 208.989 29.2495C208.341 29.6094 208.197 29.5374 208.557 28.9616C208.845 28.5298 209.349 28.3139 209.71 28.5298C210.934 29.3215 212.086 25.6511 212.086 20.9731C212.086 12.6248 207.693 5.49989 200.348 2.0454C196.027 0.0302811 187.242 -0.401535 184.145 1.25375ZM179.464 6.57942C179.464 6.93927 179.104 7.29911 178.672 7.29911C178.312 7.29911 178.168 6.93927 178.384 6.57942C178.6 6.14761 178.96 5.85973 179.176 5.85973C179.32 5.85973 179.464 6.14761 179.464 6.57942ZM204.381 9.45816C204.381 10.3218 204.093 10.6097 203.733 10.2498C203.372 9.88998 203.3 9.24226 203.517 8.81045C204.237 7.73092 204.381 7.80288 204.381 9.45816Z" fill="#FF3B80"/>
<path d="M189.186 96.3242C186.018 97.0439 183.857 98.1954 184.289 98.9151C184.505 99.3469 184.361 99.4189 183.929 99.131C182.849 98.4833 180.041 99.9946 180.545 100.93C180.833 101.29 180.617 101.506 180.041 101.434C179.537 101.29 179.176 101.65 179.32 102.082C179.392 102.586 179.032 102.945 178.6 102.801C178.096 102.729 177.736 103.089 177.88 103.521C177.952 104.025 177.664 104.385 177.232 104.241C174.856 103.737 171.111 117.195 172.623 120.794C172.911 121.513 173.271 122.881 173.415 123.816C173.56 124.752 174.064 125.831 174.568 126.119C175.072 126.479 175.216 126.767 174.928 126.767C174.64 126.767 175.36 128.206 176.512 129.934C179.104 133.676 184.361 137.202 188.826 138.21C190.77 138.642 204.237 139.002 222.744 139.002C257.021 139.002 257.814 138.93 264.007 134.18C266.023 132.596 268.471 129.79 269.768 127.487C271.712 124.032 271.928 122.881 272 117.771C272 112.085 270.704 106.976 269.408 107.767C269.048 107.983 268.975 107.623 269.192 107.048C269.768 105.536 264.871 100.426 260.55 98.1235L256.877 96.1803L223.752 96.0364C205.533 96.0364 189.978 96.1083 189.186 96.3242ZM264.439 101.578C264.439 101.938 264.079 102.298 263.647 102.298C263.287 102.298 263.143 101.938 263.359 101.578C263.575 101.146 263.935 100.858 264.151 100.858C264.295 100.858 264.439 101.146 264.439 101.578ZM270.56 110.934C270.776 111.366 270.488 111.438 269.912 111.222C268.615 110.718 268.399 110.214 269.408 110.214C269.84 110.214 270.344 110.502 270.56 110.934Z" fill="#FF3B80"/>
<path d="M18.1224 97.281C12.6494 97.9287 8.04067 100.088 6.52842 102.679C6.09634 103.398 5.73628 103.686 5.73628 103.326C5.73628 103.038 4.51208 104.478 3.07184 106.565C0.623428 110.163 0.407392 110.883 0.119344 116.569C-0.168705 122.47 -0.0966926 122.902 2.20769 126.5C3.50391 128.587 4.94415 130.171 5.44824 129.955C5.88031 129.811 6.24037 130.171 6.16836 130.818C6.16836 131.538 6.60043 132.042 7.32055 132.042C7.96866 132.042 8.76079 132.33 9.12085 132.69C9.4089 133.049 9.33689 133.121 8.8328 132.833C8.32872 132.546 7.89665 132.69 7.89665 133.049C7.89665 133.481 8.25671 133.841 8.61677 133.841C9.04884 133.841 10.057 134.561 10.9212 135.424C12.4334 136.936 13.5136 137.08 22.6591 137.583C37.5656 138.303 69.1789 138.231 77.2443 137.439C81.9971 136.936 84.8775 136.36 86.2458 135.424C87.3259 134.633 89.0542 133.481 90.2064 132.833C91.2866 132.186 92.1507 131.322 92.1507 130.89C92.1507 130.458 92.5828 129.739 93.0869 129.163C96.0394 126.068 96.4715 124.989 96.8315 119.663C97.1196 115.201 96.9756 113.33 95.8954 110.451C95.1032 108.436 94.1671 106.925 93.735 106.997C93.3029 107.141 93.0869 106.709 93.375 106.133C93.591 105.485 93.0869 104.406 92.0787 103.614C91.1426 102.823 89.9904 101.959 89.6303 101.599C83.7253 96.7052 81.637 96.4893 50.7438 96.5613C35.6933 96.6333 21.0028 96.9212 18.1224 97.281Z" fill="#FF3B80"/>
<path d="M129.776 99.059C124.735 100.714 119.838 104.888 116.814 110.214C111.053 120.29 89.2334 158.073 81.8881 170.668C77.6394 178.008 71.7344 188.156 68.7819 193.338C65.8294 198.448 63.093 203.054 62.7329 203.485C61.3647 205.141 59.9244 212.841 60.3565 216.008C61.3647 222.845 65.5414 228.818 71.6624 231.841C75.335 233.712 76.7753 234 81.4561 234C92.2579 233.928 95.7865 230.833 106.66 211.618C110.765 204.349 114.942 197.152 115.806 195.713C116.742 194.201 117.534 192.834 117.534 192.69C117.534 192.474 119.334 189.38 121.495 185.781C123.655 182.183 125.455 179.088 125.455 178.872C125.455 178.728 127.256 175.634 129.416 172.035C131.576 168.437 133.377 165.342 133.377 165.054C133.449 164.766 134.097 163.759 134.889 162.751C136.113 161.312 136.473 161.168 137.049 162.031C137.409 162.607 142.594 171.531 148.571 181.823C154.548 192.114 160.453 202.334 161.75 204.493C163.046 206.652 166.358 212.337 169.095 217.087C177.016 230.833 180.689 233.64 190.986 233.64C196.099 233.64 197.684 233.352 200.564 231.841C210.862 226.587 214.894 214.568 209.782 204.205C208.629 201.83 206.397 197.728 204.813 195.137C198.044 183.694 187.746 165.99 177.592 148.357C155.773 110.214 153.828 107.047 151.02 104.241C149.435 102.657 146.699 100.714 144.971 99.9226C140.794 98.0514 133.953 97.6916 129.776 99.059Z" fill="black"/>
</svg>
