<svg width="236" height="236" viewBox="0 0 236 236" fill="none" xmlns="http://www.w3.org/2000/svg">
<g clip-path="url(#clip0_23_4738)">
<path d="M39.3333 61.6222C59.9475 53.0534 69.9486 59.3713 90.4667 60.3111C87.6025 44.4979 71.0243 37.9527 56.3778 41.3384C47.1014 43.4827 37.373 51.4384 39.3333 61.6222ZM145.533 60.3111L170.444 55.0859L197.978 60.3111C193.205 33.9643 150.306 33.9643 145.533 60.3111Z" fill="#4F3697"/>
<path d="M5.24445 115.378C18.3532 108.99 25.0142 96.2007 40.6444 92.6691C59.8572 88.328 69.5735 100.797 86.5333 103.264C95.2851 104.537 105.249 101.393 114.067 101.007C125.134 100.523 135.867 103.32 146.844 103.403C153.879 103.456 159.057 98.4621 165.2 95.7678C174.855 91.5328 186.39 90.2951 196.667 92.9898C213.596 97.4287 219.494 111.877 233.378 119.311C225.961 93.5642 210.298 58.9763 180.933 55.3095C163.6 53.1451 147.117 60.8768 129.8 61.6223C126.725 78.589 110.337 77.4695 106.2 61.6223C89.6651 60.9105 74.1783 53.97 57.6889 55.1851C27.4026 57.4168 12.7298 89.1934 5.24445 115.378Z" fill="#714BD4"/>
<path d="M90.4667 68.1777V97.0222H145.533V68.1777L118 83.7978L90.4667 68.1777ZM104.889 148.156H131.111C135.351 200.066 225.531 216.047 235.569 159.956C240.994 129.63 227.214 95.7524 192.733 92.0053C174.661 90.0414 165.523 99.7081 149.467 102.977C141.736 104.55 132.391 101.35 124.556 101.007C112.627 100.485 100.982 103.352 89.1555 103.214C80.5861 103.113 72.6287 95.1882 64.2444 92.9897C40.6749 86.8093 15.4143 99.3023 2.73957 119.534C-1.40705 126.152 -7.7635e-06 135.469 -7.7635e-06 142.911C-7.7635e-06 151.423 -0.895359 160.08 3.30205 167.822C27.2508 211.999 100.68 199.681 104.889 148.156Z" fill="#4F3697"/>
<path d="M44.5778 102.267V103.578H57.6889L44.5778 102.267ZM178.311 102.267V103.578H191.422L178.311 102.267Z" fill="#714BD4"/>
<path d="M41.9555 104.191C-6.76823 113.399 9.19881 190.375 57.6889 181.635C109.771 172.249 93.7649 94.4 41.9555 104.191Z" fill="#8AE4AE"/>
<path d="M175.689 104.191C126.864 113.402 142.869 190.386 191.422 181.635C243.397 172.268 227.425 94.4303 175.689 104.191Z" fill="#8AE4AE"/>
<path d="M112.776 111.107C97.0858 117.267 107.285 141.641 123.224 135.383C138.914 129.222 128.716 104.848 112.776 111.107Z" fill="#714BD4"/>
<path d="M112.898 114.103C101.347 120.579 111.488 138.714 123.168 132.384C134.9 126.027 124.696 107.489 112.898 114.103Z" fill="#4F3697"/>
<path d="M26.5227 121.976C18.6364 126.649 26.1733 138.11 33.8947 133.691C42.0404 129.028 34.1821 117.437 26.5227 121.976Z" fill="#F6FCF9"/>
<path d="M160.256 121.976C152.369 126.649 159.907 138.11 167.628 133.691C175.774 129.028 167.915 117.437 160.256 121.976Z" fill="#F6FCF9"/>
<path d="M11.8 131.111V135.044H13.1111L11.8 131.111ZM222.889 131.111V135.044H224.2L222.889 131.111Z" fill="#714BD4"/>
<path d="M48.9421 139.09C44.1755 141.87 48.5938 149.096 53.3529 146.467C58.3143 143.727 53.724 136.302 48.9421 139.09Z" fill="#F6FCF9"/>
<path d="M90.4667 137.667V148.156H91.7778L90.4667 137.667ZM144.222 137.667V148.156H145.533L144.222 137.667Z" fill="#714BD4"/>
<path d="M182.661 139.09C177.785 141.884 182.112 149.162 186.92 146.467C191.809 143.727 187.527 136.302 182.661 139.09Z" fill="#F6FCF9"/>
<path d="M10.4889 138.978V146.844H11.8L10.4889 138.978ZM224.2 138.978V146.844H225.511L224.2 138.978Z" fill="#714BD4"/>
<path d="M40.6444 180.933V182.244H44.5778L40.6444 180.933ZM57.6889 180.933V182.244H61.6222L57.6889 180.933ZM174.378 180.933V182.244H178.311L174.378 180.933ZM191.422 180.933V182.244H195.356L191.422 180.933Z" fill="#714BD4"/>
</g>
<defs>
<clipPath id="clip0_23_4738">
<rect width="236" height="236" fill="white"/>
</clipPath>
</defs>
</svg>
