<svg width="100" height="100" viewBox="0 0 100 100" fill="none" xmlns="http://www.w3.org/2000/svg">
<rect width="100" height="100" fill="white"/>
<g filter="url(#filter0_d_22_807)">
<path d="M28.5244 21.7278L37.9484 18.0606L45.1597 22.3122L45.4545 48.2582L46.3537 78.854L38.3476 82.4545L30.0771 78.6047L28.5244 21.7278Z" fill="#FFDA56"/>
<path d="M68.8621 62.4125L69.9512 71.9131L60.3243 76.2727L38.4878 63.7995L47.3845 48.4545L68.8621 62.4125Z" fill="#FFDA56"/>
<path d="M60.7314 30.9394L69.9512 35.7356L69.8103 44.478L45.0081 58.2424L38.4878 43.9987L60.7314 30.9394Z" fill="#FFDA56"/>
<path fill-rule="evenodd" clip-rule="evenodd" d="M71 34.6259L61.1966 29.1235L47.6142 36.912L47.6248 21.5024L37.8214 16L28.0161 21.6227L28.0058 37.0323L28.002 44.2314L28.0269 50.9843L28.0649 54.5757L28.002 63.3758L28 70.4077L28.0009 78.508L37.7982 84L47.6035 78.3772L47.6024 70.2769L61.1851 77.8917L61.2825 77.8357L70.9904 72.2689L70.9985 61.1543L57.4158 53.5396L70.9981 45.7509L71 34.6259ZM45.1465 22.9236L45.1359 38.3331L39.0537 41.821L39.0712 19.5204L45.1465 22.9236ZM30.4923 23.0228L36.5746 19.535L36.5637 55.7758L30.4815 59.2636L30.4923 23.0228ZM28 70.4077L28.0032 60.6848L28.0022 67.5863L28 70.4077ZM30.4815 59.2636L36.5637 55.7758L36.565 72.18L30.4828 75.6678L30.4815 59.2636ZM45.1335 76.9877L37.8066 81.1892L31.7251 77.7753L39.052 73.5738V54.2797L45.1311 57.3905L45.1335 76.9877ZM61.1829 75.0872L47.6001 67.4723L47.6009 60.5708L67.265 71.5993L61.1829 75.0872ZM68.5202 62.5756L68.5131 69.4666L48.849 58.438L54.9311 54.9501L68.5202 62.5756ZM45.1311 57.3905L39.052 54.2797L61.196 41.6508L67.2775 45.0645L45.1311 57.3905ZM61.2044 38.84L61.107 38.896L36.5646 52.8157L36.5668 45.679L61.2161 31.9323L68.5326 36.0408L68.5209 42.9488L61.2044 38.84Z" fill="#151515"/>
</g>
<defs>
<filter id="filter0_d_22_807" x="21" y="16" width="53" height="81" filterUnits="userSpaceOnUse" color-interpolation-filters="sRGB">
<feFlood flood-opacity="0" result="BackgroundImageFix"/>
<feColorMatrix in="SourceAlpha" type="matrix" values="0 0 0 0 0 0 0 0 0 0 0 0 0 0 0 0 0 0 127 0" result="hardAlpha"/>
<feOffset dx="-2" dy="8"/>
<feGaussianBlur stdDeviation="2.5"/>
<feComposite in2="hardAlpha" operator="out"/>
<feColorMatrix type="matrix" values="0 0 0 0 0 0 0 0 0 0 0 0 0 0 0 0 0 0 0.2 0"/>
<feBlend mode="normal" in2="BackgroundImageFix" result="effect1_dropShadow_22_807"/>
<feBlend mode="normal" in="SourceGraphic" in2="effect1_dropShadow_22_807" result="shape"/>
</filter>
</defs>
</svg>
