<svg width="49" height="49" viewBox="0 0 49 49" fill="none" xmlns="http://www.w3.org/2000/svg">
<g clip-path="url(#clip0_21_9)">
<path d="M11.27 0.0520841C9.87463 0.242021 8.52045 0.5335 7.22749 1.10732C6.22633 1.55163 5.25601 2.16056 4.41046 2.8555C-0.248175 6.68437 -1.31577e-05 12.1867 -1.31577e-05 17.64V29.155C-1.31577e-05 34.4019 -0.712413 39.9073 2.66426 44.345C6.1641 48.9445 11.4335 49 16.66 49H28.91C32.0388 49 35.3704 49.3216 38.465 48.8438C43.264 48.1029 47.29 44.6696 48.5424 39.935C49.2262 37.3501 49 34.6205 49 31.9725V19.2325C49 14.457 49.6614 9.25512 46.7036 5.145C43.0482 0.0655985 37.6253 6.70552e-07 31.9725 6.70552e-07H21.1925C17.9652 6.70552e-07 14.4664 -0.383021 11.27 0.0520841Z" fill="#061FFB"/>
<path d="M0 10.78V11.1475H0.1225L0 10.78ZM21.9275 10.78V10.9025H27.195C25.8198 10.3255 23.4243 10.78 21.9275 10.78ZM48.8775 10.78V11.1475H49L48.8775 10.78Z" fill="#606060"/>
<path d="M21.805 10.9025V11.6375H21.9275L21.805 10.9025Z" fill="#2D2D2D"/>
<path d="M21.9275 10.9025L22.284 17.885L22.4175 20.7025C19.5009 19.4441 17.1113 16.6372 14.0875 15.68L11.6375 19.7225L20.4575 24.255V24.5L11.6375 29.0325L14.0875 33.075C17.133 32.1109 19.4335 29.1818 22.4175 28.0525L22.284 30.87L21.9275 37.8525H27.195L26.705 28.0525C28.7014 29.0414 30.5875 30.4373 32.4625 31.6427C32.9984 31.9873 34.121 32.9981 34.7773 32.9387C35.5275 32.8707 36.5247 30.6126 36.9128 30.0125C37.0986 29.7251 37.4203 29.3239 37.1594 28.988C36.7017 28.3992 35.4461 28.016 34.79 27.6649C32.866 26.6355 30.7538 25.1145 28.665 24.5V24.255C30.7915 23.3697 32.9052 22.1495 34.9125 21.0181C35.5396 20.6645 36.7161 20.3373 37.1594 19.767C37.4203 19.4311 37.0986 19.0299 36.9128 18.7425C36.5211 18.1365 35.5387 15.8843 34.7786 15.8163C34.1204 15.7577 33 16.7667 32.4625 17.1123C30.5748 18.3259 28.6855 19.6483 26.705 20.7025L27.195 10.9025H21.9275Z" fill="#FDFDFD"/>
<path d="M27.0725 11.515V12.1275H27.195L27.0725 11.515ZM21.9275 11.76V12.8625H22.05L21.9275 11.76Z" fill="#A2A2A2"/>
<path d="M27.0725 12.1275V13.1075H27.195L27.0725 12.1275ZM21.9275 12.8625V13.8425H22.05L21.9275 12.8625Z" fill="#606060"/>
<path d="M27.0725 13.1075V13.965H27.195L27.0725 13.1075Z" fill="#2D2D2D"/>
<path d="M26.95 14.0875V15.19H27.0725L26.95 14.0875ZM22.05 14.945V15.3125H22.1725L22.05 14.945Z" fill="#A2A2A2"/>
<path d="M26.95 15.19V16.2925H27.0725L26.95 15.19ZM22.05 15.3125V16.2925H22.1725L22.05 15.3125Z" fill="#606060"/>
<path d="M22.05 16.2925V17.395H22.1725L22.05 16.2925Z" fill="#2D2D2D"/>
<path d="M22.1725 17.395V18.4975H22.295L22.1725 17.395Z" fill="#A2A2A2"/>
<path d="M26.8275 17.5175V18.62H26.95L26.8275 17.5175Z" fill="#606060"/>
<path d="M22.1725 18.4975V19.6H22.295L22.1725 18.4975Z" fill="#606060"/>
<path d="M26.8275 18.62V19.7225H26.95L26.8275 18.62Z" fill="#2D2D2D"/>
<path d="M22.1725 19.6V20.335H22.295L22.1725 19.6Z" fill="#2D2D2D"/>
<path d="M30.38 25.235V25.3575L30.7475 25.48L30.38 25.235Z" fill="#2D2D2D"/>
<path d="M26.705 28.0525V29.0325H26.8275L26.95 28.0525H26.705Z" fill="#A2A2A2"/>
<path d="M26.8275 29.0325V30.135H26.95L26.8275 29.0325Z" fill="#2D2D2D"/>
<path d="M22.1725 29.2775V30.2575H22.295L22.1725 29.2775Z" fill="#606060"/>
<path d="M26.8275 30.135V31.115H26.95L26.8275 30.135Z" fill="#606060"/>
<path d="M22.1725 30.2575V31.36H22.295L22.1725 30.2575Z" fill="#A2A2A2"/>
<path d="M22.05 31.36V32.4625H22.1725L22.05 31.36Z" fill="#2D2D2D"/>
<path d="M22.05 32.4625V33.4425H22.1725L22.05 32.4625ZM26.95 32.4625V33.565H27.0725L26.95 32.4625Z" fill="#606060"/>
<path d="M22.05 33.4425V33.81H22.1725L22.05 33.4425ZM26.95 33.565V34.6675H27.0725L26.95 33.565Z" fill="#A2A2A2"/>
<path d="M21.9275 34.545V34.9125H22.05L21.9275 34.545ZM27.0725 34.6675V35.77H27.195L27.0725 34.6675Z" fill="#2D2D2D"/>
<path d="M21.9275 34.9125V35.8925H22.05L21.9275 34.9125ZM27.0725 35.77V36.6275H27.195L27.0725 35.77Z" fill="#606060"/>
<path d="M21.9275 35.8925V36.995H22.05L21.9275 35.8925ZM27.0725 36.6275V37.1175H27.195L27.0725 36.6275Z" fill="#A2A2A2"/>
<path d="M21.805 37.1175V37.485H21.9275L21.805 37.1175Z" fill="#2D2D2D"/>
<path d="M0 37.8525V38.22H0.1225L0 37.8525ZM21.9275 37.8525V37.975H27.195C25.8198 37.398 23.4243 37.8525 21.9275 37.8525ZM48.8775 37.8525V38.22H49L48.8775 37.8525Z" fill="#606060"/>
</g>
<defs>
<clipPath id="clip0_21_9">
<rect width="49" height="49" fill="white"/>
</clipPath>
</defs>
</svg>
