<svg width="183" height="202" viewBox="0 0 183 202" fill="none" xmlns="http://www.w3.org/2000/svg">
<path d="M95.9434 0.0707869C93.923 0.245761 92.3322 0.802494 89.8505 2.26592C89.4209 2.52042 88.2278 3.18851 87.2256 3.76116C85.5711 4.69965 84.4416 5.38365 83.2644 6.13126C82.6122 6.56075 80.8781 7.51515 79.6691 8.13551C79.0646 8.43774 78.476 8.78769 78.3646 8.89904C78.2533 9.01039 78.0783 9.12174 77.9669 9.15355C77.5056 9.31262 78.0942 9.77391 79.4782 10.3147C80.3054 10.6329 81.4508 11.1896 82.0076 11.5555C83.0417 12.2236 86.8438 14.371 87.0029 14.371C87.0665 14.371 87.3688 14.5778 87.6869 14.8323C88.0051 15.0868 88.7687 15.564 89.3891 15.898C90.0254 16.248 91.2345 16.9161 92.0935 17.4251C92.9685 17.9182 93.923 18.459 94.2253 18.6181C94.8457 18.9362 95.2434 19.1907 96.8024 20.1928C97.3751 20.5746 98.5523 21.2427 99.4273 21.704C100.286 22.1653 101.257 22.7061 101.575 22.9129C101.909 23.1197 102.211 23.2788 102.259 23.2788C102.307 23.2788 102.434 23.3583 102.545 23.4378C102.657 23.5333 103.054 23.8673 103.452 24.2014C104.804 25.3148 106.363 26.8578 107.016 27.7327C108.002 29.037 109.02 30.6118 109.02 30.8345C109.02 30.9299 109.195 31.3594 109.402 31.8048C110.118 33.3159 110.356 34.3817 110.356 36.3223C110.372 37.8335 110.309 38.3425 110.006 39.2651C108.988 42.351 107.111 45.4369 105.234 47.1548C104.359 47.9502 101.925 49.8431 101.782 49.8431C101.734 49.8431 101.161 50.1612 100.509 50.5589C98.4251 51.8314 95.0366 53.088 91.3458 53.9629C87.496 54.8696 81.1327 55.3627 77.6806 55.0128C77.2033 54.965 75.867 54.8537 74.7216 54.7742C73.5603 54.6946 71.9535 54.4878 71.1422 54.297C69.3287 53.9152 64.238 52.4359 63.6812 52.1495C63.4585 52.0382 62.7108 51.6564 62.0108 51.2906C60.5791 50.5589 59.0519 49.6999 58.7337 49.4295C58.6064 49.334 58.0178 48.9841 57.3974 48.6341C56.7929 48.3001 55.8065 47.7275 55.202 47.3457C54.6134 46.9639 54.0884 46.6617 54.0248 46.6617C53.9612 46.6617 53.7703 46.5345 53.5953 46.3595C53.4044 46.2004 52.5772 45.7073 51.7499 45.2778C50.9227 44.8324 48.775 43.6076 46.9774 42.5259C45.1798 41.4602 43.398 40.4103 43.0003 40.2036C42.2208 39.79 42.0776 39.7104 40.7731 38.8515C39.7073 38.1675 38.2596 37.4517 37.5596 37.2767C37.2733 37.1972 36.5733 37.0222 36.0006 36.879C34.4734 36.4814 32.8667 36.545 30.9895 37.0381C29.2396 37.5153 28.7305 37.738 26.3283 39.1696C25.4216 39.7104 24.658 40.1399 24.6102 40.1399C24.5784 40.1399 24.1648 40.3944 23.6716 40.6967C23.1944 41.0148 22.6694 41.3011 22.5103 41.3648C22.3672 41.4125 21.6036 41.826 20.8081 42.2873C14.1903 46.1209 10.8654 48.0138 9.99044 48.4433C9.64046 48.6182 9.19502 48.9046 9.00412 49.0954C8.67005 49.3977 8.65414 49.4454 8.89276 49.6999C9.03594 49.859 9.37002 50.0339 9.65637 50.0817C10.9449 50.3521 12.3926 50.9565 14.2539 52.0223C15.3675 52.6586 16.3061 53.1835 16.3538 53.1835C16.4174 53.1835 17.3242 53.7243 19.0741 54.7901C19.5991 55.1082 20.6013 55.6808 21.3013 56.0467C21.9854 56.4285 23.1626 57.0965 23.9103 57.5578C24.658 58.0191 26.0897 58.8622 27.0919 59.4189C29.7009 60.8824 31.2599 61.7731 34.3302 63.5865C37.3687 65.384 37.8937 65.6703 39.8664 66.6565C41.5526 67.4996 45.4184 69.0902 47.3751 69.7424C48.1705 70.0128 49.0296 70.3151 49.2841 70.4423C49.9682 70.7445 53.4044 71.7785 54.6134 72.033C55.1861 72.1602 56.4429 72.4625 57.4133 72.7329C59.1314 73.1942 60.5631 73.4646 63.9675 73.9418C64.8584 74.0691 65.6538 74.1963 65.7334 74.244C65.8129 74.2918 67.0856 74.4508 68.5492 74.5781C70.0286 74.7053 71.699 74.8962 72.2717 74.9757C73.9739 75.2303 81.9281 75.3416 85.237 75.1666C90.3754 74.8644 99.0296 73.7191 102.307 72.9238C108.495 71.3967 112.393 70.2196 114.827 69.1698C115.097 69.0425 115.861 68.7403 116.561 68.454C124.706 65.2408 131.562 60.5642 136.351 55.0128C139.071 51.8314 140.2 49.9226 141.489 46.3436C142.38 43.8462 142.746 42.0169 142.746 39.965C142.746 38.3266 142.348 35.5906 141.887 34.0954C141.759 33.6977 141.537 32.9501 141.394 32.4251C141.107 31.4071 139.707 28.6393 138.928 27.4941C138.657 27.1123 138.451 26.7305 138.451 26.651C138.451 26.5715 138.339 26.4124 138.212 26.301C138.085 26.1897 137.655 25.6171 137.257 25.0126C136.287 23.5333 132.294 19.5407 130.544 18.284C130.083 17.95 129.701 17.6319 129.701 17.5841C129.701 17.5205 129.367 17.2501 128.937 16.9797C125.851 14.9595 124.928 14.371 124.849 14.371C124.801 14.371 124.038 13.9415 123.163 13.4166C122.288 12.8916 121.54 12.4622 121.492 12.4622C121.444 12.4622 121.206 12.3349 120.983 12.1758C120.745 12.0009 120.013 11.5873 119.36 11.2373C118.708 10.8874 117.626 10.267 116.974 9.85345C116.322 9.45578 115.733 9.12173 115.67 9.12173C115.606 9.12173 114.938 8.72407 114.19 8.24686C113.458 7.76966 112.806 7.37199 112.759 7.37199C112.631 7.37199 109.1 5.36774 107.986 4.63603C106.268 3.53846 102.068 1.24788 100.907 0.802491C99.9523 0.420729 98.966 0.166226 97.8046 0.023065C97.5501 -0.0246553 96.707 0.00715979 95.9434 0.0707869Z" fill="#FF3B80"/>
<path d="M131.96 12.3666C132.071 12.4939 132.214 12.5575 132.294 12.5098C132.358 12.478 132.501 12.653 132.612 12.9075C132.724 13.162 133.169 13.6392 133.598 13.9732C134.044 14.2914 134.473 14.6572 134.553 14.7686C134.648 14.864 135.173 15.3412 135.746 15.8025C138.021 17.6477 141.028 20.9245 142.698 23.3582C144.48 25.951 146.087 29.2596 146.818 31.8842C147.821 35.4474 147.9 35.9564 147.9 39.265C147.916 42.1282 147.868 42.6531 147.486 44.5142C146.93 47.1547 145.943 50.018 144.814 52.229C144.321 53.1993 142.682 55.633 141.903 56.5715C141.521 57.0169 141.075 57.6373 140.9 57.9236C140.407 58.7031 137.926 61.3277 136.478 62.5843C135.778 63.2047 135.046 63.825 134.871 63.9841C133.503 65.1771 129.892 67.6904 128.031 68.7243C127.156 69.2174 126.137 69.8378 125.756 70.0923C124.61 70.8558 119.981 72.9237 116.258 74.3235C115.733 74.5303 115.049 74.7848 114.747 74.912C114.445 75.0234 113.554 75.3097 112.759 75.5324C111.979 75.771 110.977 76.0891 110.531 76.2482C109.593 76.5982 108.225 76.9799 106.793 77.2822C106.22 77.4094 105.059 77.6798 104.2 77.9025C103.325 78.1252 102.577 78.3002 102.529 78.2843C102.466 78.2684 102.307 78.3002 102.179 78.3479C101.257 78.6819 95.4979 79.5409 90.4868 80.0977C87.7028 80.3999 86.4302 80.4476 80.3054 80.4635C72.7967 80.4635 71.4127 80.384 65.3516 79.5727C61.279 79.0319 59.8314 78.7774 57.6837 78.2207C56.8247 77.998 55.5838 77.7116 54.9316 77.6003C54.2794 77.473 53.3408 77.2503 52.8635 77.1231C52.3863 76.9799 51.7022 76.805 51.3522 76.7095C51.0022 76.63 50.3659 76.4232 49.9205 76.2482C49.4909 76.0891 48.3455 75.7233 47.3751 75.437C46.4206 75.1507 45.1957 74.753 44.6707 74.5303C43.0003 73.8463 42.7776 73.7508 42.2049 73.5441C41.9026 73.4327 41.0118 73.0351 40.2164 72.6692C39.4368 72.3033 38.6096 71.9375 38.4028 71.8738C37.6233 71.6352 34.8711 70.1718 32.469 68.7243C31.1168 67.929 29.5737 67.0064 29.0169 66.7042C28.476 66.4019 27.2669 65.6861 26.3284 65.1294C25.3898 64.5727 24.1648 63.8568 23.5921 63.5546C23.0194 63.2524 22.3672 62.8706 22.1285 62.6956C21.9058 62.5366 21.6354 62.4093 21.5399 62.4093C21.4445 62.4093 21.3649 62.3457 21.3649 62.2662C21.3649 62.1866 21.2059 62.0912 20.999 62.0276C20.8081 61.9798 20.1559 61.614 19.5355 61.2004C18.931 60.8027 17.881 60.1824 17.2288 59.8324C16.5765 59.4666 15.8606 59.0689 15.6379 58.9416C15.2084 58.6712 14.8584 58.4644 13.538 57.7327C13.0767 57.4941 12.5835 57.1919 12.4563 57.0806C12.0426 56.7306 9.72001 55.6171 8.76551 55.3149C7.97009 55.0763 7.71556 55.0604 6.82469 55.2195C5.10659 55.5376 3.10213 56.667 2.22717 57.8282C1.55902 58.7031 0.731785 60.3733 0.556793 61.2163C0.381801 62.0117 0.238626 74.8166 0.174992 93.7457C0.159084 98.8676 0.111359 103.974 0.0477251 105.119C-0.0159084 106.248 -0.0159084 107.314 0.0477251 107.473C0.127267 107.744 0.174992 107.728 0.556793 107.394C1.03404 106.964 1.19313 106.519 1.62265 104.324C2.11581 101.906 2.94305 99.4403 3.84983 97.7224C5.01114 95.5113 5.36112 94.9069 6.42698 93.3321C7.81101 91.2801 11.0722 87.8602 12.9017 86.5399C15.3357 84.7901 16.7992 84.0266 19.6946 82.9768C24.3716 81.2907 30.4645 81.0043 36.0802 82.2133C38.2914 82.6746 40.3436 83.1995 41.1709 83.4858C41.5208 83.613 42.4594 83.9312 43.2389 84.2016C45.6411 85.0447 51.7658 88.2419 53.7385 89.6894C54.0089 89.8803 54.6134 90.2462 55.0907 90.4848C55.5679 90.7393 56.427 91.3119 56.9838 91.7573C57.5565 92.1868 58.3042 92.7594 58.6701 93.0299C61.1836 94.8273 64.1903 97.4201 66.8947 100.124C69.1855 102.415 72.8444 106.36 73.5285 107.266C73.8944 107.744 74.6103 108.634 75.1352 109.255C76.3443 110.67 79.3987 114.774 80.5918 116.604C81.085 117.367 81.8326 118.465 82.2304 119.037C82.6281 119.61 83.2803 120.676 83.678 121.423C84.0757 122.171 84.7121 123.316 85.078 123.969C85.4439 124.621 85.9847 125.591 86.2711 126.116C86.5574 126.641 87.0029 127.42 87.2574 127.866C87.8619 128.947 89.5323 132.335 89.9141 133.29C90.0732 133.719 90.4709 134.61 90.7731 135.262C91.2822 136.344 91.6163 137.235 92.5072 139.859C92.6662 140.337 92.8572 140.798 92.9367 140.893C93.1912 141.211 94.973 146.763 95.3389 148.385C95.5298 149.26 96.007 151.233 96.3729 152.76C97.1047 155.75 97.8206 160.013 98.1546 163.338C98.2183 164.038 98.2819 171.832 98.2819 180.676C98.2819 198.094 98.2342 197.108 99.125 198.826C100.477 201.45 104.836 202.739 108.288 201.562C108.813 201.371 109.975 200.798 110.865 200.257C113.824 198.508 114.333 198.221 116.02 197.299C118.231 196.106 120.235 194.96 123.894 192.781C125.04 192.097 126.79 191.111 127.792 190.586C128.794 190.045 129.733 189.536 129.86 189.441C129.987 189.345 130.242 189.186 130.417 189.091C130.592 188.995 131.451 188.502 132.326 187.993C133.201 187.484 134.569 186.705 135.348 186.275C136.144 185.83 137.146 185.257 137.576 184.987C138.021 184.701 138.912 184.207 139.564 183.858C140.216 183.523 141.266 182.951 141.871 182.585C142.491 182.219 143.843 181.456 144.893 180.915C147.455 179.579 148.584 178.895 148.696 178.608C148.823 178.258 148.409 178.306 146.627 178.863C141.712 180.374 139.421 180.756 135.221 180.756C131.88 180.756 129.924 180.549 127.983 180.04C125.947 179.499 122.256 178.099 121.635 177.638C121.365 177.431 121.079 177.256 121.031 177.256C120.458 177.256 115.797 173.454 114.62 172.039C114.429 171.8 113.936 171.212 113.538 170.734C113.14 170.257 112.679 169.605 112.52 169.287C112.361 168.985 112.106 168.635 111.979 168.523C111.836 168.396 111.724 168.205 111.724 168.078C111.724 167.951 111.486 167.553 111.2 167.187C109.656 165.215 107.604 159.743 106.809 155.464C105.997 151.058 105.918 150.151 105.918 145.284C105.918 139.955 105.982 138.619 106.459 134.944C107.095 130.013 108.797 122.632 110.054 119.356C110.34 118.608 110.738 117.463 110.929 116.81C111.12 116.158 111.47 115.22 111.677 114.743C112.393 113.2 113.156 111.339 113.156 111.179C113.156 111.1 113.283 110.734 113.443 110.384C113.602 110.018 113.904 109.302 114.111 108.778C114.477 107.823 115.208 106.328 117.69 101.46C119.09 98.7086 121.206 95.1614 123.624 91.5187C124.467 90.2462 125.215 89.1327 125.294 89.0532C125.358 88.9577 125.962 88.1465 126.647 87.2239C127.315 86.3013 128.206 85.1242 128.619 84.5993C129.033 84.0743 129.749 83.1836 130.178 82.6109C132.501 79.6364 139.119 72.8124 141.791 70.6331C144.718 68.263 145.705 67.4836 147.757 65.9724C149.555 64.6522 151.511 63.3637 151.75 63.3637C151.782 63.3637 152.227 63.0933 152.736 62.7434C153.229 62.4093 154.104 61.8844 154.677 61.5822C155.25 61.264 156.252 60.6914 156.904 60.3096C157.556 59.912 158.67 59.2916 159.37 58.9098C160.07 58.544 160.754 58.1463 160.881 58.035C161.009 57.9236 162.202 57.2396 163.506 56.5079C164.827 55.7921 166.608 54.7582 167.483 54.2173C168.358 53.6765 169.822 52.8494 170.745 52.3563C174.053 50.6224 177.171 48.6182 178.094 47.6479C178.953 46.7412 179.224 45.8027 179.144 44.0688C179.081 42.8122 178.969 42.3827 178.396 41.0147C178.046 40.1558 177.744 39.3763 177.744 39.2809C177.744 39.0264 176.44 37.4357 176.217 37.4357C176.106 37.4357 175.787 37.1494 175.501 36.7994C175.231 36.4654 174.722 35.9882 174.372 35.7655C173.831 35.4155 171.365 34.0794 169.87 33.3318C169.615 33.1886 169.138 32.8864 168.836 32.6478C168.517 32.4092 167.451 31.7888 166.449 31.2798C164.286 30.1504 162.774 29.3392 162.552 29.1642C162.297 28.9733 158.05 26.6191 157.954 26.6191C157.906 26.6191 157.413 26.3487 156.872 26.0146C156.316 25.6806 155.266 25.0761 154.518 24.6785C153.77 24.2808 152.704 23.6763 152.132 23.3264C151.559 22.9764 150.557 22.4515 149.905 22.1652C149.252 21.8789 148.68 21.5926 148.632 21.5289C148.584 21.4653 148.011 21.1154 147.359 20.7654C145.418 19.7315 144.591 19.2702 144.337 19.0634C144.209 18.9679 143.637 18.618 143.064 18.3158C142.491 17.9976 141.569 17.5045 140.996 17.1864C140.423 16.8842 139.532 16.3592 139.023 16.057C138.498 15.7389 138.005 15.4844 137.926 15.4844C137.862 15.4844 137.56 15.3094 137.273 15.0867C136.987 14.864 136.701 14.689 136.621 14.689C136.557 14.689 136.128 14.4186 135.682 14.1005C134.967 13.5915 132.151 12.1439 131.864 12.1439C131.801 12.1439 131.849 12.2394 131.96 12.3666Z" fill="#FF3B80"/>
<path d="M69.8696 14.5936C68.6605 14.8163 65.9243 16.1366 64.6834 17.1069C62.4722 18.793 60.8336 21.5608 60.1336 24.7103C60.0859 24.933 60.0223 29.2756 60.0064 34.3657C59.9746 44.6097 59.9268 44.1166 61.0086 44.6415C61.2949 44.7847 61.8517 45.1187 62.2495 45.3891C62.6472 45.6436 63.029 45.8663 63.0926 45.8663C63.1721 45.8663 63.4267 45.9936 63.6494 46.1527C63.888 46.3276 64.6198 46.6617 65.272 46.9003C65.9243 47.1548 66.6879 47.4729 66.9424 47.6161C67.5947 47.9819 69.8218 48.5387 74.2603 49.4613C76.1375 49.8589 83.8689 49.9703 85.587 49.6362C86.2711 49.4931 87.1461 49.3499 87.5438 49.2863C88.8642 49.0954 92.2208 48.2683 93.5889 47.791C98.9342 45.9618 103.182 42.6691 104.391 39.44C104.868 38.1675 104.995 35.7337 104.645 34.4294C103.77 31.0253 101.686 29.0529 95.1002 25.3307C94.1457 24.7899 93.0958 24.1854 92.7776 23.9786C92.4754 23.7718 92.1572 23.5969 92.0936 23.5969C92.0299 23.5969 91.6004 23.3583 91.155 23.0719C90.6936 22.7856 90.0096 22.3879 89.6118 22.1812C88.4824 21.5926 85.1416 19.6361 84.4416 19.1589C84.0916 18.9044 83.169 18.3635 82.3735 17.95C81.594 17.5364 80.7668 17.0751 80.5441 16.916C79.8282 16.4229 76.7738 14.9913 75.8988 14.7527C74.7534 14.4346 71.2059 14.3391 69.8696 14.5936Z" fill="#FF3B80"/>
<path d="M181.705 51.545C180.385 52.9448 178.587 54.2969 178.062 54.2969C177.983 54.2969 177.283 54.6627 176.519 55.1081C175.756 55.5535 174.34 56.3489 173.369 56.8738C172.415 57.3987 171.604 57.8918 171.572 57.9713C171.54 58.0509 171.445 58.1145 171.349 58.1145C171.27 58.1145 170.967 58.2736 170.697 58.4645C170.108 58.8939 170.41 58.719 166.736 60.8027C165.129 61.7094 163.649 62.5684 163.443 62.6957C163.22 62.8229 162.52 63.2047 161.868 63.5546C161.215 63.8887 160.5 64.2863 160.261 64.4454C159.72 64.7953 159.434 64.9703 158.034 65.7816C155.854 67.0382 155.488 67.2609 153.929 68.2471C152.02 69.4401 148.505 71.9534 147.359 72.9555C147.137 73.1464 146.596 73.5918 146.166 73.9417C145.721 74.2917 145.148 74.7848 144.878 75.0552C144.257 75.6756 141.203 78.4752 140.63 78.9683C140.391 79.1751 139.135 80.4794 137.846 81.8792C135.539 84.3607 134.012 86.2218 132.708 88.0988C132.342 88.6237 131.801 89.3077 131.515 89.6099C131.228 89.9121 130.433 90.9938 129.749 92.0118C129.065 93.014 128.237 94.1911 127.903 94.6364C127.569 95.0659 126.933 96.0203 126.487 96.7679C126.058 97.5156 125.565 98.3109 125.422 98.5336C125.04 99.154 123.894 101.079 123.194 102.288C122.431 103.624 120.745 107.012 120.204 108.3C119.997 108.825 119.536 109.827 119.201 110.527C118.883 111.227 118.549 111.975 118.486 112.198C118.422 112.42 118.136 113.088 117.849 113.709C116.958 115.617 116.704 116.222 116.338 117.367C116.147 117.972 115.749 119.101 115.447 119.849C114.556 122.155 111.947 133.354 111.661 136.137C111.613 136.567 111.454 137.998 111.311 139.303C111.104 141.148 111.072 142.436 111.152 145.268C111.2 147.24 111.279 149.117 111.327 149.419C111.375 149.722 111.438 150.326 111.486 150.771C111.677 152.776 111.756 153.237 111.884 153.237C111.963 153.237 111.995 153.348 111.947 153.476C111.884 153.603 111.915 153.81 112.011 153.921C112.106 154.016 112.249 154.573 112.345 155.146C112.631 156.848 113.156 158.979 113.331 159.202C113.395 159.297 113.777 160.252 114.174 161.318C115.495 164.928 117.913 168.332 120.713 170.544C121.317 171.037 121.858 171.466 121.906 171.514C122.431 172.102 125.119 173.518 127.076 174.25C128.746 174.87 132.119 175.459 134.473 175.538C137.289 175.634 142.38 174.822 145.45 173.773C147.407 173.12 151.384 171.387 153.086 170.448C155.059 169.382 159.688 166.726 160.086 166.44C160.309 166.281 160.945 165.931 161.502 165.644C162.074 165.358 163.347 164.658 164.318 164.069C165.304 163.497 166.847 162.59 167.738 162.065C168.629 161.54 169.933 160.761 170.649 160.347C171.349 159.918 172.59 159.234 173.369 158.82C176.837 157.007 180.019 154.621 180.687 153.348C180.83 153.062 181.133 152.521 181.355 152.124C182.055 150.851 182.405 149.849 182.549 148.544C182.755 146.731 182.899 131.445 182.708 131.254C182.485 131.031 181.562 131.461 180.83 132.113C180.099 132.765 178.301 133.99 178.078 133.99C177.999 133.99 177.903 134.038 177.871 134.117C177.856 134.181 177.362 134.467 176.79 134.769C176.217 135.071 175.644 135.405 175.501 135.517C175.374 135.644 175.215 135.74 175.167 135.74C175.103 135.74 174.356 136.153 173.497 136.662C172.638 137.171 171.826 137.632 171.699 137.696C171.572 137.76 171.206 137.966 170.904 138.157C170.601 138.332 170.204 138.571 170.029 138.666C169.854 138.762 169.313 139.096 168.836 139.414C168.358 139.716 167.006 140.496 165.845 141.132C164.668 141.768 163.252 142.564 162.695 142.913C162.138 143.248 160.834 143.979 159.8 144.504C158.781 145.045 157.875 145.538 157.779 145.602C157.7 145.665 157.016 145.936 156.268 146.222C155.52 146.508 154.757 146.811 154.566 146.89C153.898 147.145 152.211 147.479 150.62 147.67C149.252 147.829 148.855 147.829 147.757 147.606C147.057 147.463 146.277 147.304 146.007 147.256C145.196 147.113 144.448 146.842 143.7 146.429C143.303 146.206 142.794 145.92 142.555 145.809C141.791 145.411 139.373 143.168 138.657 142.182C137.862 141.084 136.669 138.698 136.382 137.648C136.287 137.251 136.096 136.614 135.985 136.217C135.714 135.342 135.571 133.958 135.492 131.111C135.412 128.979 135.555 127.738 136.382 123.571C136.764 121.63 137.623 118.831 138.291 117.367C138.53 116.842 138.848 116.047 139.023 115.617C139.516 114.281 141.728 110.018 142.3 109.302C142.603 108.921 143.319 107.903 143.891 107.012C145.18 105.039 147.232 102.638 149.602 100.347C152.895 97.1815 154.454 96.1476 163.506 91.1688C164.302 90.7234 165.018 90.3098 165.113 90.2303C165.224 90.1507 165.749 89.8644 166.306 89.594C166.863 89.3236 167.547 88.9418 167.801 88.7509C168.072 88.5601 168.788 88.1147 169.392 87.7806C170.013 87.4466 171.19 86.7626 172.017 86.2695C172.844 85.7764 174.578 84.7742 175.851 84.0584C178.381 82.6268 179.399 81.8792 179.987 81.0362C180.194 80.7339 180.449 80.4158 180.544 80.3044C180.878 79.9704 181.515 78.8569 181.864 77.9502C182.071 77.4571 182.294 77.0436 182.358 77.0436C182.421 77.0436 182.517 76.7731 182.564 76.4391C182.612 76.121 182.724 75.4211 182.819 74.8961C183.026 73.6713 183.074 50.5906 182.867 50.5111C182.787 50.4952 182.262 50.9565 181.705 51.545Z" fill="#FF3B80"/>
<path d="M26.2965 86.8581C22.0172 87.2558 18.1514 88.926 14.747 91.8051C9.9109 95.9249 6.06108 104.181 5.36111 111.959C5.31338 112.563 5.18612 113.216 5.07476 113.391C4.94749 113.613 4.88386 117.956 4.85204 129.027C4.82022 142.357 4.83613 144.393 5.04294 144.791C5.18612 145.045 5.32929 145.554 5.39293 145.936C5.45656 146.318 5.55201 146.699 5.61564 146.795C5.66337 146.874 5.80654 147.24 5.90199 147.606C6.1088 148.338 7.36556 150.294 8.1928 151.185C8.87686 151.917 9.81545 152.633 10.8336 153.189C11.979 153.81 17.8015 157.246 18.6605 157.802C19.0582 158.057 20.1241 158.645 21.0468 159.123C21.9694 159.584 23.0194 160.172 23.3853 160.411C24.6102 161.254 24.6898 161.111 24.3239 158.804C24.0057 156.832 24.0057 134.022 24.308 130.968C24.5148 128.916 24.992 127.15 25.7238 125.718C25.8511 125.496 26.1056 125.003 26.2965 124.605C29.0487 119.197 34.2825 116.699 40.805 117.669C43.8116 118.131 47.1683 119.515 49.7136 121.36C50.2704 121.742 50.9704 122.235 51.2886 122.457C52.6567 123.348 57.8905 128.534 58.8291 129.934C59.1314 130.363 59.72 131.222 60.1495 131.842C62.504 135.215 63.5857 137.06 64.922 140.114C65.272 140.893 65.7016 141.864 65.8765 142.261C66.322 143.216 67.181 145.92 67.181 146.333C67.181 146.508 67.3242 147.081 67.4992 147.59C67.6742 148.099 67.8174 148.72 67.8174 148.974C67.8174 149.244 67.881 149.403 67.9765 149.34C68.0719 149.292 68.1196 149.403 68.1196 149.61C68.1037 149.817 68.1833 150.66 68.2946 151.487C68.5332 153.269 68.5492 154.844 68.4855 170.019C68.4378 181.074 68.4378 181.519 68.756 182.696C68.931 183.364 69.2491 184.271 69.4718 184.717C70.1082 185.957 72.1126 188.248 73.2421 189.027C74.7852 190.093 76.1056 190.793 76.2965 190.666C76.4079 190.618 76.4397 190.618 76.3761 190.697C76.217 190.872 76.5192 191.079 78.2214 191.938C78.985 192.336 79.7009 192.734 79.8123 192.829C79.9077 192.924 80.7509 193.418 81.6736 193.927C82.5803 194.436 83.9803 195.247 84.7598 195.708C85.5552 196.169 86.6529 196.79 87.2256 197.092C87.7983 197.41 88.8323 197.999 89.5323 198.412C90.2323 198.842 91.1231 199.351 91.5208 199.558C92.5549 200.114 92.9844 200.369 93.4139 200.687C93.6207 200.846 93.8594 200.91 93.923 200.846C94.0662 200.687 93.8594 199.494 93.5253 198.635C93.398 198.253 93.2389 197.172 93.1912 196.169C93.1435 195.167 93.064 194.07 93.0162 193.704C92.9367 192.972 92.9208 191.095 92.9844 187.389C93.0162 186.021 92.9685 184.891 92.889 184.891C92.8094 184.891 92.8253 184.796 92.9208 184.685C93.1912 184.367 93.2389 166.98 92.9685 166.281C92.889 166.058 92.7299 164.722 92.6344 163.29C92.539 161.874 92.3958 160.363 92.3322 159.95C92.2526 159.536 92.0776 158.518 91.9345 157.691C91.5367 155.369 91.0436 152.983 90.6141 151.328C89.4528 146.827 89.1823 145.92 88.5778 144.409C88.2914 143.709 87.8619 142.564 87.6392 141.864C87.4006 141.164 87.0188 140.193 86.7961 139.716C86.5733 139.239 86.2552 138.476 86.0802 138.046C85.6666 136.996 84.3143 133.894 83.6144 132.399C83.3121 131.747 82.994 131.047 82.9144 130.856C82.8508 130.665 82.5485 130.156 82.2622 129.743C81.7372 128.995 81.419 128.438 80.1464 126.021C79.335 124.478 77.776 121.885 77.0919 120.93C76.8056 120.517 76.567 120.135 76.567 120.087C76.567 120.024 76.4397 119.785 76.2806 119.546C76.1056 119.308 75.6443 118.608 75.2466 118.004C74.833 117.383 74.1489 116.461 73.7353 115.92C73.3217 115.395 72.5899 114.425 72.0967 113.772C71.6036 113.12 70.7604 112.118 70.2195 111.529C69.6786 110.941 69.0264 110.193 68.7719 109.843C66.8629 107.187 58.4314 99.1381 55.9656 97.5952C55.6156 97.3725 55.0589 96.9589 54.7089 96.6567C54.1521 96.1476 53.4203 95.6545 49.6023 93.2049C47.7092 91.9801 42.9367 89.6736 40.6936 88.8941C39.9936 88.6555 39.2141 88.3692 38.9437 88.2579C38.021 87.8602 34.4257 87.1603 32.1508 86.9058C30.7191 86.7626 27.601 86.7308 26.2965 86.8581Z" fill="#FF3B80"/>
<path d="M161.12 98.47C160.945 98.5177 160.595 98.7086 160.325 98.9154C160.07 99.1062 159.497 99.4721 159.052 99.7266C158.622 99.9811 157.668 100.617 156.936 101.142C156.204 101.667 155.361 102.256 155.043 102.463C153.325 103.608 148.886 108.73 147.137 111.609C146.739 112.277 146.182 113.2 145.88 113.661C144.591 115.713 142.237 121.614 141.664 124.223C141.107 126.752 140.948 128.518 141.044 131.349C141.139 134.562 141.41 136.344 141.998 137.68C142.491 138.778 142.555 138.873 143.859 140.162C145.196 141.482 146.373 142.039 148.266 142.261C150.223 142.468 151.877 142.261 153.643 141.577C155.886 140.702 157.063 140.146 158.75 139.112C159.625 138.603 160.865 137.871 161.518 137.489C162.17 137.108 163.14 136.551 163.665 136.249C164.19 135.946 165.59 135.135 166.767 134.467C169.742 132.765 171.747 131.604 171.938 131.445C172.033 131.381 172.526 131.079 173.051 130.793C174.833 129.822 177.521 128.184 177.999 127.77C178.428 127.404 179.049 126.736 180.258 125.337C180.528 125.002 180.767 124.653 180.767 124.557C180.767 124.462 180.862 124.271 180.974 124.144C181.085 124 181.499 123.11 181.864 122.139C182.517 120.517 182.564 120.278 182.628 118.481C182.692 116.874 182.644 116.349 182.358 115.22C182.167 114.472 181.96 113.629 181.88 113.359C181.514 111.911 179.637 109.207 178.126 107.966C177.315 107.314 176.074 106.519 174.881 105.883C174.483 105.692 173.703 105.214 173.131 104.864C170.92 103.465 168.136 101.858 167.897 101.858C167.801 101.858 167.722 101.779 167.722 101.699C167.722 101.604 167.642 101.54 167.547 101.54C167.452 101.54 167.006 101.301 166.561 101.015C164.731 99.838 164.445 99.6789 164.079 99.5516C163.888 99.488 163.411 99.2335 163.029 98.979C162.313 98.5018 161.661 98.3268 161.12 98.47Z" fill="#FF3B80"/>
<path d="M37.7187 122.616C37.6869 122.648 37.3369 122.696 36.9551 122.728C34.8075 122.839 32.1349 124.764 31.0691 126.927C30.6873 127.707 29.8759 129.774 29.9555 129.774C29.9714 129.774 29.9396 129.886 29.9077 130.013C29.4464 131.508 29.4146 132.399 29.4464 145.156C29.4782 152.314 29.5578 158.47 29.6214 158.836C30.0191 160.777 31.3713 163.56 32.5803 164.96C33.9326 166.535 37.2733 168.46 39.2619 168.81C40.6141 169.048 42.8731 169.128 44.273 168.985C45.6729 168.841 47.7887 167.967 50.2545 166.519C53.1499 164.817 54.6771 163.926 56.2043 163.067C57.0315 162.59 58.1292 161.954 58.6223 161.652C59.1155 161.349 60.3564 160.649 61.3904 160.093L63.2358 159.059L63.1562 155.877C63.0608 151.885 62.854 150.708 61.5813 146.317C60.9768 144.234 59.4337 140.591 58.4474 138.969C57.9224 138.078 57.4769 137.298 57.4769 137.251C57.4769 137.203 57.2224 136.805 56.9202 136.376C56.6179 135.946 56.3634 135.533 56.3634 135.469C56.3634 135.39 56.077 134.96 55.727 134.499C55.377 134.037 55.0907 133.624 55.0907 133.56C55.0907 133.433 53.6271 131.89 51.5908 129.854C48.4092 126.673 44.8139 124.271 41.8867 123.332C40.7572 122.982 37.8619 122.473 37.7187 122.616Z" fill="#FF3B80"/>
</svg>
