<svg width="190" height="198" viewBox="0 0 190 198" fill="none" xmlns="http://www.w3.org/2000/svg">
<g clip-path="url(#clip0_49_1274)">
<rect width="190" height="198" fill="#70E23A"/>
<path d="M-41 99V241H95.5H232V99V-43H95.5H-41V99ZM143.665 41.2637C146.356 43.9555 148.54 46.4132 148.54 46.7253C148.54 47.5055 130.951 65.0604 130.171 65.0604C129.82 65.0604 123.385 58.8187 115.819 51.2115C108.253 43.6044 101.779 37.3626 101.428 37.3626C101.077 37.3626 94.447 43.6824 86.725 51.4066C79.003 59.1308 72.49 65.4505 72.295 65.4505C71.671 65.4505 53.77 47.3494 53.77 46.7253C53.77 45.945 63.091 36.6994 64.105 36.4654C64.534 36.3483 81.499 36.3093 101.818 36.3483L138.79 36.3874L143.665 41.2637ZM53.926 65.4505L63.325 74.8132L49.402 88.7401C41.758 96.4253 35.401 103.096 35.245 103.603C35.011 104.423 36.649 106.178 48.856 118.466C56.5 126.113 62.74 132.549 62.74 132.784C62.74 133.291 44.683 151.275 44.176 151.275C43.981 151.275 41.563 149.012 38.833 146.281L33.88 141.249V103.837C33.88 81.0159 34.036 66.1918 34.27 65.8407C34.894 64.8264 43.786 56.0879 44.215 56.0879C44.41 56.0879 48.778 60.3011 53.926 65.4505ZM163.633 61.3154L168.82 66.5038V103.447C168.82 130.521 168.703 140.625 168.391 141.249C167.923 142.107 158.758 151.275 158.212 151.392C158.056 151.431 153.883 147.452 148.969 142.497C143.041 136.646 139.96 133.291 139.96 132.745C139.96 132.237 144.601 127.322 153.805 118.115C161.41 110.508 167.65 103.993 167.65 103.681C167.65 103.33 161.41 96.8544 153.805 89.2472C144.367 79.8066 139.96 75.1643 139.96 74.5791C139.96 74.033 142.885 70.8731 148.852 64.9434C153.727 60.067 157.861 56.0879 158.095 56.0879C158.29 56.0879 160.786 58.4286 163.633 61.3154ZM108.37 65.6846C124.087 68.6494 135.943 80.3918 139.219 96.2302C140.779 103.72 139.726 112.888 136.567 119.676C132.706 127.907 125.725 135.085 118.12 138.674C112.114 141.483 107.902 142.419 101.155 142.458C96.865 142.458 95.461 142.302 91.99 141.405C76.468 137.387 65.665 125.605 62.935 109.767C62.155 105.125 62.194 101.419 63.13 96.5813C63.91 92.5242 64.339 91.2368 66.133 87.2967C69.799 79.2604 77.716 71.4972 85.672 68.1423C92.536 65.2555 101.194 64.3192 108.37 65.6846ZM85.555 155.215C92.653 162.315 99.127 168.596 100.024 169.22L101.623 170.351L115.624 156.307C123.307 148.622 129.859 142.302 130.21 142.302C130.756 142.302 148.93 160.13 148.93 160.715C148.93 161.379 139.258 170.546 138.244 170.819C136.879 171.209 64.807 171.248 63.832 170.858C62.74 170.429 53.77 161.34 53.77 160.676C53.77 159.896 71.32 142.302 72.1 142.302C72.412 142.302 78.496 148.115 85.555 155.215Z" fill="black"/>
</g>
<defs>
<clipPath id="clip0_49_1274">
<rect width="190" height="198" fill="white"/>
</clipPath>
</defs>
</svg>
