<svg width="201" height="209" viewBox="0 0 201 209" fill="none" xmlns="http://www.w3.org/2000/svg">
<path d="M0 104.5V209H100.5H201V104.5V8.58307e-06H100.5H0V104.5ZM127.387 55.6463C138.09 61.7856 151.403 69.4925 157.015 72.7581L167.065 78.6363L166.804 113.252L166.412 147.737L137.437 164.588L108.331 181.438L79.3558 164.718L50.25 147.868V112.991V78.1138L78.9643 61.3938C94.7571 52.25 107.809 44.6738 107.809 44.5431C107.94 44.4125 116.684 49.5069 127.387 55.6463Z" fill="white"/>
<path d="M102.066 50.6825C99.0643 52.6419 96.7149 54.6013 96.976 55.2544C97.1065 55.7769 105.721 61.2631 116.162 67.2719L135.088 78.1138L141.222 74.7175C144.746 72.7581 147.487 70.9294 147.487 70.5375C147.487 70.015 110.419 48.07 108.462 47.4169C107.94 47.2863 105.199 48.8538 102.066 50.6825Z" fill="white"/>
<path d="M72.8299 67.6636C62.1273 73.8029 53.513 79.2892 53.513 79.6811C53.513 80.0729 56.2539 81.9017 59.7779 83.8611L65.9123 87.2573L84.8377 76.2848C95.2792 70.2761 103.894 64.7898 104.155 64.1367C104.416 63.2223 93.8435 56.038 92.4078 56.2992C92.1468 56.2992 83.4019 61.3936 72.8299 67.6636Z" fill="white"/>
<path d="M85.8818 78.1137L66.5649 89.3475V97.0544V104.761L72.1773 101.626C75.1792 99.7975 84.3156 94.7031 92.2773 90.0006L107.026 81.6406V74.0644C107.026 70.015 106.634 66.6187 106.112 66.7494C105.46 66.7494 96.4539 71.9744 85.8818 78.1137Z" fill="white"/>
<path d="M109.636 74.0643C109.636 82.5549 107.94 80.7262 125.69 90.6537L134.435 95.6174V87.9106V80.3343L123.08 73.8031C116.945 70.1456 111.333 67.0106 110.681 66.8799C110.158 66.6187 109.636 69.8843 109.636 74.0643Z" fill="white"/>
<path d="M135.74 104.892V127.359L141.614 131.017C144.877 132.976 148.14 134.544 148.792 134.544C149.575 134.544 150.097 125.531 150.097 111.946V89.2168L143.702 85.8206C140.178 83.8612 137.045 82.2937 136.523 82.2937C136.132 82.2937 135.74 92.4825 135.74 104.892Z" fill="white"/>
<path d="M157.668 85.8206L151.403 89.2168V111.946C151.403 125.531 151.925 134.544 152.708 134.544C153.36 134.544 156.623 132.976 159.886 131.017L165.76 127.359V104.892C165.76 92.4825 165.368 82.2937 164.846 82.2937C164.193 82.2937 161.061 83.8612 157.668 85.8206Z" fill="white"/>
<path d="M95.0182 90.9148L82.2273 98.2298V112.99V127.751L95.2792 135.197L108.331 142.642L121.383 135.066L134.435 127.49V112.86V98.2298L121.514 90.9148C114.466 86.8655 108.331 83.5998 108.07 83.5998C107.94 83.7305 101.936 86.9961 95.0182 90.9148Z" fill="white"/>
<path d="M50.9026 123.179V145.908L57.2981 149.304C60.8221 151.264 63.9546 152.831 64.4766 152.831C64.8682 152.831 65.2597 142.643 65.2597 130.103V107.374L59.2558 103.978C55.8623 102.149 52.7299 100.581 52.0773 100.581C51.4247 100.581 50.9026 110.77 50.9026 123.179Z" fill="white"/>
<path d="M72.1773 104.108L66.5649 107.243V120.959C66.5649 129.319 67.087 134.544 67.8701 134.544C68.6532 134.544 71.5247 133.107 74.3961 131.278L79.6169 128.012V114.297C79.6169 106.721 79.2253 100.581 78.7032 100.712C78.0506 100.842 75.1792 102.279 72.1773 104.108Z" fill="white"/>
<path d="M75.3097 133.107C71.9162 134.936 69.1753 136.895 69.1753 137.287C69.1753 137.809 77.9201 143.165 88.7532 149.435L108.331 160.669L114.988 156.881L121.644 153.092L112.116 147.606C106.765 144.471 97.7591 139.246 92.0162 135.85L81.5747 129.711L75.3097 133.107Z" fill="white"/>
<path d="M122.166 137.287L110.681 144.079L117.337 147.867L123.993 151.786L135.74 144.994C142.136 141.206 147.095 137.679 146.704 137.026C145.921 135.719 136.393 130.625 134.827 130.625C134.305 130.625 128.562 133.629 122.166 137.287Z" fill="white"/>
<path d="M144.616 142.12L125.299 153.484V161.06V168.767L130.911 165.632C133.913 163.934 143.049 158.709 151.142 154.137L165.76 145.647V138.201C165.76 134.021 165.368 130.625 164.846 130.755C164.194 130.886 155.188 135.98 144.616 142.12Z" fill="white"/>
<path d="M66.5649 147.214V154.791L81.3136 163.151C89.2753 167.853 98.4117 173.078 101.544 174.776L107.026 177.911V170.204V162.497L87.8396 151.525C77.137 145.516 68.1312 140.422 67.6091 140.161C66.9565 139.899 66.5649 143.034 66.5649 147.214Z" fill="white"/>
</svg>
