<svg width="155" height="15" viewBox="0 0 155 15" fill="none" xmlns="http://www.w3.org/2000/svg">
<path d="M6.24 10.44L1.2 8.412V7.188L6.24 5.16V6.168L2.172 7.728V7.872L6.24 9.432V10.44ZM8.40141 12V3.6H11.6174C12.1214 3.6 12.5694 3.7 12.9614 3.9C13.3614 4.092 13.6774 4.368 13.9094 4.728C14.1414 5.088 14.2574 5.524 14.2574 6.036V6.192C14.2574 6.696 14.1374 7.132 13.8974 7.5C13.6654 7.86 13.3494 8.136 12.9494 8.328C12.5494 8.52 12.1054 8.616 11.6174 8.616H9.40941V12H8.40141ZM9.40941 7.704H11.5094C12.0454 7.704 12.4694 7.572 12.7814 7.308C13.0934 7.036 13.2494 6.656 13.2494 6.168V6.048C13.2494 5.56 13.0934 5.184 12.7814 4.92C12.4774 4.648 12.0534 4.512 11.5094 4.512H9.40941V7.704ZM15.6444 12V3.6H16.5924V12H15.6444ZM20.3858 12.168C19.9778 12.168 19.6058 12.096 19.2698 11.952C18.9338 11.808 18.6698 11.6 18.4778 11.328C18.2858 11.056 18.1898 10.724 18.1898 10.332C18.1898 9.932 18.2858 9.604 18.4778 9.348C18.6698 9.084 18.9338 8.888 19.2698 8.76C19.6058 8.624 19.9818 8.556 20.3978 8.556H22.3778V8.124C22.3778 7.708 22.2538 7.38 22.0058 7.14C21.7658 6.9 21.4058 6.78 20.9258 6.78C20.4538 6.78 20.0858 6.896 19.8218 7.128C19.5578 7.352 19.3778 7.656 19.2818 8.04L18.3938 7.752C18.4898 7.424 18.6418 7.128 18.8498 6.864C19.0578 6.592 19.3338 6.376 19.6778 6.216C20.0298 6.048 20.4498 5.964 20.9378 5.964C21.6898 5.964 22.2738 6.16 22.6898 6.552C23.1058 6.936 23.3138 7.48 23.3138 8.184V10.836C23.3138 11.076 23.4258 11.196 23.6498 11.196H24.1898V12H23.3618C23.0978 12 22.8858 11.928 22.7258 11.784C22.5658 11.632 22.4858 11.432 22.4858 11.184V11.124H22.3418C22.2538 11.276 22.1338 11.436 21.9818 11.604C21.8378 11.764 21.6378 11.896 21.3818 12C21.1258 12.112 20.7938 12.168 20.3858 12.168ZM20.4938 11.352C21.0538 11.352 21.5058 11.188 21.8498 10.86C22.2018 10.524 22.3778 10.056 22.3778 9.456V9.324H20.4338C20.0578 9.324 19.7458 9.408 19.4978 9.576C19.2578 9.736 19.1378 9.98 19.1378 10.308C19.1378 10.636 19.2618 10.892 19.5098 11.076C19.7658 11.26 20.0938 11.352 20.4938 11.352ZM28.0241 12.168C27.4561 12.168 26.9441 12.048 26.4881 11.808C26.0401 11.56 25.6841 11.208 25.4201 10.752C25.1641 10.296 25.0361 9.756 25.0361 9.132V9C25.0361 8.368 25.1641 7.828 25.4201 7.38C25.6841 6.924 26.0401 6.576 26.4881 6.336C26.9441 6.088 27.4561 5.964 28.0241 5.964C28.5841 5.964 29.0601 6.068 29.4521 6.276C29.8521 6.484 30.1641 6.76 30.3881 7.104C30.6201 7.448 30.7681 7.816 30.8321 8.208L29.9081 8.4C29.8681 8.112 29.7721 7.848 29.6201 7.608C29.4761 7.368 29.2721 7.176 29.0081 7.032C28.7441 6.888 28.4201 6.816 28.0361 6.816C27.6441 6.816 27.2921 6.904 26.9801 7.08C26.6761 7.256 26.4321 7.508 26.2481 7.836C26.0721 8.164 25.9841 8.556 25.9841 9.012V9.12C25.9841 9.576 26.0721 9.968 26.2481 10.296C26.4321 10.624 26.6761 10.876 26.9801 11.052C27.2921 11.228 27.6441 11.316 28.0361 11.316C28.6201 11.316 29.0641 11.164 29.3681 10.86C29.6801 10.556 29.8721 10.18 29.9441 9.732L30.8801 9.936C30.7921 10.32 30.6321 10.684 30.4001 11.028C30.1681 11.372 29.8521 11.648 29.4521 11.856C29.0601 12.064 28.5841 12.168 28.0241 12.168ZM35.184 12.168C34.592 12.168 34.072 12.044 33.624 11.796C33.176 11.54 32.828 11.184 32.58 10.728C32.332 10.272 32.208 9.744 32.208 9.144V9C32.208 8.392 32.332 7.86 32.58 7.404C32.828 6.948 33.172 6.596 33.612 6.348C34.052 6.092 34.556 5.964 35.124 5.964C35.676 5.964 36.164 6.084 36.588 6.324C37.012 6.556 37.344 6.892 37.584 7.332C37.824 7.772 37.944 8.288 37.944 8.88V9.312H33.156C33.18 9.944 33.384 10.44 33.768 10.8C34.152 11.152 34.632 11.328 35.208 11.328C35.712 11.328 36.1 11.212 36.372 10.98C36.644 10.748 36.852 10.472 36.996 10.152L37.812 10.548C37.692 10.796 37.524 11.044 37.308 11.292C37.1 11.54 36.824 11.748 36.48 11.916C36.144 12.084 35.712 12.168 35.184 12.168ZM33.168 8.532H36.984C36.952 7.988 36.764 7.564 36.42 7.26C36.084 6.956 35.652 6.804 35.124 6.804C34.588 6.804 34.148 6.956 33.804 7.26C33.46 7.564 33.248 7.988 33.168 8.532ZM39.5976 12V3.6H40.5456V7.068H40.7136C40.7936 6.892 40.9136 6.728 41.0736 6.576C41.2416 6.416 41.4536 6.284 41.7096 6.18C41.9736 6.076 42.3056 6.024 42.7056 6.024C43.1456 6.024 43.5376 6.12 43.8816 6.312C44.2336 6.496 44.5136 6.768 44.7216 7.128C44.9296 7.48 45.0336 7.92 45.0336 8.448V12H44.0856V8.52C44.0856 7.936 43.9376 7.512 43.6416 7.248C43.3536 6.984 42.9616 6.852 42.4656 6.852C41.8976 6.852 41.4336 7.036 41.0736 7.404C40.7216 7.772 40.5456 8.32 40.5456 9.048V12H39.5976ZM49.6689 12.168C49.0769 12.168 48.5529 12.044 48.0969 11.796C47.6489 11.548 47.2969 11.2 47.0409 10.752C46.7929 10.296 46.6689 9.76 46.6689 9.144V8.988C46.6689 8.38 46.7929 7.848 47.0409 7.392C47.2969 6.936 47.6489 6.584 48.0969 6.336C48.5529 6.088 49.0769 5.964 49.6689 5.964C50.2609 5.964 50.7809 6.088 51.2289 6.336C51.6849 6.584 52.0369 6.936 52.2849 7.392C52.5409 7.848 52.6689 8.38 52.6689 8.988V9.144C52.6689 9.76 52.5409 10.296 52.2849 10.752C52.0369 11.2 51.6849 11.548 51.2289 11.796C50.7809 12.044 50.2609 12.168 49.6689 12.168ZM49.6689 11.316C50.2929 11.316 50.7889 11.12 51.1569 10.728C51.5329 10.328 51.7209 9.792 51.7209 9.12V9.012C51.7209 8.34 51.5329 7.808 51.1569 7.416C50.7889 7.016 50.2929 6.816 49.6689 6.816C49.0529 6.816 48.5569 7.016 48.1809 7.416C47.8049 7.808 47.6169 8.34 47.6169 9.012V9.12C47.6169 9.792 47.8049 10.328 48.1809 10.728C48.5569 11.12 49.0529 11.316 49.6689 11.316ZM54.3749 12V3.6H55.3229V12H54.3749ZM59.8003 12.168C59.2963 12.168 58.8323 12.048 58.4083 11.808C57.9843 11.568 57.6483 11.22 57.4003 10.764C57.1523 10.308 57.0283 9.768 57.0283 9.144V8.988C57.0283 8.364 57.1523 7.828 57.4003 7.38C57.6483 6.924 57.9803 6.576 58.3963 6.336C58.8203 6.088 59.2883 5.964 59.8003 5.964C60.2083 5.964 60.5523 6.02 60.8323 6.132C61.1203 6.236 61.3523 6.372 61.5283 6.54C61.7043 6.7 61.8403 6.872 61.9363 7.056H62.1043V3.6H63.0523V12H62.1283V11.028H61.9603C61.8003 11.324 61.5523 11.588 61.2163 11.82C60.8803 12.052 60.4083 12.168 59.8003 12.168ZM60.0523 11.328C60.6603 11.328 61.1523 11.136 61.5283 10.752C61.9123 10.36 62.1043 9.816 62.1043 9.12V9.012C62.1043 8.316 61.9123 7.776 61.5283 7.392C61.1523 7 60.6603 6.804 60.0523 6.804C59.4523 6.804 58.9563 7 58.5643 7.392C58.1803 7.776 57.9883 8.316 57.9883 9.012V9.12C57.9883 9.816 58.1803 10.36 58.5643 10.752C58.9563 11.136 59.4523 11.328 60.0523 11.328ZM67.727 12.168C67.135 12.168 66.615 12.044 66.167 11.796C65.719 11.54 65.371 11.184 65.123 10.728C64.875 10.272 64.751 9.744 64.751 9.144V9C64.751 8.392 64.875 7.86 65.123 7.404C65.371 6.948 65.715 6.596 66.155 6.348C66.595 6.092 67.099 5.964 67.667 5.964C68.219 5.964 68.707 6.084 69.131 6.324C69.555 6.556 69.887 6.892 70.127 7.332C70.367 7.772 70.487 8.288 70.487 8.88V9.312H65.699C65.723 9.944 65.927 10.44 66.311 10.8C66.695 11.152 67.175 11.328 67.751 11.328C68.255 11.328 68.643 11.212 68.915 10.98C69.187 10.748 69.395 10.472 69.539 10.152L70.355 10.548C70.235 10.796 70.067 11.044 69.851 11.292C69.643 11.54 69.367 11.748 69.023 11.916C68.687 12.084 68.255 12.168 67.727 12.168ZM65.711 8.532H69.527C69.495 7.988 69.307 7.564 68.963 7.26C68.627 6.956 68.195 6.804 67.667 6.804C67.131 6.804 66.691 6.956 66.347 7.26C66.003 7.564 65.791 7.988 65.711 8.532ZM72.1405 12V6.132H73.0645V6.852H73.2325C73.3365 6.596 73.4965 6.408 73.7125 6.288C73.9285 6.168 74.2125 6.108 74.5645 6.108H75.2605V6.972H74.5045C74.0805 6.972 73.7365 7.092 73.4725 7.332C73.2165 7.564 73.0885 7.928 73.0885 8.424V12H72.1405ZM76.868 10.44V9.432L80.948 7.872V7.728L76.868 6.168V5.16L81.908 7.188V8.412L76.868 10.44ZM87.1514 12V3.6H88.1594V11.088H92.4074V12H87.1514ZM95.5382 12.168C95.1302 12.168 94.7582 12.096 94.4222 11.952C94.0862 11.808 93.8222 11.6 93.6302 11.328C93.4382 11.056 93.3422 10.724 93.3422 10.332C93.3422 9.932 93.4382 9.604 93.6302 9.348C93.8222 9.084 94.0862 8.888 94.4222 8.76C94.7582 8.624 95.1342 8.556 95.5502 8.556H97.5302V8.124C97.5302 7.708 97.4062 7.38 97.1582 7.14C96.9182 6.9 96.5582 6.78 96.0782 6.78C95.6062 6.78 95.2382 6.896 94.9742 7.128C94.7102 7.352 94.5302 7.656 94.4342 8.04L93.5462 7.752C93.6422 7.424 93.7942 7.128 94.0022 6.864C94.2102 6.592 94.4862 6.376 94.8302 6.216C95.1822 6.048 95.6022 5.964 96.0902 5.964C96.8422 5.964 97.4262 6.16 97.8422 6.552C98.2582 6.936 98.4662 7.48 98.4662 8.184V10.836C98.4662 11.076 98.5782 11.196 98.8022 11.196H99.3422V12H98.5142C98.2502 12 98.0382 11.928 97.8782 11.784C97.7182 11.632 97.6382 11.432 97.6382 11.184V11.124H97.4942C97.4062 11.276 97.2862 11.436 97.1342 11.604C96.9902 11.764 96.7902 11.896 96.5342 12C96.2782 12.112 95.9462 12.168 95.5382 12.168ZM95.6462 11.352C96.2062 11.352 96.6582 11.188 97.0022 10.86C97.3542 10.524 97.5302 10.056 97.5302 9.456V9.324H95.5862C95.2102 9.324 94.8982 9.408 94.6502 9.576C94.4102 9.736 94.2902 9.98 94.2902 10.308C94.2902 10.636 94.4142 10.892 94.6622 11.076C94.9182 11.26 95.2462 11.352 95.6462 11.352ZM103.893 12.168C103.285 12.168 102.809 12.052 102.465 11.82C102.129 11.588 101.885 11.324 101.733 11.028H101.565V12H100.641V3.6H101.589V7.056H101.757C101.853 6.872 101.989 6.7 102.165 6.54C102.341 6.372 102.569 6.236 102.849 6.132C103.137 6.02 103.485 5.964 103.893 5.964C104.405 5.964 104.869 6.088 105.285 6.336C105.709 6.576 106.045 6.924 106.293 7.38C106.541 7.828 106.665 8.364 106.665 8.988V9.144C106.665 9.768 106.537 10.308 106.281 10.764C106.033 11.22 105.697 11.568 105.273 11.808C104.857 12.048 104.397 12.168 103.893 12.168ZM103.641 11.328C104.249 11.328 104.741 11.136 105.117 10.752C105.501 10.36 105.693 9.816 105.693 9.12V9.012C105.693 8.316 105.501 7.776 105.117 7.392C104.741 7 104.249 6.804 103.641 6.804C103.041 6.804 102.545 7 102.153 7.392C101.769 7.776 101.577 8.316 101.577 9.012V9.12C101.577 9.816 101.769 10.36 102.153 10.752C102.545 11.136 103.041 11.328 103.641 11.328ZM110.727 12.168C109.999 12.168 109.383 12 108.879 11.664C108.383 11.328 108.083 10.796 107.979 10.068L108.879 9.864C108.943 10.248 109.063 10.552 109.239 10.776C109.415 10.992 109.631 11.148 109.887 11.244C110.151 11.332 110.431 11.376 110.727 11.376C111.167 11.376 111.515 11.288 111.771 11.112C112.027 10.936 112.155 10.7 112.155 10.404C112.155 10.1 112.031 9.888 111.783 9.768C111.543 9.64 111.211 9.536 110.787 9.456L110.295 9.372C109.919 9.308 109.575 9.208 109.263 9.072C108.951 8.936 108.703 8.752 108.519 8.52C108.335 8.288 108.243 7.996 108.243 7.644C108.243 7.116 108.447 6.704 108.855 6.408C109.263 6.112 109.803 5.964 110.475 5.964C111.139 5.964 111.675 6.116 112.083 6.42C112.499 6.716 112.767 7.136 112.887 7.68L111.999 7.908C111.927 7.484 111.755 7.188 111.483 7.02C111.211 6.844 110.875 6.756 110.475 6.756C110.075 6.756 109.759 6.832 109.527 6.984C109.295 7.128 109.179 7.344 109.179 7.632C109.179 7.912 109.287 8.12 109.503 8.256C109.727 8.384 110.023 8.48 110.391 8.544L110.883 8.628C111.299 8.7 111.671 8.8 111.999 8.928C112.335 9.048 112.599 9.224 112.791 9.456C112.991 9.688 113.091 9.992 113.091 10.368C113.091 10.944 112.875 11.388 112.443 11.7C112.019 12.012 111.447 12.168 110.727 12.168ZM121.205 14.82C120.437 14.82 119.773 14.684 119.213 14.412C118.661 14.14 118.237 13.712 117.941 13.128C117.645 12.552 117.497 11.804 117.497 10.884V6.996C117.497 6.068 117.645 5.316 117.941 4.74C118.237 4.164 118.661 3.74 119.213 3.468C119.773 3.196 120.437 3.06 121.205 3.06V3.888C120.253 3.896 119.549 4.16 119.093 4.68C118.637 5.192 118.409 5.984 118.409 7.056V10.824C118.409 11.888 118.637 12.68 119.093 13.2C119.549 13.72 120.253 13.984 121.205 13.992V14.82ZM121.888 12V11.1H123.064V4.5H121.888V3.6H125.164C126.268 3.6 127.12 3.88 127.72 4.44C128.328 5 128.632 5.86 128.632 7.02V8.58C128.632 9.748 128.328 10.612 127.72 11.172C127.12 11.724 126.268 12 125.164 12H121.888ZM124.072 11.088H125.164C125.98 11.088 126.596 10.888 127.012 10.488C127.428 10.088 127.636 9.468 127.636 8.628V6.984C127.636 6.128 127.428 5.504 127.012 5.112C126.596 4.72 125.98 4.524 125.164 4.524H124.072V11.088ZM133.289 12.168C132.289 12.168 131.489 11.88 130.889 11.304C130.297 10.72 130.001 9.872 130.001 8.76V6.84C130.001 5.728 130.297 4.884 130.889 4.308C131.489 3.724 132.289 3.432 133.289 3.432C134.297 3.432 135.097 3.724 135.689 4.308C136.289 4.884 136.589 5.728 136.589 6.84V8.76C136.589 9.872 136.289 10.72 135.689 11.304C135.097 11.88 134.297 12.168 133.289 12.168ZM133.289 11.268C134.017 11.268 134.581 11.052 134.981 10.62C135.381 10.18 135.581 9.572 135.581 8.796V6.804C135.581 6.028 135.381 5.424 134.981 4.992C134.581 4.552 134.017 4.332 133.289 4.332C132.569 4.332 132.009 4.552 131.609 4.992C131.209 5.424 131.009 6.028 131.009 6.804V8.796C131.009 9.572 131.209 10.18 131.609 10.62C132.009 11.052 132.569 11.268 133.289 11.268ZM138.305 12V6.132H139.229V6.852H139.397C139.501 6.596 139.661 6.408 139.877 6.288C140.093 6.168 140.377 6.108 140.729 6.108H141.425V6.972H140.669C140.245 6.972 139.901 7.092 139.637 7.332C139.381 7.564 139.253 7.928 139.253 8.424V12H138.305ZM142.329 9.096V8.928C142.329 8.312 142.453 7.784 142.701 7.344C142.949 6.904 143.285 6.564 143.709 6.324C144.133 6.084 144.597 5.964 145.101 5.964C145.717 5.964 146.189 6.084 146.517 6.324C146.853 6.556 147.101 6.816 147.261 7.104H147.429V6.132H148.329V13.368C148.329 13.688 148.241 13.94 148.065 14.124C147.889 14.308 147.633 14.4 147.297 14.4H143.313V13.56H147.045C147.285 13.56 147.405 13.44 147.405 13.2V10.968H147.237C147.141 11.144 147.005 11.316 146.829 11.484C146.653 11.652 146.425 11.792 146.145 11.904C145.865 12.008 145.517 12.06 145.101 12.06C144.597 12.06 144.133 11.94 143.709 11.7C143.285 11.46 142.949 11.12 142.701 10.68C142.453 10.232 142.329 9.704 142.329 9.096ZM145.353 11.22C145.961 11.22 146.453 11.028 146.829 10.644C147.213 10.26 147.405 9.732 147.405 9.06V8.964C147.405 8.284 147.213 7.756 146.829 7.38C146.453 6.996 145.961 6.804 145.353 6.804C144.753 6.804 144.257 6.996 143.865 7.38C143.481 7.756 143.289 8.284 143.289 8.964V9.06C143.289 9.732 143.481 10.26 143.865 10.644C144.257 11.028 144.753 11.22 145.353 11.22ZM149.404 14.82V13.992C150.372 13.984 151.08 13.72 151.528 13.2C151.976 12.68 152.2 11.888 152.2 10.824V7.056C152.2 5.984 151.976 5.192 151.528 4.68C151.08 4.16 150.372 3.896 149.404 3.888V3.06C150.18 3.06 150.844 3.196 151.396 3.468C151.948 3.74 152.372 4.164 152.668 4.74C152.972 5.316 153.124 6.068 153.124 6.996V10.884C153.124 11.804 152.972 12.552 152.668 13.128C152.372 13.712 151.948 14.14 151.396 14.412C150.844 14.684 150.18 14.82 149.404 14.82Z" fill="white"/>
</svg>
