<svg width="49" height="15" viewBox="0 0 49 15" fill="none" xmlns="http://www.w3.org/2000/svg">
<path d="M1.056 14.4V6.168H1.752V7.236H1.896C2.064 6.916 2.324 6.632 2.676 6.384C3.036 6.128 3.536 6 4.176 6C4.696 6 5.168 6.124 5.592 6.372C6.016 6.612 6.352 6.956 6.6 7.404C6.856 7.852 6.984 8.388 6.984 9.012V9.156C6.984 9.772 6.86 10.308 6.612 10.764C6.364 11.212 6.028 11.56 5.604 11.808C5.18 12.048 4.704 12.168 4.176 12.168C3.752 12.168 3.388 12.112 3.084 12C2.788 11.88 2.544 11.728 2.352 11.544C2.168 11.36 2.024 11.172 1.92 10.98H1.776V14.4H1.056ZM4.008 11.52C4.672 11.52 5.208 11.308 5.616 10.884C6.032 10.46 6.24 9.876 6.24 9.132V9.036C6.24 8.292 6.032 7.708 5.616 7.284C5.208 6.86 4.672 6.648 4.008 6.648C3.352 6.648 2.816 6.86 2.4 7.284C1.984 7.708 1.776 8.292 1.776 9.036V9.132C1.776 9.876 1.984 10.46 2.4 10.884C2.816 11.308 3.352 11.52 4.008 11.52ZM8.81381 12V6.168H9.50981V6.9H9.65381C9.76581 6.636 9.92981 6.444 10.1458 6.324C10.3698 6.204 10.6778 6.144 11.0698 6.144H11.7538V6.816H10.9858C10.5458 6.816 10.1938 6.94 9.92981 7.188C9.66581 7.436 9.53381 7.824 9.53381 8.352V12H8.81381ZM13.2435 12V6.168H13.9635V12H13.2435ZM13.6035 5.16C13.4275 5.16 13.2795 5.1 13.1595 4.98C13.0395 4.86 12.9795 4.712 12.9795 4.536C12.9795 4.352 13.0395 4.204 13.1595 4.092C13.2795 3.972 13.4275 3.912 13.6035 3.912C13.7875 3.912 13.9355 3.972 14.0475 4.092C14.1675 4.204 14.2275 4.352 14.2275 4.536C14.2275 4.712 14.1675 4.86 14.0475 4.98C13.9355 5.1 13.7875 5.16 13.6035 5.16ZM17.6634 12L15.4794 6.168H16.2474L18.1674 11.448H18.3114L20.2314 6.168H20.9994L18.8154 12H17.6634ZM22.297 12V3.6H23.809V6.78H24.025C24.089 6.652 24.189 6.524 24.325 6.396C24.461 6.268 24.641 6.164 24.865 6.084C25.097 5.996 25.389 5.952 25.741 5.952C26.205 5.952 26.609 6.06 26.953 6.276C27.305 6.484 27.577 6.776 27.769 7.152C27.961 7.52 28.057 7.952 28.057 8.448V12H26.545V8.568C26.545 8.12 26.433 7.784 26.209 7.56C25.993 7.336 25.681 7.224 25.273 7.224C24.809 7.224 24.449 7.38 24.193 7.692C23.937 7.996 23.809 8.424 23.809 8.976V12H22.297ZM32.5236 12.168C31.9316 12.168 31.3996 12.048 30.9276 11.808C30.4556 11.568 30.0836 11.22 29.8116 10.764C29.5396 10.308 29.4036 9.76 29.4036 9.12V8.928C29.4036 8.288 29.5396 7.74 29.8116 7.284C30.0836 6.828 30.4556 6.48 30.9276 6.24C31.3996 6 31.9316 5.88 32.5236 5.88C33.1156 5.88 33.6476 6 34.1196 6.24C34.5916 6.48 34.9636 6.828 35.2356 7.284C35.5076 7.74 35.6436 8.288 35.6436 8.928V9.12C35.6436 9.76 35.5076 10.308 35.2356 10.764C34.9636 11.22 34.5916 11.568 34.1196 11.808C33.6476 12.048 33.1156 12.168 32.5236 12.168ZM32.5236 10.824C32.9876 10.824 33.3716 10.676 33.6756 10.38C33.9796 10.076 34.1316 9.644 34.1316 9.084V8.964C34.1316 8.404 33.9796 7.976 33.6756 7.68C33.3796 7.376 32.9956 7.224 32.5236 7.224C32.0596 7.224 31.6756 7.376 31.3716 7.68C31.0676 7.976 30.9156 8.404 30.9156 8.964V9.084C30.9156 9.644 31.0676 10.076 31.3716 10.38C31.6756 10.676 32.0596 10.824 32.5236 10.824ZM39.5112 12.168C38.7352 12.168 38.0992 12 37.6032 11.664C37.1072 11.328 36.8072 10.848 36.7032 10.224L38.0952 9.864C38.1512 10.144 38.2432 10.364 38.3712 10.524C38.5072 10.684 38.6712 10.8 38.8632 10.872C39.0632 10.936 39.2792 10.968 39.5112 10.968C39.8632 10.968 40.1232 10.908 40.2912 10.788C40.4592 10.66 40.5432 10.504 40.5432 10.32C40.5432 10.136 40.4632 9.996 40.3032 9.9C40.1432 9.796 39.8872 9.712 39.5352 9.648L39.1992 9.588C38.7832 9.508 38.4032 9.4 38.0592 9.264C37.7152 9.12 37.4392 8.924 37.2312 8.676C37.0232 8.428 36.9192 8.108 36.9192 7.716C36.9192 7.124 37.1352 6.672 37.5672 6.36C37.9992 6.04 38.5672 5.88 39.2712 5.88C39.9352 5.88 40.4872 6.028 40.9272 6.324C41.3672 6.62 41.6552 7.008 41.7912 7.488L40.3872 7.92C40.3232 7.616 40.1912 7.4 39.9912 7.272C39.7992 7.144 39.5592 7.08 39.2712 7.08C38.9832 7.08 38.7632 7.132 38.6112 7.236C38.4592 7.332 38.3832 7.468 38.3832 7.644C38.3832 7.836 38.4632 7.98 38.6232 8.076C38.7832 8.164 38.9992 8.232 39.2712 8.28L39.6072 8.34C40.0552 8.42 40.4592 8.528 40.8192 8.664C41.1872 8.792 41.4752 8.98 41.6832 9.228C41.8992 9.468 42.0072 9.796 42.0072 10.212C42.0072 10.836 41.7792 11.32 41.3232 11.664C40.8752 12 40.2712 12.168 39.5112 12.168ZM45.495 12C45.103 12 44.783 11.88 44.535 11.64C44.295 11.392 44.175 11.064 44.175 10.656V7.296H42.687V6.048H44.175V4.2H45.687V6.048H47.319V7.296H45.687V10.392C45.687 10.632 45.799 10.752 46.023 10.752H47.175V12H45.495Z" fill="white"/>
</svg>
