<svg width="335" height="352" viewBox="0 0 335 352" fill="none" xmlns="http://www.w3.org/2000/svg">
<g clip-path="url(#clip0_23_4335)">
<rect width="335" height="352" fill="white"/>
<mask id="mask0_23_4335" style="mask-type:luminance" maskUnits="userSpaceOnUse" x="0" y="0" width="335" height="352">
<path d="M335 0H0V352H335V0Z" fill="white"/>
</mask>
<g mask="url(#mask0_23_4335)">
<path d="M315.546 135.406C315.747 134.66 315.488 134.192 315.588 133.819C315.329 133.351 315.429 132.978 315.17 132.509V132.345C315.17 132.345 314.912 132.041 314.553 131.944L210.42 24.1955C210.061 24.0995 209.803 23.6308 209.803 23.6308L209.444 23.5348L209.085 23.4388C208.726 23.3429 208.726 23.3429 208.367 23.2469L208.009 23.1509L207.65 23.055C207.291 22.959 206.832 23.2358 206.832 23.2358L62.6793 64.576C62.6793 64.576 62.6793 64.576 62.32 64.4797C62.32 64.4797 62.32 64.4797 61.8614 64.7567C61.4028 65.0336 60.9436 65.31 60.8437 65.6828C60.3851 65.9598 60.2846 66.3326 60.1847 66.7054L60.0847 67.0775L59.9848 67.4503L19.9647 216.54C19.8646 216.912 19.7646 217.285 19.6645 217.658L19.5645 218.031L19.4644 218.403C19.4644 218.403 19.3644 218.776 19.7232 218.872C19.7232 218.872 19.7232 218.872 19.982 219.341C19.982 219.341 19.8819 219.713 20.2407 219.809C20.4994 220.278 20.4994 220.278 20.7582 220.747L124.891 328.496C124.891 328.496 124.891 328.496 125.25 328.592L125.609 328.687C125.968 328.784 126.226 329.252 126.585 329.348C126.944 329.444 127.302 329.54 127.762 329.263L128.12 329.359L128.479 329.455L272.632 288.115C272.991 288.211 273.091 287.839 273.55 287.562C273.55 287.562 273.55 287.562 274.009 287.285C274.009 287.285 274.009 287.285 274.467 287.008L274.927 286.731L275.026 286.359L275.126 285.986C275.226 285.613 275.327 285.241 275.427 284.868L315.546 135.406ZM315.546 135.406C315.447 135.779 315.447 135.779 315.546 135.406ZM304.683 132.9L242.618 150.655L214.612 40.0974L304.683 132.9ZM205.725 34.5246L234.683 150.131L122.739 120.189L205.725 34.5246ZM195.237 34.9152L115.605 116.682L70.7487 70.3298L195.237 34.9152ZM65.3598 76.0789L110.216 122.432L30.9425 204.295L65.3598 76.0789ZM113.638 129.739L142.596 245.345L30.6526 215.403L113.638 129.739ZM125.898 317.58L35.8276 224.777L143.107 253.471L125.898 317.58ZM149.697 243.25L120.738 127.643L232.323 157.489L149.697 243.25ZM133.074 319.499L150.283 255.391L257.563 284.084L133.074 319.499ZM154.796 248.608L237.781 162.943L266.74 278.549L154.796 248.608ZM272.053 268.785L244.405 158.323L306.47 140.568L272.053 268.785Z" stroke="black" stroke-width="20" stroke-linejoin="round"/>
</g>
</g>
<defs>
<clipPath id="clip0_23_4335">
<rect width="335" height="352" fill="white"/>
</clipPath>
</defs>
</svg>
