<svg width="382" height="113" viewBox="0 0 382 113" fill="none" xmlns="http://www.w3.org/2000/svg">
<g clip-path="url(#clip0_23_4727)">
<path d="M71.812 69.2419C71.2581 70.3496 70.4273 71.1806 69.5963 71.4575C69.0424 71.7344 68.4885 71.7344 68.2113 71.7344H24.1726C30.266 84.4743 43.8377 93.0598 59.0714 91.952C74.8588 90.8442 88.4304 78.9352 91.4772 63.1488C92.3081 58.1638 92.3081 53.4555 91.4772 49.0243H55.1936L70.7042 64.5336C70.9812 64.8105 71.2581 65.3644 71.5351 65.9184C71.812 66.4723 71.812 67.0261 71.812 67.3031C72.089 68.411 71.812 68.9648 71.812 69.2419Z" fill="url(#paint0_radial_23_4727)"/>
<path d="M100.063 49.3008C100.34 51.5165 100.617 54.0091 100.617 56.5016C100.617 80.8735 80.9523 100.537 56.5787 100.537C36.6365 100.537 19.7413 87.2433 14.2018 68.9645C14.2018 68.6876 14.2018 68.6876 13.9248 68.4107C11.709 60.6559 11.432 52.0704 14.2018 43.2079C20.0182 26.3137 34.9748 14.1278 52.701 12.4661C66.5497 11.3583 79.0135 16.6204 87.8766 25.4829C90.3694 28.2524 88.7076 32.6837 84.8299 32.6837C83.722 32.6837 82.6142 32.1297 81.7832 31.2989C74.8589 24.0981 64.6108 19.9439 53.2549 20.7747C37.7445 22.1595 24.4498 34.0684 21.403 49.5779C20.5721 54.5629 20.5721 59.2712 21.403 63.7024H57.6866L42.176 48.1931C41.899 47.9161 41.6221 47.3621 41.3451 46.8083C41.0682 46.2544 41.0682 45.7005 41.0682 45.4235C41.0682 44.8696 41.0682 44.3157 41.3451 44.0388C41.899 42.9309 42.4531 42.1001 43.5609 41.8231C44.1148 41.5461 44.6688 41.5461 44.9458 41.5461H88.7076H97.8477H110.865C104.218 17.1742 82.0601 -0.273702 56.0248 0.00325072C26.3886 0.280203 1.73797 24.0981 0.0761263 53.4552C-1.58571 86.1356 24.1728 113 56.5787 113C87.8766 113 113.081 87.7973 113.081 56.5016C113.081 54.0091 112.804 51.7935 112.527 49.3008H100.063Z" fill="url(#paint1_radial_23_4727)"/>
<path d="M159.531 41.5457L155.099 44.0382C154.268 42.6534 153.438 41.8226 152.884 41.2688C152.053 40.7147 151.222 40.4378 149.837 40.4378C148.452 40.4378 147.067 40.9918 146.236 41.8226C145.128 42.6534 144.851 43.7613 144.851 44.8692C144.851 46.5307 146.236 47.9156 148.729 49.0234L152.33 50.4081C155.376 51.516 157.315 52.9008 158.7 54.8394C160.085 56.5012 160.639 58.7168 160.639 61.2093C160.639 64.5328 159.531 67.3022 157.315 69.518C155.099 71.7336 152.33 72.8413 149.006 72.8413C145.959 72.8413 143.19 72.0105 141.251 70.0718C139.312 68.1332 137.927 65.6406 137.65 62.3172L143.19 61.2093C143.467 63.4249 143.744 64.8097 144.574 65.6406C145.682 67.3022 147.344 67.8562 149.56 67.8562C151.222 67.8562 152.607 67.3022 153.715 66.1945C154.823 65.0866 155.376 63.7018 155.376 61.7631C155.376 60.9324 155.376 60.3785 155.099 59.8245C154.823 59.2706 154.545 58.7168 154.268 58.1629C153.992 57.6089 153.438 57.332 152.607 56.7781C152.053 56.2242 151.222 55.9471 150.391 55.6702L147.067 54.2856C142.082 52.3469 139.589 49.3004 139.589 45.1461C139.589 42.3765 140.697 40.1609 142.636 38.4991C144.574 36.5605 147.344 35.7297 150.391 35.7297C153.992 35.4528 157.038 37.3914 159.531 41.5457Z" fill="white"/>
<path d="M174.765 49.3003V62.3171C174.765 66.1944 176.15 67.8562 179.196 67.8562C182.243 67.8562 183.627 65.9175 183.627 62.3171V49.3003H188.889V62.3171C188.889 64.2558 188.612 65.6406 188.336 67.0252C187.782 68.1331 187.228 69.2408 186.12 70.0718C184.458 71.7335 182.243 72.2874 179.473 72.2874C176.704 72.2874 174.488 71.4566 172.826 70.0718C171.719 69.2408 170.886 68.1331 170.609 67.0252C170.055 65.9175 170.055 64.5327 170.055 62.3171V49.3003H174.765Z" fill="white"/>
<path d="M204.123 32.6835V51.7932C206.339 49.5776 208.554 48.4697 211.326 48.4697C214.372 48.4697 216.865 49.5776 218.803 51.7932C220.742 54.0088 221.85 56.7784 221.85 60.3787C221.85 63.9791 220.742 66.7487 218.803 68.9643C216.865 71.1799 214.095 72.2877 211.049 72.2877C208.554 72.2877 206.062 71.1799 204.123 69.2412V72.0108H198.861V32.6835H204.123ZM216.588 60.6557C216.588 58.44 216.034 56.7784 214.926 55.3936C213.818 54.0088 212.156 53.178 210.495 53.178C208.554 53.178 206.893 53.7319 205.785 55.1167C204.677 56.5013 204.123 58.1631 204.123 60.3787C204.123 62.5944 204.677 64.256 205.785 65.6408C206.893 67.0256 208.554 67.5795 210.495 67.5795C212.433 67.5795 213.818 67.0256 214.926 65.6408C216.034 64.5331 216.588 62.8713 216.588 60.6557Z" fill="white"/>
<path d="M268.382 72.5643H261.457L258.687 69.7946C255.641 71.7333 252.317 72.5643 248.717 72.5643C244.007 72.5643 239.853 70.9025 235.976 67.856C232.098 64.2556 229.883 59.8244 229.883 54.2853C229.883 49.0232 231.821 44.3151 235.699 40.7147C239.299 37.1143 243.73 35.4525 248.717 35.4525C253.148 35.4525 257.302 37.1143 260.903 40.1608C265.336 43.7612 267.274 48.7463 267.274 54.5623C267.274 59.2705 265.613 63.4248 262.011 67.0252L268.382 72.5643ZM253.702 57.6088L258.964 62.8709C261.18 60.3782 262.288 57.6088 262.288 54.0084C262.288 50.1311 260.903 46.8076 258.41 44.3151C255.918 41.8224 252.594 40.4377 248.994 40.4377C245.115 40.4377 242.069 41.8224 239.576 44.3151C237.084 46.8076 235.976 50.1311 235.976 54.0084C235.976 57.8857 237.36 60.9323 239.853 63.4248C242.623 65.9173 245.669 67.3021 248.994 67.3021C251.21 67.3021 253.425 66.7483 255.364 65.6404L247.055 57.3319H253.702V57.6088Z" fill="white"/>
<path d="M282.23 49.3003V62.3171C282.23 66.1944 283.614 67.8562 286.662 67.8562C289.709 67.8562 291.094 65.9175 291.094 62.3171V49.3003H296.356V62.3171C296.356 64.2558 296.079 65.6406 295.802 67.0252C295.248 68.1331 294.694 69.2408 293.586 70.0718C291.924 71.7335 289.709 72.2874 286.939 72.2874C284.168 72.2874 281.953 71.4566 280.291 70.0718C279.183 69.2408 278.352 68.1331 278.075 67.0252C277.521 65.9175 277.521 64.5327 277.521 62.3171V49.3003H282.23Z" fill="white"/>
<path d="M327.1 61.7631H311.036C311.312 63.7018 311.866 65.0866 312.974 66.1945C314.082 67.3022 315.467 67.8561 317.128 67.8561C318.513 67.8561 319.621 67.5791 320.452 67.0253C321.283 66.4714 322.114 65.3635 323.221 63.7018L327.654 66.1945C327.1 67.3022 326.269 68.4101 325.439 69.2409C324.608 70.0718 323.775 70.6257 322.944 71.1795C322.114 71.7334 321.006 72.0105 320.175 72.2874C319.067 72.5643 317.959 72.5643 316.851 72.5643C313.528 72.5643 310.759 71.4565 308.82 69.2409C306.881 67.0253 305.773 64.2558 305.773 60.6554C305.773 57.055 306.881 54.2854 308.82 52.0698C310.759 49.8542 313.528 48.7463 316.851 48.7463C320.175 48.7463 322.944 49.8542 324.608 51.7929C326.546 54.0085 327.377 56.7781 327.377 60.6554L327.1 61.7631ZM321.837 57.6089C321.006 54.8394 319.344 53.4546 316.575 53.4546C316.021 53.4546 315.467 53.4546 314.913 53.7316C314.359 54.0085 313.805 54.2854 313.528 54.5623C312.974 54.8394 312.697 55.3933 312.42 55.9471C312.143 56.501 311.866 57.055 311.589 57.6089H321.837Z" fill="white"/>
<path d="M336.517 49.3004H341.78V51.239C342.611 50.1311 343.719 49.5773 344.273 49.3004C345.104 49.0233 345.934 48.7463 347.042 48.7463C348.427 48.7463 349.812 49.3004 351.473 50.1311L348.981 54.8394C347.873 54.0085 347.042 53.7315 346.211 53.7315C343.442 53.7315 342.057 55.9471 342.057 60.1014V72.0105H336.794V49.3004H336.517Z" fill="white"/>
<path d="M366.984 67.5792L356.735 49.3003H362.83L369.754 62.3171L376.124 49.3003H381.941L363.938 84.1963H357.843L366.984 67.5792Z" fill="white"/>
</g>
<defs>
<radialGradient id="paint0_radial_23_4727" cx="0" cy="0" r="1" gradientUnits="userSpaceOnUse" gradientTransform="translate(9.19526 -0.692625) scale(125.889 125.879)">
<stop offset="0.475" stop-color="#4388DD"/>
<stop offset="0.9988" stop-color="#FF4581"/>
</radialGradient>
<radialGradient id="paint1_radial_23_4727" cx="0" cy="0" r="1" gradientUnits="userSpaceOnUse" gradientTransform="translate(9.19539 -0.693007) scale(125.889 125.879)">
<stop offset="0.475" stop-color="#4388DD"/>
<stop offset="0.9988" stop-color="#FF4581"/>
</radialGradient>
<clipPath id="clip0_23_4727">
<rect width="382" height="113" fill="white"/>
</clipPath>
</defs>
</svg>
