<svg width="276" height="130" viewBox="0 0 276 130" fill="none" xmlns="http://www.w3.org/2000/svg">
<g clip-path="url(#clip0_23_4764)">
<path fill-rule="evenodd" clip-rule="evenodd" d="M31.4654 78.7813C31.4654 87.4834 38.5091 94.5376 47.1981 94.5376H78.6633C87.3524 94.5376 94.3959 87.4834 94.3959 78.7813V15.7563C94.3959 7.05434 101.44 0 110.129 0C118.818 0 125.861 7.05434 125.861 15.7563V78.7813C125.861 87.4834 132.905 94.5376 141.595 94.5376H173.06C181.748 94.5376 188.793 87.4834 188.793 78.7813V15.7563C188.793 7.05434 195.836 0 204.525 0C213.214 0 220.258 7.05434 220.258 15.7563V110.294C220.258 118.996 213.214 126.05 204.525 126.05H15.7327C7.04377 126.05 0 118.996 0 110.294L5.55699e-06 15.7563C6.1708e-06 7.05434 7.04377 0 15.7327 0C24.4216 0 31.4654 7.05434 31.4654 15.7563V78.7813ZM254.72 129.802C266.305 129.802 275.697 120.396 275.697 108.794C275.697 97.1908 266.305 87.7855 254.72 87.7855C243.135 87.7855 233.743 97.1908 233.743 108.794C233.743 120.396 243.135 129.802 254.72 129.802Z" fill="#F3F4F6"/>
</g>
<defs>
<clipPath id="clip0_23_4764">
<rect width="276" height="130" fill="white"/>
</clipPath>
</defs>
</svg>
