<?xml version="1.0" encoding="UTF-8"?>
<svg width="1118px" height="243px" viewBox="0 0 1118 243" version="1.1" xmlns="http://www.w3.org/2000/svg" xmlns:xlink="http://www.w3.org/1999/xlink">
    <title>edgeware-dark-logotype@2x</title>
    <g id="Site" stroke="none" stroke-width="1" fill="none" fill-rule="evenodd">
        <g id="Edgeware-V3---Press-(Desktop)" transform="translate(-146.000000, -2026.000000)" fill="#151515">
            <g id="EDG_Logo_Outline_Horizontal_Color" transform="translate(146.000000, 2026.000000)">
                <path d="M589.609496,92.7079118 C609.083233,92.7079118 618.866248,102.031436 623.757755,110.427247 L623.711118,110.348471 L623.711609,95.2127392 L636.678718,95.2127392 L636.678718,205.100447 C636.678718,214.795057 631.325747,220.129412 621.542733,220.129412 L621.542733,220.129412 L561.367963,220.129412 L561.367963,207.466117 L619.466149,207.466117 C622.419512,207.466117 623.434731,206.445632 623.434731,203.662491 L623.434731,203.662491 L623.434731,168.641292 C614.759227,183.391943 598.608024,185.664842 589.609496,185.664842 C564.367472,185.664842 546.739587,167.017793 546.739587,140.253248 L546.739587,140.253248 L546.739587,138.119506 C546.739587,111.401346 564.367472,92.7079118 589.609496,92.7079118 Z M532.295796,57.1764706 L532.295796,184.597971 L518.959517,184.597971 L518.959517,169.337077 C514.114156,177.732888 504.284995,187.056412 484.811258,187.056412 C459.569234,187.056412 441.941349,168.131049 441.941349,140.949033 L441.941349,140.949033 L441.941349,138.815291 C441.941349,111.67966 459.569234,92.7079118 484.811258,92.7079118 C493.855932,92.7079118 509.960989,94.9344251 518.636493,109.731461 L518.636493,109.731461 L518.636493,57.1764706 L532.295796,57.1764706 Z M695.192221,92.7079118 C720.757269,92.7079118 737.923691,110.334475 737.877638,136.449621 L737.877638,136.449621 L737.877638,143.685789 L664.781812,143.685789 C666.027762,162.657538 678.025799,174.346732 696.392025,174.346732 C709.543719,174.346732 718.265369,168.594906 723.802925,156.256312 L723.802925,156.256312 L724.448973,154.864741 L736.81618,160.384639 L736.170132,161.822595 C728.232969,178.799759 715.26586,187.056412 696.438171,187.056412 C669.304149,187.056412 651.076362,168.548521 651.076362,140.949033 L651.076362,140.949033 L651.076362,138.815291 C651.076362,111.67966 669.211856,92.7079118 695.192221,92.7079118 Z M1075.06853,92.7079118 C1100.63358,92.7079118 1117.8,110.334475 1117.8,136.542392 L1117.8,136.542392 L1117.75385,136.542392 L1117.75385,143.685789 L1044.65812,143.685789 C1045.90407,162.657538 1057.90211,174.346732 1076.26833,174.346732 C1089.42003,174.346732 1098.14168,168.594906 1103.67923,156.256312 L1103.67923,156.256312 L1104.32528,154.864741 L1116.69249,160.384639 L1116.04644,161.822595 C1108.10928,178.799759 1095.14217,187.056412 1076.31448,187.056412 C1049.18046,187.056412 1030.95267,168.548521 1030.95267,140.949033 L1030.95267,140.949033 L1030.95267,138.815291 C1030.95267,111.67966 1049.08817,92.7079118 1075.06853,92.7079118 Z M920.893755,92.7079118 C943.182416,92.7079118 956.518695,105.371206 956.518695,126.569468 L956.518695,126.569468 L956.518695,168.502135 C956.518695,171.146119 957.533914,172.305762 959.979668,172.166605 L959.979668,172.166605 L968.839756,172.166605 L968.839756,184.505199 L956.980158,184.505199 C949.273727,184.505199 944.151488,179.634701 943.643879,171.981062 C939.259981,178.89253 931.276672,187.010027 913.325762,187.010027 C893.159831,187.010027 879.638966,175.645532 879.638966,158.668368 C879.638966,141.830361 892.42149,131.347194 913.002738,131.347194 L913.002738,131.347194 L942.905538,131.347194 L942.905538,125.966454 C942.905538,112.65376 935.106814,105.32482 920.939901,105.32482 C907.419036,105.32482 898.65124,112.050746 895.559438,124.760426 L895.559438,124.760426 L895.190268,126.33754 L881.946281,122.441141 L882.315451,121.003185 C887.160813,103.051921 901.189287,92.7079118 920.893755,92.7079118 Z M1028.27619,94.8416537 L1028.27619,107.876034 L1015.44752,107.876034 C1002.48041,107.876034 995.604608,115.204973 995.604608,129.074295 L995.604608,129.074295 L995.604608,184.644356 L981.945305,184.644356 L981.945305,95.2127392 L995.281584,95.2127392 L995.281584,105.185663 C998.927141,98.0422665 1005.6645,94.8416537 1016.64732,94.8416537 L1016.64732,94.8416537 L1028.27619,94.8416537 Z M432.296773,57.1764706 L432.296773,70.581936 L368.891762,70.581936 L368.891762,114.045331 L427.359119,114.045331 L427.359119,127.404411 L368.891762,127.404411 L368.891762,171.238891 L433.035113,171.238891 L433.035113,184.597971 L354.494118,184.597971 L354.494118,57.1764706 L432.296773,57.1764706 Z M760.48923,95.2127392 L777.332628,173.882875 L799.252119,95.2127392 L819.602635,95.2127392 L841.568272,173.882875 L858.41167,95.2127392 L872.48629,95.2127392 L852.366505,184.597971 L831.416087,184.597971 L809.45045,105.742292 L787.438667,184.597971 L766.488248,184.597971 L746.368463,95.2127392 L760.48923,95.2127392 Z M487.303158,105.371206 C468.290884,105.371206 455.969823,118.637514 455.969823,139.186377 L455.969823,139.186377 L455.969823,140.624333 C455.969823,161.173195 468.244737,174.439504 487.303158,174.439504 C506.315432,174.439504 518.636493,161.173195 518.636493,140.624333 L518.636493,140.624333 L518.636493,139.186377 C518.636493,118.637514 506.315432,105.371206 487.303158,105.371206 Z M942.813246,143.77856 L913.095031,143.77856 C900.681677,143.77856 893.252124,149.298458 893.252124,158.575597 C893.252124,168.362978 901.189287,174.439504 913.971811,174.439504 C931.738134,174.439504 942.813246,162.935852 942.813246,144.381574 L942.813246,144.381574 L942.813246,143.77856 Z M592.05525,105.371206 C573.042976,105.371206 560.721915,118.405586 560.721915,138.490591 L560.721915,138.490591 L560.721915,139.928548 C560.721915,160.059939 572.996829,173.047933 592.05525,173.047933 C611.067523,173.047933 623.388585,160.013553 623.388585,139.928548 L623.388585,139.928548 L623.388585,138.490591 C623.388585,118.3592 611.067523,105.371206 592.05525,105.371206 Z M695.238367,105.371206 C679.13331,105.371206 668.012053,115.065816 665.197129,131.439966 L665.197129,131.439966 L723.98751,131.439966 C722.603121,115.065816 711.943327,105.371206 695.238367,105.371206 Z M1075.06853,105.371206 C1058.96347,105.371206 1047.84222,115.065816 1045.02729,131.439966 L1045.02729,131.439966 L1103.81767,131.439966 C1102.43328,115.065816 1091.77349,105.371206 1075.06853,105.371206 Z" id="Combined-Shape"></path>
                <path d="M283.023529,121.522868 L262.122053,85.6194241 L204.216195,85.6194241 L233.192194,35.9034444 L212.290717,0 L170.487763,0 L141.511765,49.7159797 L112.581906,0.0457368718 L70.7789524,0.0457368718 L49.8774756,35.9491813 L78.8534744,85.6651609 L20.9476169,85.6651609 L0,121.522868 L20.9014768,157.426313 L78.8073342,157.426313 L49.8313355,207.142292 L70.7328123,243 L112.535766,243 L141.511765,193.28402 L170.487763,243 L170.903025,243 L212.290717,243 L233.192194,207.142292 L204.216195,157.426313 L262.122053,157.426313 L283.023529,121.522868 Z M222.626105,35.9034444 L193.650106,85.6194241 L167.719356,85.6194241 L209.66073,13.6753247 L222.626105,35.9034444 Z M175.747738,9.10163749 L201.678488,9.10163749 L159.737114,81.0914737 L146.771739,58.8176172 L175.747738,9.10163749 Z M154.47714,90.1931112 L141.511765,112.466968 L96.9404035,35.9491813 L109.905779,13.6753247 L154.47714,90.1931112 Z M60.4435643,35.9034444 L76.0389267,9.10163749 L101.969677,9.10163749 L86.3743148,35.9034444 L133.575663,116.949181 L107.644913,116.949181 L60.4435643,35.9034444 Z M26.2075912,94.7210615 L84.1134487,94.7210615 L97.0788239,116.994918 L13.242216,116.994918 L26.2075912,94.7210615 Z M26.2075912,148.324675 L13.242216,126.050819 L97.0788239,126.050819 L84.1134487,148.324675 L26.2075912,148.324675 Z M107.644913,126.050819 L133.575663,126.050819 L89.004302,202.568605 L63.0735515,202.568605 L107.644913,126.050819 Z M107.275792,233.944099 L76.0389267,233.944099 L63.0735515,211.670243 L94.3104164,211.670243 L141.511765,130.624506 L154.47714,152.898363 L107.275792,233.944099 Z M175.747738,233.944099 L146.771739,184.22812 L159.737114,161.954263 L201.678488,233.944099 L175.747738,233.944099 Z M222.626105,207.142292 L209.66073,229.370412 L167.719356,157.380576 L193.650106,157.380576 L222.626105,207.142292 Z M162.413242,148.324675 L149.447866,126.050819 L238.590589,126.050819 L251.555964,148.324675 L162.413242,148.324675 Z M243.896703,116.994918 L243.481442,116.994918 L149.494006,116.994918 L162.459382,94.7210615 L256.908218,94.7210615 L272.503581,121.522868 L259.492065,143.796725 L243.896703,116.994918 Z" id="Shape"></path>
            </g>
        </g>
    </g>
</svg>