<?xml version="1.0" encoding="UTF-8"?>
<svg width="279px" height="58px" viewBox="0 0 279 58" version="1.1" xmlns="http://www.w3.org/2000/svg" xmlns:xlink="http://www.w3.org/1999/xlink">
    <title>Brand/Outline/Logotype Copy@2x</title>
    <g id="Site" stroke="none" stroke-width="1" fill="none" fill-rule="evenodd">
        <g id="Edgeware-V3---Press-(Desktop)" transform="translate(-582.000000, -1996.000000)" fill="#151515">
            <g id="Group-3-Copy" transform="translate(543.000000, 1937.000000)">
                <g id="Brand/Outline/Logotype-Copy" transform="translate(39.000000, 58.000000)">
                    <path d="M145.683719,23.8532109 C150.598927,23.8532109 153.068178,26.1803386 154.302804,28.2759112 L154.302804,28.2759112 L154.302804,24.4668316 L157.575727,24.4668316 L157.575727,51.9060981 C157.575727,54.3258478 156.224627,55.657289 153.755376,55.657289 L153.755376,55.657289 L138.555503,55.657289 L138.555503,52.4965634 L153.219595,52.4965634 C153.965029,52.4965634 154.221272,52.2418529 154.221272,51.5471879 L154.221272,51.5471879 L154.221272,42.805987 C152.031559,46.4877113 147.954964,47.0550211 145.683719,47.0550211 C139.312585,47.0550211 134.863273,42.4007657 134.863273,35.7204042 L134.863273,35.7204042 L134.863273,35.1878277 C134.863273,28.519044 139.312585,23.8532109 145.683719,23.8532109 Z M131.217633,14.9846547 L131.217633,46.7887328 L127.851531,46.7887328 L127.851531,42.9796532 C126.628553,45.0752259 124.147654,47.4023536 119.232446,47.4023536 C112.861311,47.4023536 108.412,42.6786317 108.412,35.8940705 L108.412,35.8940705 L108.412,35.361494 C108.412,28.5885105 112.861311,23.8532109 119.232446,23.8532109 C121.515339,23.8532109 125.580285,24.4089429 127.769999,28.102245 L127.769999,28.102245 L127.769999,14.9846547 L131.217633,14.9846547 Z M172.344646,23.8532109 C178.785665,23.8532109 183.118502,28.241178 183.118502,34.7710288 L183.118502,34.7710288 L183.118502,36.5771577 L164.669001,36.5771577 C164.983481,41.3124573 168.011808,44.2300502 172.647478,44.2300502 C175.966991,44.2300502 178.168352,42.7944092 179.566041,39.7147278 L179.566041,39.7147278 L179.729105,39.3673953 L182.850612,40.7451475 L182.687548,41.1040578 C180.684193,45.3415141 177.41127,47.4023536 172.659126,47.4023536 C165.810447,47.4023536 161.20972,42.7828315 161.20972,35.8940705 L161.20972,35.8940705 L161.20972,35.361494 C161.20972,28.5885105 165.787153,23.8532109 172.344646,23.8532109 Z M229.300492,23.8532109 C234.926192,23.8532109 238.292294,27.0139365 238.292294,32.3049681 L238.292294,32.3049681 L238.292294,42.7712537 C238.292294,43.4311854 238.548537,43.7090514 239.154203,43.6858959 L241.402153,43.6858959 L241.402153,46.7655773 L238.408768,46.7655773 C236.46365,46.7655773 235.170788,45.5499136 235.042666,43.6395849 C233.936162,45.3646696 231.92116,47.3907758 227.390316,47.3907758 C222.300397,47.3907758 218.887705,44.5542272 218.887705,40.3167708 C218.887705,36.1140477 222.114038,33.4974763 227.308784,33.4974763 L227.308784,33.4974763 L234.856307,33.4974763 L234.856307,32.1544574 C234.856307,28.8316432 232.887895,27.0023588 229.312139,27.0023588 C225.899447,27.0023588 223.686439,28.6811325 222.906062,31.8534359 L222.906062,31.8534359 L222.812883,32.2470794 L219.470076,31.2745484 L219.563255,30.9156382 C220.786233,26.4350491 224.327047,23.8532109 229.300492,23.8532109 Z M268.214496,23.8416332 C274.667163,23.8416332 279,28.241178 279,34.7826065 L279,34.7826065 L278.988353,34.7826065 L278.988353,36.5655799 L260.538852,36.5655799 C260.853332,41.3008795 263.881659,44.2184724 268.517329,44.2184724 C271.836841,44.2184724 274.038202,42.7828315 275.435892,39.7031501 L275.435892,39.7031501 L275.598956,39.3558176 L278.720462,40.7335698 L278.557398,41.09248 C276.554043,45.3299364 273.281121,47.3907758 268.528976,47.3907758 C261.680298,47.3907758 257.07957,42.7712537 257.07957,35.8824927 L257.07957,35.8824927 L257.07957,35.3499162 C257.07957,28.5769327 261.657003,23.8416332 268.214496,23.8416332 Z M105.989338,14.9846547 L105.989338,18.3190466 L89.9741461,18.3190466 L89.9741461,29.167398 L104.731417,29.167398 L104.731417,32.5133676 L89.9741461,32.5133676 L89.9741461,43.4543409 L106.164049,43.4543409 L106.164049,46.7887328 L86.3401535,46.7887328 L86.3401535,14.9846547 L105.989338,14.9846547 Z M188.814087,24.4668316 L193.065392,44.1026949 L198.597913,24.4668316 L203.734422,24.4668316 L209.27859,44.1026949 L213.529896,24.4668316 L217.094004,24.4668316 L212.004085,46.7887328 L206.716159,46.7887328 L201.171991,27.1065585 L195.616175,46.7887328 L190.339898,46.7887328 L185.249979,24.4668316 L188.814087,24.4668316 Z M256.40402,24.3857874 L256.40402,27.639135 L253.16604,27.639135 C249.893117,27.639135 248.157652,29.4684195 248.157652,32.9301666 L248.157652,32.9301666 L248.157652,46.7887328 L244.710018,46.7887328 L244.710018,24.4668316 L248.07612,24.4668316 L248.07612,26.9560478 C248.996266,25.1846521 250.696788,24.3857874 253.468872,24.3857874 L253.468872,24.3857874 L256.40402,24.3857874 Z M119.861406,27.0139365 C115.062672,27.0139365 111.952813,30.3251729 111.952813,35.454116 L111.952813,35.454116 L111.952813,35.8130262 C111.952813,40.9419693 115.051025,44.2532057 119.861406,44.2532057 C124.66014,44.2532057 127.769999,40.9419693 127.769999,35.8130262 L127.769999,35.8130262 L127.769999,35.454116 C127.769999,30.3251729 124.66014,27.0139365 119.861406,27.0139365 Z M234.84466,36.5887354 L227.332079,36.5887354 C224.198925,36.5887354 222.323692,37.9664876 222.323692,40.2820376 C222.323692,42.7249427 224.327047,44.2416279 227.55338,44.2416279 C232.049281,44.2416279 234.84466,41.370346 234.84466,36.7392462 L234.84466,36.7392462 L234.84466,36.5887354 Z M146.301032,27.0139365 C141.502298,27.0139365 138.392439,30.2672842 138.392439,35.2804497 L138.392439,35.2804497 L138.392439,35.63936 C138.392439,40.6641033 141.490651,43.9058732 146.301032,43.9058732 C151.099766,43.9058732 154.209625,40.6525255 154.209625,35.63936 L154.209625,35.63936 L154.209625,35.2804497 C154.209625,30.2557064 151.111413,27.0139365 146.301032,27.0139365 Z M172.344646,27.0139365 C168.279699,27.0139365 165.472672,29.4336862 164.76218,33.5206318 L164.76218,33.5206318 L179.600984,33.5206318 C179.251561,29.4336862 176.561009,27.0139365 172.344646,27.0139365 Z M268.226144,27.0139365 C264.161197,27.0139365 261.35417,29.4336862 260.643678,33.5206318 L260.643678,33.5206318 L275.482481,33.5206318 C275.133059,29.4336862 272.442507,27.0139365 268.226144,27.0139365 Z" id="Combined-Shape"></path>
                    <path d="M53.0271187,8.23310342 L45.6888572,20.8578728 L39.1218143,20.8578728 L49.7435973,2.57692798 L53.0271187,8.23310342 Z M41.166712,1.42710997 L47.7337549,1.42710997 L37.111972,19.7080548 L33.8284506,14.0518794 L41.166712,1.42710997 Z M35.7798672,22.0076908 L32.4963458,27.6638663 L21.2085105,8.23310342 L24.4920319,2.57692798 L35.7798672,22.0076908 Z M11.9538877,8.23310342 L15.9151467,1.42710997 L22.4821896,1.42710997 L18.5326158,8.23310342 L30.4865035,28.8136843 L23.9194606,28.8136843 L11.9538877,8.23310342 Z M3.28352145,23.1691232 L17.9483593,23.1691232 L21.2318807,28.8252986 L-2.23084978e-13,28.8252986 L3.28352145,23.1691232 Z M3.28352145,36.7811101 L-2.23084978e-13,31.1249346 L21.2318807,31.1249346 L17.9483593,36.7811101 L3.28352145,36.7811101 Z M23.9194606,31.1249346 L30.4865035,31.1249346 L19.1986681,50.5556975 L12.6316252,50.5556975 L23.9194606,31.1249346 Z M23.8142944,58.511509 L15.9034616,58.511509 L12.6199401,52.8553335 L20.5307729,52.8553335 L32.4846606,32.2747526 L35.7681821,37.9309281 L23.8142944,58.511509 Z M41.166712,58.511509 L33.8284506,45.8867395 L37.111972,40.2305641 L47.7337549,58.511509 L41.166712,58.511509 Z M53.0271187,51.7055155 L49.7435973,57.3616909 L39.1218143,39.0807461 L45.6888572,39.0807461 L53.0271187,51.7055155 Z M37.7897095,36.7811101 L34.5061881,31.1249346 L57.0818587,31.1249346 L60.3653802,36.7811101 L37.7897095,36.7811101 Z M58.4139635,28.8136843 L58.3087974,28.8136843 L34.5061881,28.8136843 L37.7897095,23.1575089 L61.697485,23.1575089 L65.6470588,29.9635023 L62.3635374,35.6196777 L58.4139635,28.8136843 Z" id="Shape"></path>
                </g>
            </g>
        </g>
    </g>
</svg>