<?xml version="1.0" encoding="UTF-8"?>
<svg width="293px" height="192px" viewBox="0 0 293 192" version="1.1" xmlns="http://www.w3.org/2000/svg" xmlns:xlink="http://www.w3.org/1999/xlink">
    <title>Edgeware-logomark-white</title>
    <g id="Edgeware-logomark-white" stroke="none" stroke-width="1" fill="none" fill-rule="evenodd">
        <g id="Group" transform="translate(52.000000, 55.000000)" fill="#FFFFFF" fill-rule="nonzero">
            <g id="Logo-White-Copy-4">
                <path d="M40.8015642,3.60305283 C40.8123755,12.9368264 40.819583,22.2525811 40.8303943,31.5827509 C48.8632057,26.933883 56.9212434,22.2706 65.0477528,17.5676755 C66.9073,20.7822415 68.7019792,23.877883 70.6011679,27.1645245 C62.5179038,31.8386189 54.4454509,36.5127132 46.3657906,41.1868075 C54.4634698,45.875317 62.5431302,50.5494113 70.6011679,55.2126943 C68.6731491,58.5425811 66.8568472,61.6850717 65.0477528,64.8095434 C56.9392623,60.1138264 48.8992434,55.4613547 40.852017,50.8052792 C40.8628283,60.0922038 40.8700358,69.4007509 40.8808472,78.7597509 C37.2734698,78.7633547 33.640866,78.7669585 29.7956396,78.7705623 C29.7848283,69.4692226 29.774017,60.1426566 29.7632057,50.7944679 C21.7159792,55.4541472 13.6687528,60.1102226 5.55305472,64.8095434 C3.74756415,61.6850717 1.92765849,58.5425811 -0.000360377358,55.2126943 C8.06128113,50.5494113 16.1373377,45.875317 24.235017,41.1868075 C16.1553566,36.5127132 8.08290377,31.8386189 -0.000360377358,27.1609208 C1.90243208,23.877883 3.69350755,20.7786377 5.55305472,17.5676755 C13.6723566,22.2633925 21.7231868,26.9230717 29.7451868,31.5683358 C29.7343755,22.2958264 29.7271679,12.9980906 29.7163566,3.61746792 C33.4282434,3.61026038 37.0067906,3.6066566 40.8015642,3.60305283 Z M142.048862,47.1517736 C143.940843,50.4384151 145.728315,53.5412642 147.580655,56.759434 C136.023353,63.412 124.682277,69.9420377 113.380843,76.4504528 C111.460032,73.1169623 109.647334,69.9708679 107.849051,66.8427925 C119.341485,60.2262642 130.675353,53.6998302 142.048862,47.1517736 Z M155.249485,47.0537509 C166.514881,53.5441472 177.816315,60.056166 189.330372,66.6907132 C187.478032,69.908883 185.69056,73.0081283 183.794975,76.2983736 C172.461108,69.7647321 161.166881,63.256317 149.717692,56.6614113 C151.519579,53.5333358 153.332277,50.3908453 155.249485,47.0537509 Z M154.078258,5.66909623 C154.08907,18.7507943 154.103485,31.7856434 154.114296,45.0006811 C150.503315,45.0042849 146.874315,45.0078887 143.025485,45.0114925 C143.014674,32.0090774 143.003862,18.9706245 142.993051,5.67990755 C146.704938,5.67630377 150.283485,5.6727 154.078258,5.66909623 Z" id="Combined-Shape"></path>
            </g>
        </g>
    </g>
</svg>