<?xml version="1.0" encoding="UTF-8"?>
<svg width="130px" height="52px" viewBox="0 0 130 52" version="1.1" xmlns="http://www.w3.org/2000/svg" xmlns:xlink="http://www.w3.org/1999/xlink">
    <title>Logo White Copy 3</title>
    <g id="Site" stroke="none" stroke-width="1" fill="none" fill-rule="evenodd">
        <g id="Edgeware-V2---Press-Page-(Desktop)" transform="translate(-272.000000, -1964.000000)" fill="#FFFFFF">
            <g id="Component/TwitterSnippet-Copy-7" transform="translate(160.000000, 1900.000000)">
                <g id="Logo-White-Copy-3" transform="translate(107.000000, 59.214286)">
                    <path d="M33.0672625,5.082825 C33.0746754,11.473179 33.0796174,17.8511964 33.0870304,24.2390831 C38.5948788,21.0562427 44.1200241,17.863533 49.6921183,14.6436828 C50.9671519,16.8445306 52.1977075,18.9639569 53.499922,21.214151 C47.9574797,24.4142627 42.4224504,27.6143743 36.8824791,30.814486 C42.4348053,34.0244669 47.9747766,37.2245785 53.499922,40.4172882 C52.1779395,42.6970901 50.9325579,44.8485916 49.6921183,46.9877564 C44.1323791,43.7728409 38.6195887,40.5875331 33.1018564,37.3997581 C33.1092694,43.7580369 33.1142114,50.1311197 33.1216244,56.5387449 C30.6481581,56.5412123 28.1573949,56.5436796 25.520843,56.5461469 C25.5134301,50.1779988 25.5060171,43.7925794 25.4986041,37.3923561 C19.9808718,40.5825985 14.4631394,43.7703735 8.89845818,46.9877564 C7.66048958,44.8485916 6.41263699,42.6970901 5.09065455,40.4172882 C10.6182709,37.2245785 16.1557712,34.0244669 21.7080974,30.814486 C16.1681261,27.6143743 10.6330968,24.4142627 5.09065455,21.2116837 C6.39534002,18.9639569 7.62342465,16.8420633 8.89845818,14.6436828 C14.4656104,17.8585984 19.9858137,21.0488407 25.4862491,24.2292138 C25.4788361,17.8808042 25.4738941,11.5151234 25.4664812,5.09269427 C28.0116062,5.08775964 30.4653045,5.08529232 33.0672625,5.082825 Z M102.489379,34.8983909 C103.786652,37.1485851 105.012265,39.272946 106.282357,41.4762611 C98.357875,46.0309304 90.5816531,50.5017109 82.832612,54.9576875 C81.5155716,52.6754182 80.272661,50.5214494 79.0396344,48.3798173 C83.7676366,45.6618196 88.4564983,42.9660278 93.1355749,40.2759207 Z M111.540635,34.8312799 C119.264966,39.2749199 127.014007,43.7333638 134.908836,48.2756965 L134.15117,49.5896125 L134.15117,49.5896125 L132.645088,52.1995613 C132.141322,53.0723603 131.633285,53.9525021 131.113388,54.8535667 C123.342108,50.3803189 115.598009,45.9243423 107.747657,41.4091501 C108.983154,39.2675179 110.226065,37.1160165 111.540635,34.8312799 Z M110.737561,6.49733849 L110.747326,17.2395285 C110.752486,22.6128737 110.757823,27.9970554 110.762271,33.4256487 C108.286334,33.4281161 105.798042,33.4305834 103.159019,33.4330507 C103.151606,24.5309668 103.144193,15.6042098 103.13678,6.50474045 C105.681905,6.50227313 108.135603,6.49980581 110.737561,6.49733849 Z" id="Combined-Shape"></path>
                </g>
            </g>
        </g>
    </g>
</svg>