<?xml version="1.0" encoding="UTF-8"?>
<svg width="800px" height="217px" viewBox="0 0 800 217" version="1.1" xmlns="http://www.w3.org/2000/svg" xmlns:xlink="http://www.w3.org/1999/xlink">
    <title>Edgeware-logo-white</title>
    <g id="Edgeware-logo-white" stroke="none" stroke-width="1" fill="none" fill-rule="evenodd">
        <g id="Group" transform="translate(61.000000, 64.000000)" fill="#FFFFFF" fill-rule="nonzero">
            <g id="Logo-White-Copy">
                <path d="M414.770922,19.4661037 L414.770922,27.6572148 L404.905663,27.6572148 L404.905663,29.6115852 C409.281441,32.5000296 411.695663,37.152437 411.695663,42.7389185 C411.695663,52.5107704 404.625441,59.1175481 392.338774,59.1175481 C390.010774,59.1175481 387.776181,58.8409185 386.008626,58.3738815 C383.587219,59.2145481 381.352626,60.7952889 381.352626,63.2166963 C381.352626,65.8213259 383.867441,66.8488074 388.149811,66.8488074 L400.062848,66.8488074 C411.979478,66.8488074 417.005515,71.8712519 417.005515,80.2491778 C417.005515,90.3012519 409.838293,95.4242889 392.428589,95.4242889 C376.606811,95.4242889 370.463478,91.1383259 370.463478,83.7842889 C370.463478,78.4816222 373.628552,75.5931778 378.747996,74.4794741 L378.747996,73.4519926 C375.209293,72.3382889 373.254922,69.6366593 373.254922,66.0081407 C373.254922,60.9821037 377.163663,58.5606963 381.819663,57.4434 L381.819663,57.073363 C376.139774,54.3717333 372.9747,49.2522889 372.9747,42.7389185 C372.9747,32.8736593 379.9587,26.1698815 392.241774,26.1698815 C395.503848,26.1698815 398.482107,26.6333259 400.99333,27.6572148 L400.99333,26.3566963 C400.99333,22.0743259 403.041107,19.4661037 407.323478,19.4661037 L414.770922,19.4661037 Z M398.668922,75.8734 L382.2867,75.8734 C380.052107,77.1775111 378.931219,79.1318815 378.931219,81.4598815 C378.931219,85.3686222 381.819663,88.0702519 389.360515,88.0702519 L395.68707,88.0702519 C403.601552,88.0702519 407.5067,85.8356593 407.5067,81.3664741 C407.5067,78.0145852 405.2757,75.8734 398.668922,75.8734 Z M40.6749741,3.59187407 C40.6857519,12.8966889 40.692937,22.1835407 40.7037148,31.484763 C48.7116037,26.8503185 56.7446407,22.2015037 64.845937,17.5131704 C66.6997148,20.717763 68.4888259,23.8038 70.3821222,27.0802444 C62.323937,31.739837 54.2765296,36.3994296 46.221937,41.0590222 C54.2944926,45.7329852 62.3490852,50.3925778 70.3821222,55.0413926 C68.4600852,58.3609481 66.6494185,61.4936889 64.845937,64.6084667 C56.7626037,59.9273185 48.7475296,55.2892815 40.7252704,50.6476519 C40.7360481,59.905763 40.7432333,69.1854296 40.7540111,78.5153926 C37.1578259,78.5189852 33.5364926,78.5225778 29.7031963,78.5261704 C29.6924185,69.2536889 29.6816407,59.9560593 29.670863,50.6368741 C21.6486037,55.2820963 13.6263444,59.9237259 5.53582593,64.6084667 C3.73593704,61.4936889 1.92167778,58.3609481 -0.00035925926,55.0413926 C8.03627037,50.3925778 16.0872704,45.7329852 24.1598259,41.0590222 C16.1052333,36.3994296 8.05782593,31.739837 -0.00035925926,27.0766519 C1.89652963,23.8038 3.68204815,20.7141704 5.53582593,17.5131704 C13.629937,22.1943185 21.6557889,26.8395407 29.6529,31.4703926 C29.6421222,22.2266519 29.634937,12.957763 29.6241593,3.60624444 C33.3245296,3.59905926 36.8919741,3.59546667 40.6749741,3.59187407 Z M566.257259,26.1706 C578.730741,26.1706 585.711148,32.3103407 585.711148,43.1096741 L585.711148,67.4063778 L590.830593,67.4063778 L590.830593,75.6873037 L585.154296,75.6873037 C579.848037,75.6873037 577.056593,72.3390074 576.402741,67.5896 L575.939296,67.5896 C574.078333,73.6395259 568.865481,76.8046 561.791667,76.8046 C551.833,76.8046 546.149519,71.1283037 546.149519,62.3767481 C546.149519,52.7881185 553.320333,47.8554889 566.814111,47.8554889 L575.565667,47.8554889 L575.565667,43.7635259 C575.565667,37.8968222 572.400593,34.4551185 565.607,34.4551185 C559.927111,34.4551185 556.481815,37.246563 554.064,41.0618963 L548.014074,35.5688222 C551.179148,30.1691556 556.855444,26.1706 566.257259,26.1706 Z M361.054837,6.80868148 L361.054837,75.6894593 L350.909356,75.6894593 L350.909356,67.6815704 L350.445911,67.6815704 C348.398133,73.3614593 343.278689,76.803163 336.855133,76.803163 C324.658281,76.803163 317.588059,67.4049407 317.588059,51.486163 C317.588059,35.5709778 324.658281,26.169163 336.855133,26.169163 C343.278689,26.169163 348.398133,29.5174593 350.445911,35.2907556 L350.909356,35.2907556 L350.909356,6.80868148 L361.054837,6.80868148 Z M444.016422,26.169163 C458.257459,26.169163 465.518089,36.8714963 465.518089,50.2754593 L465.518089,54.0943852 L432.286607,54.0943852 L432.286607,55.6751259 C432.286607,63.1225704 436.8492,68.4288296 445.040311,68.4288296 C450.99683,68.4288296 454.995385,65.6373852 457.790422,61.1682 L463.746941,67.0313111 C460.118422,72.8944222 453.041015,76.803163 444.016422,76.803163 C430.23883,76.803163 421.767496,66.9379037 421.767496,51.486163 C421.767496,36.0380148 430.23883,26.169163 444.016422,26.169163 Z M654.226919,26.169163 C668.467956,26.169163 675.728585,36.8714963 675.728585,50.2754593 L675.728585,54.0943852 L642.497104,54.0943852 L642.497104,55.6751259 C642.497104,63.1225704 647.059696,68.4288296 655.250807,68.4288296 C661.207326,68.4288296 665.209474,65.6373852 668.000919,61.1682 L673.957437,67.0313111 C670.328919,72.8944222 663.251511,76.803163 654.226919,76.803163 C640.449326,76.803163 631.977993,66.9379037 631.977993,51.486163 C631.977993,36.0380148 640.449326,26.169163 654.226919,26.169163 Z M141.608144,47.0054815 C143.494256,50.2819259 145.276181,53.3751481 147.122774,56.5833333 C135.60133,63.2152593 124.295441,69.725037 113.02907,76.2132593 C111.114219,72.8901111 109.307144,69.7537778 107.514441,66.6354074 C118.971219,60.0394074 130.269922,53.5332222 141.608144,47.0054815 Z M154.767811,46.907763 C165.998256,53.3780222 177.264626,59.869837 188.742959,66.4838 C186.896367,69.6919852 185.114441,72.7816148 183.224737,76.0616519 C171.926033,69.5482815 160.666848,63.0600593 149.253181,56.4856148 C151.049478,53.3672444 152.856552,50.2345037 154.767811,46.907763 Z M481.351004,27.2864593 L486.283633,47.5774222 L490.659411,65.9140148 L490.939633,65.9140148 L495.96567,47.5774222 L501.828781,27.2864593 L510.950374,27.2864593 L516.910485,47.5774222 L522.026337,65.9140148 L522.306559,65.9140148 L526.58893,47.5774222 L531.614967,27.2864593 L541.016781,27.2864593 L527.986448,75.6894593 L516.536856,75.6894593 L510.206707,53.6273481 L506.294374,40.040163 L506.111152,40.040163 L502.295819,53.6273481 L495.872263,75.6894593 L484.702893,75.6894593 L471.485744,27.2864593 L481.351004,27.2864593 Z M308.545504,10.7159852 L308.545504,20.0243926 L277.4588,20.0243926 L277.4588,37.2472815 L305.660652,37.2472815 L305.660652,46.5556889 L277.4588,46.5556889 L277.4588,66.3796148 L308.545504,66.3796148 L308.545504,75.6880222 L266.939689,75.6880222 L266.939689,10.7159852 L308.545504,10.7159852 Z M610.187481,27.2850222 L610.187481,36.5934296 L610.654519,36.5934296 C612.052037,31.6608 616.241,27.2850222 623.965074,27.2850222 L626.663111,27.2850222 L626.663111,37.0604667 L622.664556,37.0604667 C614.656667,37.0604667 610.187481,39.7585037 610.187481,44.7845407 L610.187481,75.6880222 L600.042,75.6880222 L600.042,27.2850222 L610.187481,27.2850222 Z M575.565667,54.3724519 L567.000926,54.3724519 C559.927111,54.3724519 556.481815,56.7004519 556.481815,60.8894148 L556.481815,62.563563 C556.481815,66.8459333 559.646889,69.0769333 564.676519,69.0769333 C570.913259,69.0769333 575.565667,66.0986741 575.565667,61.3528593 L575.565667,54.3724519 Z M339.923207,34.9171259 C332.946393,34.9171259 328.290393,39.8497556 328.290393,47.2972 L328.290393,55.6751259 C328.290393,63.1225704 332.946393,68.0552 339.923207,68.0552 C346.070133,68.0552 350.909356,64.7033111 350.909356,59.7706815 L350.909356,43.205237 C350.909356,38.2690148 346.070133,34.9171259 339.923207,34.9171259 Z M392.338774,33.5203259 C386.382256,33.5203259 382.936959,36.2219556 382.936959,41.711437 L382.936959,43.5759926 C382.936959,49.0654741 386.382256,51.7635111 392.338774,51.7635111 C398.295293,51.7635111 401.740589,49.0654741 401.740589,43.5759926 L401.740589,41.711437 C401.740589,36.2219556 398.295293,33.5203259 392.338774,33.5203259 Z M654.226919,34.0836444 C647.242919,34.0836444 642.497104,39.2929037 642.497104,46.7403481 L642.497104,47.3906074 L665.022659,47.3906074 L665.022659,46.4601259 C665.022659,39.0162741 660.927104,34.0836444 654.226919,34.0836444 Z M444.016422,34.0836444 C437.032422,34.0836444 432.286607,39.2929037 432.286607,46.7403481 L432.286607,47.3906074 L454.812163,47.3906074 L454.812163,46.4601259 C454.812163,39.0162741 450.716607,34.0836444 444.016422,34.0836444 Z M153.600219,5.65150741 C153.610996,18.6926185 153.625367,31.6870259 153.636144,44.861063 C150.036367,44.8646556 146.418626,44.8682481 142.581737,44.8718407 C142.570959,31.9097667 142.560181,18.9117667 142.549404,5.66228519 C146.249774,5.65869259 149.817219,5.6551 153.600219,5.65150741 Z" id="Combined-Shape"></path>
            </g>
        </g>
    </g>
</svg>